G04 #@! TF.GenerationSoftware,KiCad,Pcbnew,8.0.7-8.0.7-0~ubuntu22.04.1*
G04 #@! TF.CreationDate,2024-12-31T16:15:11+01:00*
G04 #@! TF.ProjectId,kicad_makespace_tutorial,6b696361-645f-46d6-916b-657370616365,rev?*
G04 #@! TF.SameCoordinates,Original*
G04 #@! TF.FileFunction,Legend,Top*
G04 #@! TF.FilePolarity,Positive*
%FSLAX46Y46*%
G04 Gerber Fmt 4.6, Leading zero omitted, Abs format (unit mm)*
G04 Created by KiCad (PCBNEW 8.0.7-8.0.7-0~ubuntu22.04.1) date 2024-12-31 16:15:11*
%MOMM*%
%LPD*%
G01*
G04 APERTURE LIST*
%ADD10C,0.150000*%
%ADD11C,0.250000*%
%ADD12C,0.080000*%
%ADD13C,0.300000*%
G04 APERTURE END LIST*
D10*
X58916666Y-12454819D02*
X58916666Y-13169104D01*
X58916666Y-13169104D02*
X58869047Y-13311961D01*
X58869047Y-13311961D02*
X58773809Y-13407200D01*
X58773809Y-13407200D02*
X58630952Y-13454819D01*
X58630952Y-13454819D02*
X58535714Y-13454819D01*
X59916666Y-13454819D02*
X59345238Y-13454819D01*
X59630952Y-13454819D02*
X59630952Y-12454819D01*
X59630952Y-12454819D02*
X59535714Y-12597676D01*
X59535714Y-12597676D02*
X59440476Y-12692914D01*
X59440476Y-12692914D02*
X59345238Y-12740533D01*
X27454819Y-14416666D02*
X26978628Y-14749999D01*
X27454819Y-14988094D02*
X26454819Y-14988094D01*
X26454819Y-14988094D02*
X26454819Y-14607142D01*
X26454819Y-14607142D02*
X26502438Y-14511904D01*
X26502438Y-14511904D02*
X26550057Y-14464285D01*
X26550057Y-14464285D02*
X26645295Y-14416666D01*
X26645295Y-14416666D02*
X26788152Y-14416666D01*
X26788152Y-14416666D02*
X26883390Y-14464285D01*
X26883390Y-14464285D02*
X26931009Y-14511904D01*
X26931009Y-14511904D02*
X26978628Y-14607142D01*
X26978628Y-14607142D02*
X26978628Y-14988094D01*
X26454819Y-14083332D02*
X26454819Y-13416666D01*
X26454819Y-13416666D02*
X27454819Y-13845237D01*
X49988095Y-9354819D02*
X49988095Y-8354819D01*
X49988095Y-8831009D02*
X50559523Y-8831009D01*
X50559523Y-9354819D02*
X50559523Y-8354819D01*
X51559523Y-9354819D02*
X50988095Y-9354819D01*
X51273809Y-9354819D02*
X51273809Y-8354819D01*
X51273809Y-8354819D02*
X51178571Y-8497676D01*
X51178571Y-8497676D02*
X51083333Y-8592914D01*
X51083333Y-8592914D02*
X50988095Y-8640533D01*
X54807200Y-6333332D02*
X54854819Y-6190475D01*
X54854819Y-6190475D02*
X54854819Y-5952380D01*
X54854819Y-5952380D02*
X54807200Y-5857142D01*
X54807200Y-5857142D02*
X54759580Y-5809523D01*
X54759580Y-5809523D02*
X54664342Y-5761904D01*
X54664342Y-5761904D02*
X54569104Y-5761904D01*
X54569104Y-5761904D02*
X54473866Y-5809523D01*
X54473866Y-5809523D02*
X54426247Y-5857142D01*
X54426247Y-5857142D02*
X54378628Y-5952380D01*
X54378628Y-5952380D02*
X54331009Y-6142856D01*
X54331009Y-6142856D02*
X54283390Y-6238094D01*
X54283390Y-6238094D02*
X54235771Y-6285713D01*
X54235771Y-6285713D02*
X54140533Y-6333332D01*
X54140533Y-6333332D02*
X54045295Y-6333332D01*
X54045295Y-6333332D02*
X53950057Y-6285713D01*
X53950057Y-6285713D02*
X53902438Y-6238094D01*
X53902438Y-6238094D02*
X53854819Y-6142856D01*
X53854819Y-6142856D02*
X53854819Y-5904761D01*
X53854819Y-5904761D02*
X53902438Y-5761904D01*
X53854819Y-5428570D02*
X54854819Y-5190475D01*
X54854819Y-5190475D02*
X54140533Y-4999999D01*
X54140533Y-4999999D02*
X54854819Y-4809523D01*
X54854819Y-4809523D02*
X53854819Y-4571428D01*
X54854819Y-3666666D02*
X54854819Y-4238094D01*
X54854819Y-3952380D02*
X53854819Y-3952380D01*
X53854819Y-3952380D02*
X53997676Y-4047618D01*
X53997676Y-4047618D02*
X54092914Y-4142856D01*
X54092914Y-4142856D02*
X54140533Y-4238094D01*
X16015595Y2545181D02*
X16015595Y1735658D01*
X16015595Y1735658D02*
X16063214Y1640420D01*
X16063214Y1640420D02*
X16110833Y1592800D01*
X16110833Y1592800D02*
X16206071Y1545181D01*
X16206071Y1545181D02*
X16396547Y1545181D01*
X16396547Y1545181D02*
X16491785Y1592800D01*
X16491785Y1592800D02*
X16539404Y1640420D01*
X16539404Y1640420D02*
X16587023Y1735658D01*
X16587023Y1735658D02*
X16587023Y2545181D01*
X16967976Y2545181D02*
X17587023Y2545181D01*
X17587023Y2545181D02*
X17253690Y2164229D01*
X17253690Y2164229D02*
X17396547Y2164229D01*
X17396547Y2164229D02*
X17491785Y2116610D01*
X17491785Y2116610D02*
X17539404Y2068991D01*
X17539404Y2068991D02*
X17587023Y1973753D01*
X17587023Y1973753D02*
X17587023Y1735658D01*
X17587023Y1735658D02*
X17539404Y1640420D01*
X17539404Y1640420D02*
X17491785Y1592800D01*
X17491785Y1592800D02*
X17396547Y1545181D01*
X17396547Y1545181D02*
X17110833Y1545181D01*
X17110833Y1545181D02*
X17015595Y1592800D01*
X17015595Y1592800D02*
X16967976Y1640420D01*
X38609580Y-11416666D02*
X38657200Y-11464285D01*
X38657200Y-11464285D02*
X38704819Y-11607142D01*
X38704819Y-11607142D02*
X38704819Y-11702380D01*
X38704819Y-11702380D02*
X38657200Y-11845237D01*
X38657200Y-11845237D02*
X38561961Y-11940475D01*
X38561961Y-11940475D02*
X38466723Y-11988094D01*
X38466723Y-11988094D02*
X38276247Y-12035713D01*
X38276247Y-12035713D02*
X38133390Y-12035713D01*
X38133390Y-12035713D02*
X37942914Y-11988094D01*
X37942914Y-11988094D02*
X37847676Y-11940475D01*
X37847676Y-11940475D02*
X37752438Y-11845237D01*
X37752438Y-11845237D02*
X37704819Y-11702380D01*
X37704819Y-11702380D02*
X37704819Y-11607142D01*
X37704819Y-11607142D02*
X37752438Y-11464285D01*
X37752438Y-11464285D02*
X37800057Y-11416666D01*
X37704819Y-11083332D02*
X37704819Y-10464285D01*
X37704819Y-10464285D02*
X38085771Y-10797618D01*
X38085771Y-10797618D02*
X38085771Y-10654761D01*
X38085771Y-10654761D02*
X38133390Y-10559523D01*
X38133390Y-10559523D02*
X38181009Y-10511904D01*
X38181009Y-10511904D02*
X38276247Y-10464285D01*
X38276247Y-10464285D02*
X38514342Y-10464285D01*
X38514342Y-10464285D02*
X38609580Y-10511904D01*
X38609580Y-10511904D02*
X38657200Y-10559523D01*
X38657200Y-10559523D02*
X38704819Y-10654761D01*
X38704819Y-10654761D02*
X38704819Y-10940475D01*
X38704819Y-10940475D02*
X38657200Y-11035713D01*
X38657200Y-11035713D02*
X38609580Y-11083332D01*
X50843333Y-20409580D02*
X50795714Y-20457200D01*
X50795714Y-20457200D02*
X50652857Y-20504819D01*
X50652857Y-20504819D02*
X50557619Y-20504819D01*
X50557619Y-20504819D02*
X50414762Y-20457200D01*
X50414762Y-20457200D02*
X50319524Y-20361961D01*
X50319524Y-20361961D02*
X50271905Y-20266723D01*
X50271905Y-20266723D02*
X50224286Y-20076247D01*
X50224286Y-20076247D02*
X50224286Y-19933390D01*
X50224286Y-19933390D02*
X50271905Y-19742914D01*
X50271905Y-19742914D02*
X50319524Y-19647676D01*
X50319524Y-19647676D02*
X50414762Y-19552438D01*
X50414762Y-19552438D02*
X50557619Y-19504819D01*
X50557619Y-19504819D02*
X50652857Y-19504819D01*
X50652857Y-19504819D02*
X50795714Y-19552438D01*
X50795714Y-19552438D02*
X50843333Y-19600057D01*
X51700476Y-19838152D02*
X51700476Y-20504819D01*
X51462381Y-19457200D02*
X51224286Y-20171485D01*
X51224286Y-20171485D02*
X51843333Y-20171485D01*
X25454819Y-14416666D02*
X24978628Y-14749999D01*
X25454819Y-14988094D02*
X24454819Y-14988094D01*
X24454819Y-14988094D02*
X24454819Y-14607142D01*
X24454819Y-14607142D02*
X24502438Y-14511904D01*
X24502438Y-14511904D02*
X24550057Y-14464285D01*
X24550057Y-14464285D02*
X24645295Y-14416666D01*
X24645295Y-14416666D02*
X24788152Y-14416666D01*
X24788152Y-14416666D02*
X24883390Y-14464285D01*
X24883390Y-14464285D02*
X24931009Y-14511904D01*
X24931009Y-14511904D02*
X24978628Y-14607142D01*
X24978628Y-14607142D02*
X24978628Y-14988094D01*
X24454819Y-14083332D02*
X24454819Y-13464285D01*
X24454819Y-13464285D02*
X24835771Y-13797618D01*
X24835771Y-13797618D02*
X24835771Y-13654761D01*
X24835771Y-13654761D02*
X24883390Y-13559523D01*
X24883390Y-13559523D02*
X24931009Y-13511904D01*
X24931009Y-13511904D02*
X25026247Y-13464285D01*
X25026247Y-13464285D02*
X25264342Y-13464285D01*
X25264342Y-13464285D02*
X25359580Y-13511904D01*
X25359580Y-13511904D02*
X25407200Y-13559523D01*
X25407200Y-13559523D02*
X25454819Y-13654761D01*
X25454819Y-13654761D02*
X25454819Y-13940475D01*
X25454819Y-13940475D02*
X25407200Y-14035713D01*
X25407200Y-14035713D02*
X25359580Y-14083332D01*
X34333333Y-12454819D02*
X34000000Y-11978628D01*
X33761905Y-12454819D02*
X33761905Y-11454819D01*
X33761905Y-11454819D02*
X34142857Y-11454819D01*
X34142857Y-11454819D02*
X34238095Y-11502438D01*
X34238095Y-11502438D02*
X34285714Y-11550057D01*
X34285714Y-11550057D02*
X34333333Y-11645295D01*
X34333333Y-11645295D02*
X34333333Y-11788152D01*
X34333333Y-11788152D02*
X34285714Y-11883390D01*
X34285714Y-11883390D02*
X34238095Y-11931009D01*
X34238095Y-11931009D02*
X34142857Y-11978628D01*
X34142857Y-11978628D02*
X33761905Y-11978628D01*
X35285714Y-12454819D02*
X34714286Y-12454819D01*
X35000000Y-12454819D02*
X35000000Y-11454819D01*
X35000000Y-11454819D02*
X34904762Y-11597676D01*
X34904762Y-11597676D02*
X34809524Y-11692914D01*
X34809524Y-11692914D02*
X34714286Y-11740533D01*
X29333333Y-4454819D02*
X29000000Y-3978628D01*
X28761905Y-4454819D02*
X28761905Y-3454819D01*
X28761905Y-3454819D02*
X29142857Y-3454819D01*
X29142857Y-3454819D02*
X29238095Y-3502438D01*
X29238095Y-3502438D02*
X29285714Y-3550057D01*
X29285714Y-3550057D02*
X29333333Y-3645295D01*
X29333333Y-3645295D02*
X29333333Y-3788152D01*
X29333333Y-3788152D02*
X29285714Y-3883390D01*
X29285714Y-3883390D02*
X29238095Y-3931009D01*
X29238095Y-3931009D02*
X29142857Y-3978628D01*
X29142857Y-3978628D02*
X28761905Y-3978628D01*
X29714286Y-3550057D02*
X29761905Y-3502438D01*
X29761905Y-3502438D02*
X29857143Y-3454819D01*
X29857143Y-3454819D02*
X30095238Y-3454819D01*
X30095238Y-3454819D02*
X30190476Y-3502438D01*
X30190476Y-3502438D02*
X30238095Y-3550057D01*
X30238095Y-3550057D02*
X30285714Y-3645295D01*
X30285714Y-3645295D02*
X30285714Y-3740533D01*
X30285714Y-3740533D02*
X30238095Y-3883390D01*
X30238095Y-3883390D02*
X29666667Y-4454819D01*
X29666667Y-4454819D02*
X30285714Y-4454819D01*
X27454819Y-12119047D02*
X27454819Y-12595237D01*
X27454819Y-12595237D02*
X26454819Y-12595237D01*
X26931009Y-11785713D02*
X26931009Y-11452380D01*
X27454819Y-11309523D02*
X27454819Y-11785713D01*
X27454819Y-11785713D02*
X26454819Y-11785713D01*
X26454819Y-11785713D02*
X26454819Y-11309523D01*
X27454819Y-10880951D02*
X26454819Y-10880951D01*
X26454819Y-10880951D02*
X26454819Y-10642856D01*
X26454819Y-10642856D02*
X26502438Y-10499999D01*
X26502438Y-10499999D02*
X26597676Y-10404761D01*
X26597676Y-10404761D02*
X26692914Y-10357142D01*
X26692914Y-10357142D02*
X26883390Y-10309523D01*
X26883390Y-10309523D02*
X27026247Y-10309523D01*
X27026247Y-10309523D02*
X27216723Y-10357142D01*
X27216723Y-10357142D02*
X27311961Y-10404761D01*
X27311961Y-10404761D02*
X27407200Y-10499999D01*
X27407200Y-10499999D02*
X27454819Y-10642856D01*
X27454819Y-10642856D02*
X27454819Y-10880951D01*
X26550057Y-9928570D02*
X26502438Y-9880951D01*
X26502438Y-9880951D02*
X26454819Y-9785713D01*
X26454819Y-9785713D02*
X26454819Y-9547618D01*
X26454819Y-9547618D02*
X26502438Y-9452380D01*
X26502438Y-9452380D02*
X26550057Y-9404761D01*
X26550057Y-9404761D02*
X26645295Y-9357142D01*
X26645295Y-9357142D02*
X26740533Y-9357142D01*
X26740533Y-9357142D02*
X26883390Y-9404761D01*
X26883390Y-9404761D02*
X27454819Y-9976189D01*
X27454819Y-9976189D02*
X27454819Y-9357142D01*
X46333333Y-12859580D02*
X46285714Y-12907200D01*
X46285714Y-12907200D02*
X46142857Y-12954819D01*
X46142857Y-12954819D02*
X46047619Y-12954819D01*
X46047619Y-12954819D02*
X45904762Y-12907200D01*
X45904762Y-12907200D02*
X45809524Y-12811961D01*
X45809524Y-12811961D02*
X45761905Y-12716723D01*
X45761905Y-12716723D02*
X45714286Y-12526247D01*
X45714286Y-12526247D02*
X45714286Y-12383390D01*
X45714286Y-12383390D02*
X45761905Y-12192914D01*
X45761905Y-12192914D02*
X45809524Y-12097676D01*
X45809524Y-12097676D02*
X45904762Y-12002438D01*
X45904762Y-12002438D02*
X46047619Y-11954819D01*
X46047619Y-11954819D02*
X46142857Y-11954819D01*
X46142857Y-11954819D02*
X46285714Y-12002438D01*
X46285714Y-12002438D02*
X46333333Y-12050057D01*
X47285714Y-12954819D02*
X46714286Y-12954819D01*
X47000000Y-12954819D02*
X47000000Y-11954819D01*
X47000000Y-11954819D02*
X46904762Y-12097676D01*
X46904762Y-12097676D02*
X46809524Y-12192914D01*
X46809524Y-12192914D02*
X46714286Y-12240533D01*
X44238095Y-9754819D02*
X44238095Y-10564342D01*
X44238095Y-10564342D02*
X44285714Y-10659580D01*
X44285714Y-10659580D02*
X44333333Y-10707200D01*
X44333333Y-10707200D02*
X44428571Y-10754819D01*
X44428571Y-10754819D02*
X44619047Y-10754819D01*
X44619047Y-10754819D02*
X44714285Y-10707200D01*
X44714285Y-10707200D02*
X44761904Y-10659580D01*
X44761904Y-10659580D02*
X44809523Y-10564342D01*
X44809523Y-10564342D02*
X44809523Y-9754819D01*
X45809523Y-10754819D02*
X45238095Y-10754819D01*
X45523809Y-10754819D02*
X45523809Y-9754819D01*
X45523809Y-9754819D02*
X45428571Y-9897676D01*
X45428571Y-9897676D02*
X45333333Y-9992914D01*
X45333333Y-9992914D02*
X45238095Y-10040533D01*
X30011905Y-9977319D02*
X30011905Y-10786842D01*
X30011905Y-10786842D02*
X30059524Y-10882080D01*
X30059524Y-10882080D02*
X30107143Y-10929700D01*
X30107143Y-10929700D02*
X30202381Y-10977319D01*
X30202381Y-10977319D02*
X30392857Y-10977319D01*
X30392857Y-10977319D02*
X30488095Y-10929700D01*
X30488095Y-10929700D02*
X30535714Y-10882080D01*
X30535714Y-10882080D02*
X30583333Y-10786842D01*
X30583333Y-10786842D02*
X30583333Y-9977319D01*
X31011905Y-10929700D02*
X31154762Y-10977319D01*
X31154762Y-10977319D02*
X31392857Y-10977319D01*
X31392857Y-10977319D02*
X31488095Y-10929700D01*
X31488095Y-10929700D02*
X31535714Y-10882080D01*
X31535714Y-10882080D02*
X31583333Y-10786842D01*
X31583333Y-10786842D02*
X31583333Y-10691604D01*
X31583333Y-10691604D02*
X31535714Y-10596366D01*
X31535714Y-10596366D02*
X31488095Y-10548747D01*
X31488095Y-10548747D02*
X31392857Y-10501128D01*
X31392857Y-10501128D02*
X31202381Y-10453509D01*
X31202381Y-10453509D02*
X31107143Y-10405890D01*
X31107143Y-10405890D02*
X31059524Y-10358271D01*
X31059524Y-10358271D02*
X31011905Y-10263033D01*
X31011905Y-10263033D02*
X31011905Y-10167795D01*
X31011905Y-10167795D02*
X31059524Y-10072557D01*
X31059524Y-10072557D02*
X31107143Y-10024938D01*
X31107143Y-10024938D02*
X31202381Y-9977319D01*
X31202381Y-9977319D02*
X31440476Y-9977319D01*
X31440476Y-9977319D02*
X31583333Y-10024938D01*
X32345238Y-10453509D02*
X32488095Y-10501128D01*
X32488095Y-10501128D02*
X32535714Y-10548747D01*
X32535714Y-10548747D02*
X32583333Y-10643985D01*
X32583333Y-10643985D02*
X32583333Y-10786842D01*
X32583333Y-10786842D02*
X32535714Y-10882080D01*
X32535714Y-10882080D02*
X32488095Y-10929700D01*
X32488095Y-10929700D02*
X32392857Y-10977319D01*
X32392857Y-10977319D02*
X32011905Y-10977319D01*
X32011905Y-10977319D02*
X32011905Y-9977319D01*
X32011905Y-9977319D02*
X32345238Y-9977319D01*
X32345238Y-9977319D02*
X32440476Y-10024938D01*
X32440476Y-10024938D02*
X32488095Y-10072557D01*
X32488095Y-10072557D02*
X32535714Y-10167795D01*
X32535714Y-10167795D02*
X32535714Y-10263033D01*
X32535714Y-10263033D02*
X32488095Y-10358271D01*
X32488095Y-10358271D02*
X32440476Y-10405890D01*
X32440476Y-10405890D02*
X32345238Y-10453509D01*
X32345238Y-10453509D02*
X32011905Y-10453509D01*
X33583333Y-10882080D02*
X33535714Y-10929700D01*
X33535714Y-10929700D02*
X33392857Y-10977319D01*
X33392857Y-10977319D02*
X33297619Y-10977319D01*
X33297619Y-10977319D02*
X33154762Y-10929700D01*
X33154762Y-10929700D02*
X33059524Y-10834461D01*
X33059524Y-10834461D02*
X33011905Y-10739223D01*
X33011905Y-10739223D02*
X32964286Y-10548747D01*
X32964286Y-10548747D02*
X32964286Y-10405890D01*
X32964286Y-10405890D02*
X33011905Y-10215414D01*
X33011905Y-10215414D02*
X33059524Y-10120176D01*
X33059524Y-10120176D02*
X33154762Y-10024938D01*
X33154762Y-10024938D02*
X33297619Y-9977319D01*
X33297619Y-9977319D02*
X33392857Y-9977319D01*
X33392857Y-9977319D02*
X33535714Y-10024938D01*
X33535714Y-10024938D02*
X33583333Y-10072557D01*
X34535714Y-10977319D02*
X33964286Y-10977319D01*
X34250000Y-10977319D02*
X34250000Y-9977319D01*
X34250000Y-9977319D02*
X34154762Y-10120176D01*
X34154762Y-10120176D02*
X34059524Y-10215414D01*
X34059524Y-10215414D02*
X33964286Y-10263033D01*
X43324819Y-15761904D02*
X44134342Y-15761904D01*
X44134342Y-15761904D02*
X44229580Y-15714285D01*
X44229580Y-15714285D02*
X44277200Y-15666666D01*
X44277200Y-15666666D02*
X44324819Y-15571428D01*
X44324819Y-15571428D02*
X44324819Y-15380952D01*
X44324819Y-15380952D02*
X44277200Y-15285714D01*
X44277200Y-15285714D02*
X44229580Y-15238095D01*
X44229580Y-15238095D02*
X44134342Y-15190476D01*
X44134342Y-15190476D02*
X43324819Y-15190476D01*
X43420057Y-14761904D02*
X43372438Y-14714285D01*
X43372438Y-14714285D02*
X43324819Y-14619047D01*
X43324819Y-14619047D02*
X43324819Y-14380952D01*
X43324819Y-14380952D02*
X43372438Y-14285714D01*
X43372438Y-14285714D02*
X43420057Y-14238095D01*
X43420057Y-14238095D02*
X43515295Y-14190476D01*
X43515295Y-14190476D02*
X43610533Y-14190476D01*
X43610533Y-14190476D02*
X43753390Y-14238095D01*
X43753390Y-14238095D02*
X44324819Y-14809523D01*
X44324819Y-14809523D02*
X44324819Y-14190476D01*
X29238095Y-15604819D02*
X29238095Y-14604819D01*
X29238095Y-15081009D02*
X29809523Y-15081009D01*
X29809523Y-15604819D02*
X29809523Y-14604819D01*
X30190476Y-14604819D02*
X30809523Y-14604819D01*
X30809523Y-14604819D02*
X30476190Y-14985771D01*
X30476190Y-14985771D02*
X30619047Y-14985771D01*
X30619047Y-14985771D02*
X30714285Y-15033390D01*
X30714285Y-15033390D02*
X30761904Y-15081009D01*
X30761904Y-15081009D02*
X30809523Y-15176247D01*
X30809523Y-15176247D02*
X30809523Y-15414342D01*
X30809523Y-15414342D02*
X30761904Y-15509580D01*
X30761904Y-15509580D02*
X30714285Y-15557200D01*
X30714285Y-15557200D02*
X30619047Y-15604819D01*
X30619047Y-15604819D02*
X30333333Y-15604819D01*
X30333333Y-15604819D02*
X30238095Y-15557200D01*
X30238095Y-15557200D02*
X30190476Y-15509580D01*
X25454819Y-12119047D02*
X25454819Y-12595237D01*
X25454819Y-12595237D02*
X24454819Y-12595237D01*
X24931009Y-11785713D02*
X24931009Y-11452380D01*
X25454819Y-11309523D02*
X25454819Y-11785713D01*
X25454819Y-11785713D02*
X24454819Y-11785713D01*
X24454819Y-11785713D02*
X24454819Y-11309523D01*
X25454819Y-10880951D02*
X24454819Y-10880951D01*
X24454819Y-10880951D02*
X24454819Y-10642856D01*
X24454819Y-10642856D02*
X24502438Y-10499999D01*
X24502438Y-10499999D02*
X24597676Y-10404761D01*
X24597676Y-10404761D02*
X24692914Y-10357142D01*
X24692914Y-10357142D02*
X24883390Y-10309523D01*
X24883390Y-10309523D02*
X25026247Y-10309523D01*
X25026247Y-10309523D02*
X25216723Y-10357142D01*
X25216723Y-10357142D02*
X25311961Y-10404761D01*
X25311961Y-10404761D02*
X25407200Y-10499999D01*
X25407200Y-10499999D02*
X25454819Y-10642856D01*
X25454819Y-10642856D02*
X25454819Y-10880951D01*
X25454819Y-9357142D02*
X25454819Y-9928570D01*
X25454819Y-9642856D02*
X24454819Y-9642856D01*
X24454819Y-9642856D02*
X24597676Y-9738094D01*
X24597676Y-9738094D02*
X24692914Y-9833332D01*
X24692914Y-9833332D02*
X24740533Y-9928570D01*
X47057200Y-6333332D02*
X47104819Y-6190475D01*
X47104819Y-6190475D02*
X47104819Y-5952380D01*
X47104819Y-5952380D02*
X47057200Y-5857142D01*
X47057200Y-5857142D02*
X47009580Y-5809523D01*
X47009580Y-5809523D02*
X46914342Y-5761904D01*
X46914342Y-5761904D02*
X46819104Y-5761904D01*
X46819104Y-5761904D02*
X46723866Y-5809523D01*
X46723866Y-5809523D02*
X46676247Y-5857142D01*
X46676247Y-5857142D02*
X46628628Y-5952380D01*
X46628628Y-5952380D02*
X46581009Y-6142856D01*
X46581009Y-6142856D02*
X46533390Y-6238094D01*
X46533390Y-6238094D02*
X46485771Y-6285713D01*
X46485771Y-6285713D02*
X46390533Y-6333332D01*
X46390533Y-6333332D02*
X46295295Y-6333332D01*
X46295295Y-6333332D02*
X46200057Y-6285713D01*
X46200057Y-6285713D02*
X46152438Y-6238094D01*
X46152438Y-6238094D02*
X46104819Y-6142856D01*
X46104819Y-6142856D02*
X46104819Y-5904761D01*
X46104819Y-5904761D02*
X46152438Y-5761904D01*
X46104819Y-5428570D02*
X47104819Y-5190475D01*
X47104819Y-5190475D02*
X46390533Y-4999999D01*
X46390533Y-4999999D02*
X47104819Y-4809523D01*
X47104819Y-4809523D02*
X46104819Y-4571428D01*
X46200057Y-4238094D02*
X46152438Y-4190475D01*
X46152438Y-4190475D02*
X46104819Y-4095237D01*
X46104819Y-4095237D02*
X46104819Y-3857142D01*
X46104819Y-3857142D02*
X46152438Y-3761904D01*
X46152438Y-3761904D02*
X46200057Y-3714285D01*
X46200057Y-3714285D02*
X46295295Y-3666666D01*
X46295295Y-3666666D02*
X46390533Y-3666666D01*
X46390533Y-3666666D02*
X46533390Y-3714285D01*
X46533390Y-3714285D02*
X47104819Y-4285713D01*
X47104819Y-4285713D02*
X47104819Y-3666666D01*
X51954819Y-19511904D02*
X52764342Y-19511904D01*
X52764342Y-19511904D02*
X52859580Y-19464285D01*
X52859580Y-19464285D02*
X52907200Y-19416666D01*
X52907200Y-19416666D02*
X52954819Y-19321428D01*
X52954819Y-19321428D02*
X52954819Y-19130952D01*
X52954819Y-19130952D02*
X52907200Y-19035714D01*
X52907200Y-19035714D02*
X52859580Y-18988095D01*
X52859580Y-18988095D02*
X52764342Y-18940476D01*
X52764342Y-18940476D02*
X51954819Y-18940476D01*
X52288152Y-18035714D02*
X52954819Y-18035714D01*
X51907200Y-18273809D02*
X52621485Y-18511904D01*
X52621485Y-18511904D02*
X52621485Y-17892857D01*
X40333333Y-12859580D02*
X40285714Y-12907200D01*
X40285714Y-12907200D02*
X40142857Y-12954819D01*
X40142857Y-12954819D02*
X40047619Y-12954819D01*
X40047619Y-12954819D02*
X39904762Y-12907200D01*
X39904762Y-12907200D02*
X39809524Y-12811961D01*
X39809524Y-12811961D02*
X39761905Y-12716723D01*
X39761905Y-12716723D02*
X39714286Y-12526247D01*
X39714286Y-12526247D02*
X39714286Y-12383390D01*
X39714286Y-12383390D02*
X39761905Y-12192914D01*
X39761905Y-12192914D02*
X39809524Y-12097676D01*
X39809524Y-12097676D02*
X39904762Y-12002438D01*
X39904762Y-12002438D02*
X40047619Y-11954819D01*
X40047619Y-11954819D02*
X40142857Y-11954819D01*
X40142857Y-11954819D02*
X40285714Y-12002438D01*
X40285714Y-12002438D02*
X40333333Y-12050057D01*
X40714286Y-12050057D02*
X40761905Y-12002438D01*
X40761905Y-12002438D02*
X40857143Y-11954819D01*
X40857143Y-11954819D02*
X41095238Y-11954819D01*
X41095238Y-11954819D02*
X41190476Y-12002438D01*
X41190476Y-12002438D02*
X41238095Y-12050057D01*
X41238095Y-12050057D02*
X41285714Y-12145295D01*
X41285714Y-12145295D02*
X41285714Y-12240533D01*
X41285714Y-12240533D02*
X41238095Y-12383390D01*
X41238095Y-12383390D02*
X40666667Y-12954819D01*
X40666667Y-12954819D02*
X41285714Y-12954819D01*
X47959580Y-19966666D02*
X48007200Y-20014285D01*
X48007200Y-20014285D02*
X48054819Y-20157142D01*
X48054819Y-20157142D02*
X48054819Y-20252380D01*
X48054819Y-20252380D02*
X48007200Y-20395237D01*
X48007200Y-20395237D02*
X47911961Y-20490475D01*
X47911961Y-20490475D02*
X47816723Y-20538094D01*
X47816723Y-20538094D02*
X47626247Y-20585713D01*
X47626247Y-20585713D02*
X47483390Y-20585713D01*
X47483390Y-20585713D02*
X47292914Y-20538094D01*
X47292914Y-20538094D02*
X47197676Y-20490475D01*
X47197676Y-20490475D02*
X47102438Y-20395237D01*
X47102438Y-20395237D02*
X47054819Y-20252380D01*
X47054819Y-20252380D02*
X47054819Y-20157142D01*
X47054819Y-20157142D02*
X47102438Y-20014285D01*
X47102438Y-20014285D02*
X47150057Y-19966666D01*
X47054819Y-19061904D02*
X47054819Y-19538094D01*
X47054819Y-19538094D02*
X47531009Y-19585713D01*
X47531009Y-19585713D02*
X47483390Y-19538094D01*
X47483390Y-19538094D02*
X47435771Y-19442856D01*
X47435771Y-19442856D02*
X47435771Y-19204761D01*
X47435771Y-19204761D02*
X47483390Y-19109523D01*
X47483390Y-19109523D02*
X47531009Y-19061904D01*
X47531009Y-19061904D02*
X47626247Y-19014285D01*
X47626247Y-19014285D02*
X47864342Y-19014285D01*
X47864342Y-19014285D02*
X47959580Y-19061904D01*
X47959580Y-19061904D02*
X48007200Y-19109523D01*
X48007200Y-19109523D02*
X48054819Y-19204761D01*
X48054819Y-19204761D02*
X48054819Y-19442856D01*
X48054819Y-19442856D02*
X48007200Y-19538094D01*
X48007200Y-19538094D02*
X47959580Y-19585713D01*
D11*
G04 #@! TO.C,J1*
X53700000Y-13480000D02*
X53700000Y-14190000D01*
X53700000Y-14190000D02*
X54300000Y-14190000D01*
X53700000Y-20340000D02*
X53700000Y-21050000D01*
X53700000Y-21050000D02*
X54300000Y-21050000D01*
X54300000Y-12000000D02*
X64300000Y-12000000D01*
X54300000Y-13460000D02*
X64300000Y-13460000D01*
X54300000Y-13480000D02*
X53700000Y-13480000D01*
X54300000Y-15110000D02*
X64300000Y-15110000D01*
X54300000Y-19490000D02*
X64300000Y-19490000D01*
X54300000Y-20340000D02*
X53700000Y-20340000D01*
X54300000Y-22300000D02*
X54300000Y-12000000D01*
X55730000Y-20360000D02*
X56150000Y-19930000D01*
X55730000Y-22300000D02*
X55730000Y-20360000D01*
X56150000Y-19930000D02*
X57350000Y-19930000D01*
X57350000Y-19930000D02*
X57350000Y-19930000D01*
X57350000Y-19930000D02*
X57750000Y-20330000D01*
X57750000Y-20330000D02*
X57750000Y-22300000D01*
X60730000Y-20360000D02*
X61160000Y-19930000D01*
X60730000Y-22300000D02*
X60730000Y-20360000D01*
X61160000Y-19930000D02*
X62360000Y-19930000D01*
X62360000Y-19930000D02*
X62360000Y-19930000D01*
X62360000Y-19930000D02*
X62760000Y-20330000D01*
X62760000Y-20330000D02*
X62760000Y-22300000D01*
X64300000Y-12000000D02*
X64300000Y-22300000D01*
X64300000Y-22300000D02*
X54310000Y-22300000D01*
D10*
G04 #@! TO.C,R7*
X30340000Y-12860000D02*
X30340000Y-13820000D01*
X30340000Y-15640000D02*
X30340000Y-14680000D01*
X31660000Y-12860000D02*
X30340000Y-12860000D01*
X31660000Y-13820000D02*
X31660000Y-12860000D01*
X31660000Y-14680000D02*
X31660000Y-15640000D01*
X31660000Y-15640000D02*
X30340000Y-15640000D01*
D11*
G04 #@! TO.C,SW1*
X57700000Y-3720000D02*
X58590000Y-2830000D01*
X57700000Y-6280000D02*
X57700000Y-3720000D01*
X57700000Y-6280000D02*
X58590000Y-7170000D01*
X58450000Y-4100000D02*
X59350000Y-3200000D01*
X58450000Y-6000000D02*
X58450000Y-4100000D01*
X59080000Y-2450000D02*
X61420000Y-2450000D01*
X59080000Y-7550000D02*
X61420000Y-7550000D01*
X59250000Y-6800000D02*
X58450000Y-6000000D01*
X59350000Y-3200000D02*
X61150000Y-3200000D01*
X61150000Y-3200000D02*
X62150000Y-4200000D01*
X61250000Y-6800000D02*
X59250000Y-6800000D01*
X61910000Y-2830000D02*
X62800000Y-3720000D01*
X61910000Y-7170000D02*
X62800000Y-6280000D01*
X62150000Y-4200000D02*
X62150000Y-5900000D01*
X62150000Y-5900000D02*
X61250000Y-6800000D01*
X62800000Y-6280000D02*
X62800000Y-3720000D01*
X61530000Y-5000000D02*
G75*
G02*
X58970000Y-5000000I-1280000J0D01*
G01*
X58970000Y-5000000D02*
G75*
G02*
X61530000Y-5000000I1280000J0D01*
G01*
G04 #@! TO.C,U3*
X297500Y-2000000D02*
X297500Y-20000000D01*
X297500Y-2000000D02*
X6757500Y-2000000D01*
X297500Y-20000000D02*
X6747500Y-20000000D01*
X6577500Y-2000000D02*
X6577500Y-20000000D01*
X6577500Y-20000000D02*
X7087500Y-20000000D01*
X7087500Y-1980000D02*
X6577500Y-1980000D01*
X24957500Y-20000000D02*
X25797500Y-20000000D01*
X25797500Y-1980000D02*
X24957500Y-1980000D01*
X25797500Y-4600000D02*
X25797500Y-1980000D01*
X25797500Y-20000000D02*
X25797500Y-17400000D01*
G04 #@! TO.C,C3*
X41540000Y-10970000D02*
X41540000Y-10170000D01*
X41540000Y-11530000D02*
X41540000Y-12330000D01*
X41850000Y-9860000D02*
X42650000Y-9860000D01*
X42650000Y-12640000D02*
X41850000Y-12640000D01*
X42960000Y-10970000D02*
X42960000Y-10170000D01*
X42960000Y-11530000D02*
X42960000Y-12330000D01*
X41540000Y-10170000D02*
G75*
G02*
X41850000Y-9860000I310000J0D01*
G01*
X41850000Y-12640000D02*
G75*
G02*
X41540000Y-12330000I0J310000D01*
G01*
X42650000Y-9860000D02*
G75*
G02*
X42960000Y-10170000I0J-310000D01*
G01*
X42960000Y-12330000D02*
G75*
G02*
X42650000Y-12640000I-310000J0D01*
G01*
D10*
G04 #@! TO.C,C4*
X48450000Y-15110000D02*
X48450000Y-16990000D01*
X48600000Y-17140000D02*
X50080000Y-17140000D01*
X50080000Y-14960000D02*
X48600000Y-14960000D01*
X51940000Y-14960000D02*
X53420000Y-14960000D01*
X53420000Y-17140000D02*
X51940000Y-17140000D01*
X53570000Y-15110000D02*
X53570000Y-16990000D01*
X48450000Y-15110000D02*
G75*
G02*
X48600000Y-14960000I150000J0D01*
G01*
X48600000Y-17140000D02*
G75*
G02*
X48450000Y-16990000I0J150000D01*
G01*
X53420000Y-14960000D02*
G75*
G02*
X53570000Y-15110000I0J-150000D01*
G01*
X53570000Y-16990000D02*
G75*
G02*
X53420000Y-17140000I-150000J0D01*
G01*
G04 #@! TO.C,R3*
X28340000Y-12860000D02*
X28340000Y-13820000D01*
X28340000Y-15640000D02*
X28340000Y-14680000D01*
X29660000Y-12860000D02*
X28340000Y-12860000D01*
X29660000Y-13820000D02*
X29660000Y-12860000D01*
X29660000Y-14680000D02*
X29660000Y-15640000D01*
X29660000Y-15640000D02*
X28340000Y-15640000D01*
G04 #@! TO.C,R1*
X33110000Y-7340000D02*
X33110000Y-8660000D01*
X33110000Y-8660000D02*
X34070000Y-8660000D01*
X34070000Y-7340000D02*
X33110000Y-7340000D01*
X34930000Y-7340000D02*
X35890000Y-7340000D01*
X35890000Y-7340000D02*
X35890000Y-8660000D01*
X35890000Y-8660000D02*
X34930000Y-8660000D01*
G04 #@! TO.C,R2*
X28110000Y-7340000D02*
X29070000Y-7340000D01*
X28110000Y-8660000D02*
X28110000Y-7340000D01*
X29070000Y-8660000D02*
X28110000Y-8660000D01*
X29930000Y-8660000D02*
X30890000Y-8660000D01*
X30890000Y-7340000D02*
X29930000Y-7340000D01*
X30890000Y-8660000D02*
X30890000Y-7340000D01*
G04 #@! TO.C,LED2*
X30250000Y-9610000D02*
X31730000Y-9610000D01*
X30250000Y-10760000D02*
X30250000Y-9610000D01*
X30250000Y-11140000D02*
X30250000Y-12190000D01*
X30550000Y-12490000D02*
X30250000Y-12190000D01*
X30650000Y-10780000D02*
X30660000Y-10780000D01*
X30650000Y-10780000D02*
X31330000Y-10780000D01*
X30650000Y-12490000D02*
X30550000Y-12490000D01*
X30650000Y-12490000D02*
X31350000Y-12490000D01*
X30660000Y-10780000D02*
X31000000Y-11120000D01*
X31000000Y-10780000D02*
X31000000Y-11120000D01*
X31330000Y-10780000D02*
X31330000Y-10790000D01*
X31330000Y-10790000D02*
X31000000Y-11120000D01*
X31350000Y-12490000D02*
X31450000Y-12490000D01*
X31450000Y-12490000D02*
X31750000Y-12190000D01*
X31750000Y-10760000D02*
X31750000Y-9610000D01*
X31750000Y-11140000D02*
X31750000Y-12190000D01*
D12*
G04 #@! TO.C,C1*
X46820000Y-7700000D02*
X46820000Y-9300000D01*
X48080000Y-7700000D02*
X44930000Y-7700000D01*
X48100000Y-9300000D02*
X44900000Y-9300000D01*
D10*
G04 #@! TO.C,U1*
X43630000Y-670000D02*
X46570000Y-670000D01*
X43630000Y-7330000D02*
X43630000Y-670000D01*
X46570000Y-670000D02*
X46570000Y-7330000D01*
X46570000Y-7330000D02*
X43630000Y-7330000D01*
D11*
G04 #@! TO.C,USBC1*
X27780000Y1047500D02*
X27780000Y-432500D01*
X27780000Y1047500D02*
X36720000Y1047500D01*
X27780000Y-2672500D02*
X27780000Y-4532500D01*
X36720000Y1047500D02*
X36720000Y-432500D01*
X36720000Y-2672500D02*
X36720000Y-4532500D01*
D10*
G04 #@! TO.C,U2*
X35230000Y-9920000D02*
X38770000Y-9920000D01*
X35230000Y-20080000D02*
X35230000Y-9920000D01*
X38770000Y-9920000D02*
X38770000Y-20080000D01*
X38770000Y-20080000D02*
X35230000Y-20080000D01*
D13*
X34280000Y-9820000D02*
G75*
G02*
X33980000Y-9820000I-150000J0D01*
G01*
X33980000Y-9820000D02*
G75*
G02*
X34280000Y-9820000I150000J0D01*
G01*
X36130000Y-10550000D02*
G75*
G02*
X35830000Y-10550000I-150000J0D01*
G01*
X35830000Y-10550000D02*
G75*
G02*
X36130000Y-10550000I150000J0D01*
G01*
D10*
G04 #@! TO.C,LED1*
X28250000Y-9610000D02*
X29730000Y-9610000D01*
X28250000Y-10760000D02*
X28250000Y-9610000D01*
X28250000Y-11140000D02*
X28250000Y-12190000D01*
X28550000Y-12490000D02*
X28250000Y-12190000D01*
X28650000Y-10780000D02*
X28660000Y-10780000D01*
X28650000Y-10780000D02*
X29330000Y-10780000D01*
X28650000Y-12490000D02*
X28550000Y-12490000D01*
X28650000Y-12490000D02*
X29350000Y-12490000D01*
X28660000Y-10780000D02*
X29000000Y-11120000D01*
X29000000Y-10780000D02*
X29000000Y-11120000D01*
X29330000Y-10780000D02*
X29330000Y-10790000D01*
X29330000Y-10790000D02*
X29000000Y-11120000D01*
X29350000Y-12490000D02*
X29450000Y-12490000D01*
X29450000Y-12490000D02*
X29750000Y-12190000D01*
X29750000Y-10760000D02*
X29750000Y-9610000D01*
X29750000Y-11140000D02*
X29750000Y-12190000D01*
D11*
G04 #@! TO.C,SW2*
X49950000Y-3720000D02*
X50840000Y-2830000D01*
X49950000Y-6280000D02*
X49950000Y-3720000D01*
X49950000Y-6280000D02*
X50840000Y-7170000D01*
X50700000Y-4100000D02*
X51600000Y-3200000D01*
X50700000Y-6000000D02*
X50700000Y-4100000D01*
X51330000Y-2450000D02*
X53670000Y-2450000D01*
X51330000Y-7550000D02*
X53670000Y-7550000D01*
X51500000Y-6800000D02*
X50700000Y-6000000D01*
X51600000Y-3200000D02*
X53400000Y-3200000D01*
X53400000Y-3200000D02*
X54400000Y-4200000D01*
X53500000Y-6800000D02*
X51500000Y-6800000D01*
X54160000Y-2830000D02*
X55050000Y-3720000D01*
X54160000Y-7170000D02*
X55050000Y-6280000D01*
X54400000Y-4200000D02*
X54400000Y-5900000D01*
X54400000Y-5900000D02*
X53500000Y-6800000D01*
X55050000Y-6280000D02*
X55050000Y-3720000D01*
X53780000Y-5000000D02*
G75*
G02*
X51220000Y-5000000I-1280000J0D01*
G01*
X51220000Y-5000000D02*
G75*
G02*
X53780000Y-5000000I1280000J0D01*
G01*
G04 #@! TO.C,U4*
X45500000Y-17250000D02*
X45500000Y-17650000D01*
X45500000Y-19860000D02*
X45500000Y-20250000D01*
X45500000Y-20250000D02*
X45890000Y-20250000D01*
X45890000Y-17250000D02*
X45500000Y-17250000D01*
X48100000Y-20250000D02*
X48500000Y-20250000D01*
X48500000Y-17250000D02*
X48100000Y-17250000D01*
X48500000Y-17250000D02*
X48500000Y-17650000D01*
X48500000Y-19860000D02*
X48500000Y-20250000D01*
X45210000Y-17460000D02*
G75*
G02*
X45110000Y-17460000I-50000J0D01*
G01*
X45110000Y-17460000D02*
G75*
G02*
X45210000Y-17460000I50000J0D01*
G01*
D12*
G04 #@! TO.C,C2*
X40820000Y-7700000D02*
X40820000Y-9300000D01*
X42080000Y-7700000D02*
X38930000Y-7700000D01*
X42100000Y-9300000D02*
X38900000Y-9300000D01*
D11*
G04 #@! TO.C,C5*
X42890000Y-19520000D02*
X42890000Y-18720000D01*
X42890000Y-20080000D02*
X42890000Y-20880000D01*
X43200000Y-18410000D02*
X44000000Y-18410000D01*
X44000000Y-21190000D02*
X43200000Y-21190000D01*
X44310000Y-19520000D02*
X44310000Y-18720000D01*
X44310000Y-20080000D02*
X44310000Y-20880000D01*
X42890000Y-18720000D02*
G75*
G02*
X43200000Y-18410000I310000J0D01*
G01*
X43200000Y-21190000D02*
G75*
G02*
X42890000Y-20880000I0J310000D01*
G01*
X44000000Y-18410000D02*
G75*
G02*
X44310000Y-18720000I0J-310000D01*
G01*
X44310000Y-20880000D02*
G75*
G02*
X44000000Y-21190000I-310000J0D01*
G01*
G04 #@! TD*
M02*
