G04 #@! TF.GenerationSoftware,KiCad,Pcbnew,8.0.7-8.0.7-0~ubuntu22.04.1*
G04 #@! TF.CreationDate,2024-12-31T16:15:11+01:00*
G04 #@! TF.ProjectId,kicad_makespace_tutorial,6b696361-645f-46d6-916b-657370616365,rev?*
G04 #@! TF.SameCoordinates,Original*
G04 #@! TF.FileFunction,Legend,Bot*
G04 #@! TF.FilePolarity,Positive*
%FSLAX46Y46*%
G04 Gerber Fmt 4.6, Leading zero omitted, Abs format (unit mm)*
G04 Created by KiCad (PCBNEW 8.0.7-8.0.7-0~ubuntu22.04.1) date 2024-12-31 16:15:11*
%MOMM*%
%LPD*%
G01*
G04 APERTURE LIST*
%ADD10C,0.150000*%
%ADD11C,0.120000*%
G04 APERTURE END LIST*
D10*
X18238094Y-5006819D02*
X17666666Y-5006819D01*
X17952380Y-6006819D02*
X17952380Y-5006819D01*
X17333332Y-6006819D02*
X17333332Y-5006819D01*
X17333332Y-5006819D02*
X16952380Y-5006819D01*
X16952380Y-5006819D02*
X16857142Y-5054438D01*
X16857142Y-5054438D02*
X16809523Y-5102057D01*
X16809523Y-5102057D02*
X16761904Y-5197295D01*
X16761904Y-5197295D02*
X16761904Y-5340152D01*
X16761904Y-5340152D02*
X16809523Y-5435390D01*
X16809523Y-5435390D02*
X16857142Y-5483009D01*
X16857142Y-5483009D02*
X16952380Y-5530628D01*
X16952380Y-5530628D02*
X17333332Y-5530628D01*
X15809523Y-6006819D02*
X16380951Y-6006819D01*
X16095237Y-6006819D02*
X16095237Y-5006819D01*
X16095237Y-5006819D02*
X16190475Y-5149676D01*
X16190475Y-5149676D02*
X16285713Y-5244914D01*
X16285713Y-5244914D02*
X16380951Y-5292533D01*
X14857142Y-6006819D02*
X15428570Y-6006819D01*
X15142856Y-6006819D02*
X15142856Y-5006819D01*
X15142856Y-5006819D02*
X15238094Y-5149676D01*
X15238094Y-5149676D02*
X15333332Y-5244914D01*
X15333332Y-5244914D02*
X15428570Y-5292533D01*
X15761904Y-3006819D02*
X15190476Y-3006819D01*
X15476190Y-4006819D02*
X15476190Y-3006819D01*
X14857142Y-4006819D02*
X14857142Y-3006819D01*
X14857142Y-3006819D02*
X14476190Y-3006819D01*
X14476190Y-3006819D02*
X14380952Y-3054438D01*
X14380952Y-3054438D02*
X14333333Y-3102057D01*
X14333333Y-3102057D02*
X14285714Y-3197295D01*
X14285714Y-3197295D02*
X14285714Y-3340152D01*
X14285714Y-3340152D02*
X14333333Y-3435390D01*
X14333333Y-3435390D02*
X14380952Y-3483009D01*
X14380952Y-3483009D02*
X14476190Y-3530628D01*
X14476190Y-3530628D02*
X14857142Y-3530628D01*
X13904761Y-3102057D02*
X13857142Y-3054438D01*
X13857142Y-3054438D02*
X13761904Y-3006819D01*
X13761904Y-3006819D02*
X13523809Y-3006819D01*
X13523809Y-3006819D02*
X13428571Y-3054438D01*
X13428571Y-3054438D02*
X13380952Y-3102057D01*
X13380952Y-3102057D02*
X13333333Y-3197295D01*
X13333333Y-3197295D02*
X13333333Y-3292533D01*
X13333333Y-3292533D02*
X13380952Y-3435390D01*
X13380952Y-3435390D02*
X13952380Y-4006819D01*
X13952380Y-4006819D02*
X13333333Y-4006819D01*
X58154819Y-8133333D02*
X57678628Y-7800000D01*
X58154819Y-7561905D02*
X57154819Y-7561905D01*
X57154819Y-7561905D02*
X57154819Y-7942857D01*
X57154819Y-7942857D02*
X57202438Y-8038095D01*
X57202438Y-8038095D02*
X57250057Y-8085714D01*
X57250057Y-8085714D02*
X57345295Y-8133333D01*
X57345295Y-8133333D02*
X57488152Y-8133333D01*
X57488152Y-8133333D02*
X57583390Y-8085714D01*
X57583390Y-8085714D02*
X57631009Y-8038095D01*
X57631009Y-8038095D02*
X57678628Y-7942857D01*
X57678628Y-7942857D02*
X57678628Y-7561905D01*
X57154819Y-9038095D02*
X57154819Y-8561905D01*
X57154819Y-8561905D02*
X57631009Y-8514286D01*
X57631009Y-8514286D02*
X57583390Y-8561905D01*
X57583390Y-8561905D02*
X57535771Y-8657143D01*
X57535771Y-8657143D02*
X57535771Y-8895238D01*
X57535771Y-8895238D02*
X57583390Y-8990476D01*
X57583390Y-8990476D02*
X57631009Y-9038095D01*
X57631009Y-9038095D02*
X57726247Y-9085714D01*
X57726247Y-9085714D02*
X57964342Y-9085714D01*
X57964342Y-9085714D02*
X58059580Y-9038095D01*
X58059580Y-9038095D02*
X58107200Y-8990476D01*
X58107200Y-8990476D02*
X58154819Y-8895238D01*
X58154819Y-8895238D02*
X58154819Y-8657143D01*
X58154819Y-8657143D02*
X58107200Y-8561905D01*
X58107200Y-8561905D02*
X58059580Y-8514286D01*
X19761904Y-3006819D02*
X19190476Y-3006819D01*
X19476190Y-4006819D02*
X19476190Y-3006819D01*
X18857142Y-4006819D02*
X18857142Y-3006819D01*
X18857142Y-3006819D02*
X18476190Y-3006819D01*
X18476190Y-3006819D02*
X18380952Y-3054438D01*
X18380952Y-3054438D02*
X18333333Y-3102057D01*
X18333333Y-3102057D02*
X18285714Y-3197295D01*
X18285714Y-3197295D02*
X18285714Y-3340152D01*
X18285714Y-3340152D02*
X18333333Y-3435390D01*
X18333333Y-3435390D02*
X18380952Y-3483009D01*
X18380952Y-3483009D02*
X18476190Y-3530628D01*
X18476190Y-3530628D02*
X18857142Y-3530628D01*
X17380952Y-3006819D02*
X17857142Y-3006819D01*
X17857142Y-3006819D02*
X17904761Y-3483009D01*
X17904761Y-3483009D02*
X17857142Y-3435390D01*
X17857142Y-3435390D02*
X17761904Y-3387771D01*
X17761904Y-3387771D02*
X17523809Y-3387771D01*
X17523809Y-3387771D02*
X17428571Y-3435390D01*
X17428571Y-3435390D02*
X17380952Y-3483009D01*
X17380952Y-3483009D02*
X17333333Y-3578247D01*
X17333333Y-3578247D02*
X17333333Y-3816342D01*
X17333333Y-3816342D02*
X17380952Y-3911580D01*
X17380952Y-3911580D02*
X17428571Y-3959200D01*
X17428571Y-3959200D02*
X17523809Y-4006819D01*
X17523809Y-4006819D02*
X17761904Y-4006819D01*
X17761904Y-4006819D02*
X17857142Y-3959200D01*
X17857142Y-3959200D02*
X17904761Y-3911580D01*
X58154819Y-7466666D02*
X58869104Y-7466666D01*
X58869104Y-7466666D02*
X59011961Y-7419047D01*
X59011961Y-7419047D02*
X59107200Y-7323809D01*
X59107200Y-7323809D02*
X59154819Y-7180952D01*
X59154819Y-7180952D02*
X59154819Y-7085714D01*
X59154819Y-7942857D02*
X58154819Y-7942857D01*
X58154819Y-7942857D02*
X58154819Y-8323809D01*
X58154819Y-8323809D02*
X58202438Y-8419047D01*
X58202438Y-8419047D02*
X58250057Y-8466666D01*
X58250057Y-8466666D02*
X58345295Y-8514285D01*
X58345295Y-8514285D02*
X58488152Y-8514285D01*
X58488152Y-8514285D02*
X58583390Y-8466666D01*
X58583390Y-8466666D02*
X58631009Y-8419047D01*
X58631009Y-8419047D02*
X58678628Y-8323809D01*
X58678628Y-8323809D02*
X58678628Y-7942857D01*
X58154819Y-8847619D02*
X58154819Y-9466666D01*
X58154819Y-9466666D02*
X58535771Y-9133333D01*
X58535771Y-9133333D02*
X58535771Y-9276190D01*
X58535771Y-9276190D02*
X58583390Y-9371428D01*
X58583390Y-9371428D02*
X58631009Y-9419047D01*
X58631009Y-9419047D02*
X58726247Y-9466666D01*
X58726247Y-9466666D02*
X58964342Y-9466666D01*
X58964342Y-9466666D02*
X59059580Y-9419047D01*
X59059580Y-9419047D02*
X59107200Y-9371428D01*
X59107200Y-9371428D02*
X59154819Y-9276190D01*
X59154819Y-9276190D02*
X59154819Y-8990476D01*
X59154819Y-8990476D02*
X59107200Y-8895238D01*
X59107200Y-8895238D02*
X59059580Y-8847619D01*
X22761904Y-10006819D02*
X22190476Y-10006819D01*
X22476190Y-11006819D02*
X22476190Y-10006819D01*
X21857142Y-11006819D02*
X21857142Y-10006819D01*
X21857142Y-10006819D02*
X21476190Y-10006819D01*
X21476190Y-10006819D02*
X21380952Y-10054438D01*
X21380952Y-10054438D02*
X21333333Y-10102057D01*
X21333333Y-10102057D02*
X21285714Y-10197295D01*
X21285714Y-10197295D02*
X21285714Y-10340152D01*
X21285714Y-10340152D02*
X21333333Y-10435390D01*
X21333333Y-10435390D02*
X21380952Y-10483009D01*
X21380952Y-10483009D02*
X21476190Y-10530628D01*
X21476190Y-10530628D02*
X21857142Y-10530628D01*
X20952380Y-10006819D02*
X20285714Y-10006819D01*
X20285714Y-10006819D02*
X20714285Y-11006819D01*
X23144819Y-17216666D02*
X23859104Y-17216666D01*
X23859104Y-17216666D02*
X24001961Y-17169047D01*
X24001961Y-17169047D02*
X24097200Y-17073809D01*
X24097200Y-17073809D02*
X24144819Y-16930952D01*
X24144819Y-16930952D02*
X24144819Y-16835714D01*
X23240057Y-17645238D02*
X23192438Y-17692857D01*
X23192438Y-17692857D02*
X23144819Y-17788095D01*
X23144819Y-17788095D02*
X23144819Y-18026190D01*
X23144819Y-18026190D02*
X23192438Y-18121428D01*
X23192438Y-18121428D02*
X23240057Y-18169047D01*
X23240057Y-18169047D02*
X23335295Y-18216666D01*
X23335295Y-18216666D02*
X23430533Y-18216666D01*
X23430533Y-18216666D02*
X23573390Y-18169047D01*
X23573390Y-18169047D02*
X24144819Y-17597619D01*
X24144819Y-17597619D02*
X24144819Y-18216666D01*
X20238094Y-8006819D02*
X19666666Y-8006819D01*
X19952380Y-9006819D02*
X19952380Y-8006819D01*
X19333332Y-9006819D02*
X19333332Y-8006819D01*
X19333332Y-8006819D02*
X18952380Y-8006819D01*
X18952380Y-8006819D02*
X18857142Y-8054438D01*
X18857142Y-8054438D02*
X18809523Y-8102057D01*
X18809523Y-8102057D02*
X18761904Y-8197295D01*
X18761904Y-8197295D02*
X18761904Y-8340152D01*
X18761904Y-8340152D02*
X18809523Y-8435390D01*
X18809523Y-8435390D02*
X18857142Y-8483009D01*
X18857142Y-8483009D02*
X18952380Y-8530628D01*
X18952380Y-8530628D02*
X19333332Y-8530628D01*
X17809523Y-9006819D02*
X18380951Y-9006819D01*
X18095237Y-9006819D02*
X18095237Y-8006819D01*
X18095237Y-8006819D02*
X18190475Y-8149676D01*
X18190475Y-8149676D02*
X18285713Y-8244914D01*
X18285713Y-8244914D02*
X18380951Y-8292533D01*
X17190475Y-8006819D02*
X17095237Y-8006819D01*
X17095237Y-8006819D02*
X16999999Y-8054438D01*
X16999999Y-8054438D02*
X16952380Y-8102057D01*
X16952380Y-8102057D02*
X16904761Y-8197295D01*
X16904761Y-8197295D02*
X16857142Y-8387771D01*
X16857142Y-8387771D02*
X16857142Y-8625866D01*
X16857142Y-8625866D02*
X16904761Y-8816342D01*
X16904761Y-8816342D02*
X16952380Y-8911580D01*
X16952380Y-8911580D02*
X16999999Y-8959200D01*
X16999999Y-8959200D02*
X17095237Y-9006819D01*
X17095237Y-9006819D02*
X17190475Y-9006819D01*
X17190475Y-9006819D02*
X17285713Y-8959200D01*
X17285713Y-8959200D02*
X17333332Y-8911580D01*
X17333332Y-8911580D02*
X17380951Y-8816342D01*
X17380951Y-8816342D02*
X17428570Y-8625866D01*
X17428570Y-8625866D02*
X17428570Y-8387771D01*
X17428570Y-8387771D02*
X17380951Y-8197295D01*
X17380951Y-8197295D02*
X17333332Y-8102057D01*
X17333332Y-8102057D02*
X17285713Y-8054438D01*
X17285713Y-8054438D02*
X17190475Y-8006819D01*
X20761904Y-10006819D02*
X20190476Y-10006819D01*
X20476190Y-11006819D02*
X20476190Y-10006819D01*
X19857142Y-11006819D02*
X19857142Y-10006819D01*
X19857142Y-10006819D02*
X19476190Y-10006819D01*
X19476190Y-10006819D02*
X19380952Y-10054438D01*
X19380952Y-10054438D02*
X19333333Y-10102057D01*
X19333333Y-10102057D02*
X19285714Y-10197295D01*
X19285714Y-10197295D02*
X19285714Y-10340152D01*
X19285714Y-10340152D02*
X19333333Y-10435390D01*
X19333333Y-10435390D02*
X19380952Y-10483009D01*
X19380952Y-10483009D02*
X19476190Y-10530628D01*
X19476190Y-10530628D02*
X19857142Y-10530628D01*
X18333333Y-11006819D02*
X18904761Y-11006819D01*
X18619047Y-11006819D02*
X18619047Y-10006819D01*
X18619047Y-10006819D02*
X18714285Y-10149676D01*
X18714285Y-10149676D02*
X18809523Y-10244914D01*
X18809523Y-10244914D02*
X18904761Y-10292533D01*
X60504819Y-8183333D02*
X60028628Y-7850000D01*
X60504819Y-7611905D02*
X59504819Y-7611905D01*
X59504819Y-7611905D02*
X59504819Y-7992857D01*
X59504819Y-7992857D02*
X59552438Y-8088095D01*
X59552438Y-8088095D02*
X59600057Y-8135714D01*
X59600057Y-8135714D02*
X59695295Y-8183333D01*
X59695295Y-8183333D02*
X59838152Y-8183333D01*
X59838152Y-8183333D02*
X59933390Y-8135714D01*
X59933390Y-8135714D02*
X59981009Y-8088095D01*
X59981009Y-8088095D02*
X60028628Y-7992857D01*
X60028628Y-7992857D02*
X60028628Y-7611905D01*
X59838152Y-9040476D02*
X60504819Y-9040476D01*
X59457200Y-8802381D02*
X60171485Y-8564286D01*
X60171485Y-8564286D02*
X60171485Y-9183333D01*
X23761904Y-8006819D02*
X23190476Y-8006819D01*
X23476190Y-9006819D02*
X23476190Y-8006819D01*
X22857142Y-9006819D02*
X22857142Y-8006819D01*
X22857142Y-8006819D02*
X22476190Y-8006819D01*
X22476190Y-8006819D02*
X22380952Y-8054438D01*
X22380952Y-8054438D02*
X22333333Y-8102057D01*
X22333333Y-8102057D02*
X22285714Y-8197295D01*
X22285714Y-8197295D02*
X22285714Y-8340152D01*
X22285714Y-8340152D02*
X22333333Y-8435390D01*
X22333333Y-8435390D02*
X22380952Y-8483009D01*
X22380952Y-8483009D02*
X22476190Y-8530628D01*
X22476190Y-8530628D02*
X22857142Y-8530628D01*
X21809523Y-9006819D02*
X21619047Y-9006819D01*
X21619047Y-9006819D02*
X21523809Y-8959200D01*
X21523809Y-8959200D02*
X21476190Y-8911580D01*
X21476190Y-8911580D02*
X21380952Y-8768723D01*
X21380952Y-8768723D02*
X21333333Y-8578247D01*
X21333333Y-8578247D02*
X21333333Y-8197295D01*
X21333333Y-8197295D02*
X21380952Y-8102057D01*
X21380952Y-8102057D02*
X21428571Y-8054438D01*
X21428571Y-8054438D02*
X21523809Y-8006819D01*
X21523809Y-8006819D02*
X21714285Y-8006819D01*
X21714285Y-8006819D02*
X21809523Y-8054438D01*
X21809523Y-8054438D02*
X21857142Y-8102057D01*
X21857142Y-8102057D02*
X21904761Y-8197295D01*
X21904761Y-8197295D02*
X21904761Y-8435390D01*
X21904761Y-8435390D02*
X21857142Y-8530628D01*
X21857142Y-8530628D02*
X21809523Y-8578247D01*
X21809523Y-8578247D02*
X21714285Y-8625866D01*
X21714285Y-8625866D02*
X21523809Y-8625866D01*
X21523809Y-8625866D02*
X21428571Y-8578247D01*
X21428571Y-8578247D02*
X21380952Y-8530628D01*
X21380952Y-8530628D02*
X21333333Y-8435390D01*
X22238094Y-3006819D02*
X21666666Y-3006819D01*
X21952380Y-4006819D02*
X21952380Y-3006819D01*
X21333332Y-4006819D02*
X21333332Y-3006819D01*
X21333332Y-3006819D02*
X20952380Y-3006819D01*
X20952380Y-3006819D02*
X20857142Y-3054438D01*
X20857142Y-3054438D02*
X20809523Y-3102057D01*
X20809523Y-3102057D02*
X20761904Y-3197295D01*
X20761904Y-3197295D02*
X20761904Y-3340152D01*
X20761904Y-3340152D02*
X20809523Y-3435390D01*
X20809523Y-3435390D02*
X20857142Y-3483009D01*
X20857142Y-3483009D02*
X20952380Y-3530628D01*
X20952380Y-3530628D02*
X21333332Y-3530628D01*
X19809523Y-4006819D02*
X20380951Y-4006819D01*
X20095237Y-4006819D02*
X20095237Y-3006819D01*
X20095237Y-3006819D02*
X20190475Y-3149676D01*
X20190475Y-3149676D02*
X20285713Y-3244914D01*
X20285713Y-3244914D02*
X20380951Y-3292533D01*
X19428570Y-3102057D02*
X19380951Y-3054438D01*
X19380951Y-3054438D02*
X19285713Y-3006819D01*
X19285713Y-3006819D02*
X19047618Y-3006819D01*
X19047618Y-3006819D02*
X18952380Y-3054438D01*
X18952380Y-3054438D02*
X18904761Y-3102057D01*
X18904761Y-3102057D02*
X18857142Y-3197295D01*
X18857142Y-3197295D02*
X18857142Y-3292533D01*
X18857142Y-3292533D02*
X18904761Y-3435390D01*
X18904761Y-3435390D02*
X19476189Y-4006819D01*
X19476189Y-4006819D02*
X18857142Y-4006819D01*
X58154819Y-11966666D02*
X58869104Y-11966666D01*
X58869104Y-11966666D02*
X59011961Y-11919047D01*
X59011961Y-11919047D02*
X59107200Y-11823809D01*
X59107200Y-11823809D02*
X59154819Y-11680952D01*
X59154819Y-11680952D02*
X59154819Y-11585714D01*
X59154819Y-12442857D02*
X58154819Y-12442857D01*
X58154819Y-12442857D02*
X58154819Y-12823809D01*
X58154819Y-12823809D02*
X58202438Y-12919047D01*
X58202438Y-12919047D02*
X58250057Y-12966666D01*
X58250057Y-12966666D02*
X58345295Y-13014285D01*
X58345295Y-13014285D02*
X58488152Y-13014285D01*
X58488152Y-13014285D02*
X58583390Y-12966666D01*
X58583390Y-12966666D02*
X58631009Y-12919047D01*
X58631009Y-12919047D02*
X58678628Y-12823809D01*
X58678628Y-12823809D02*
X58678628Y-12442857D01*
X58250057Y-13395238D02*
X58202438Y-13442857D01*
X58202438Y-13442857D02*
X58154819Y-13538095D01*
X58154819Y-13538095D02*
X58154819Y-13776190D01*
X58154819Y-13776190D02*
X58202438Y-13871428D01*
X58202438Y-13871428D02*
X58250057Y-13919047D01*
X58250057Y-13919047D02*
X58345295Y-13966666D01*
X58345295Y-13966666D02*
X58440533Y-13966666D01*
X58440533Y-13966666D02*
X58583390Y-13919047D01*
X58583390Y-13919047D02*
X59154819Y-13347619D01*
X59154819Y-13347619D02*
X59154819Y-13966666D01*
X19761904Y-5006819D02*
X19190476Y-5006819D01*
X19476190Y-6006819D02*
X19476190Y-5006819D01*
X18857142Y-6006819D02*
X18857142Y-5006819D01*
X18857142Y-5006819D02*
X18476190Y-5006819D01*
X18476190Y-5006819D02*
X18380952Y-5054438D01*
X18380952Y-5054438D02*
X18333333Y-5102057D01*
X18333333Y-5102057D02*
X18285714Y-5197295D01*
X18285714Y-5197295D02*
X18285714Y-5340152D01*
X18285714Y-5340152D02*
X18333333Y-5435390D01*
X18333333Y-5435390D02*
X18380952Y-5483009D01*
X18380952Y-5483009D02*
X18476190Y-5530628D01*
X18476190Y-5530628D02*
X18857142Y-5530628D01*
X17428571Y-5006819D02*
X17619047Y-5006819D01*
X17619047Y-5006819D02*
X17714285Y-5054438D01*
X17714285Y-5054438D02*
X17761904Y-5102057D01*
X17761904Y-5102057D02*
X17857142Y-5244914D01*
X17857142Y-5244914D02*
X17904761Y-5435390D01*
X17904761Y-5435390D02*
X17904761Y-5816342D01*
X17904761Y-5816342D02*
X17857142Y-5911580D01*
X17857142Y-5911580D02*
X17809523Y-5959200D01*
X17809523Y-5959200D02*
X17714285Y-6006819D01*
X17714285Y-6006819D02*
X17523809Y-6006819D01*
X17523809Y-6006819D02*
X17428571Y-5959200D01*
X17428571Y-5959200D02*
X17380952Y-5911580D01*
X17380952Y-5911580D02*
X17333333Y-5816342D01*
X17333333Y-5816342D02*
X17333333Y-5578247D01*
X17333333Y-5578247D02*
X17380952Y-5483009D01*
X17380952Y-5483009D02*
X17428571Y-5435390D01*
X17428571Y-5435390D02*
X17523809Y-5387771D01*
X17523809Y-5387771D02*
X17714285Y-5387771D01*
X17714285Y-5387771D02*
X17809523Y-5435390D01*
X17809523Y-5435390D02*
X17857142Y-5483009D01*
X17857142Y-5483009D02*
X17904761Y-5578247D01*
X21761904Y-8006819D02*
X21190476Y-8006819D01*
X21476190Y-9006819D02*
X21476190Y-8006819D01*
X20857142Y-9006819D02*
X20857142Y-8006819D01*
X20857142Y-8006819D02*
X20476190Y-8006819D01*
X20476190Y-8006819D02*
X20380952Y-8054438D01*
X20380952Y-8054438D02*
X20333333Y-8102057D01*
X20333333Y-8102057D02*
X20285714Y-8197295D01*
X20285714Y-8197295D02*
X20285714Y-8340152D01*
X20285714Y-8340152D02*
X20333333Y-8435390D01*
X20333333Y-8435390D02*
X20380952Y-8483009D01*
X20380952Y-8483009D02*
X20476190Y-8530628D01*
X20476190Y-8530628D02*
X20857142Y-8530628D01*
X19714285Y-8435390D02*
X19809523Y-8387771D01*
X19809523Y-8387771D02*
X19857142Y-8340152D01*
X19857142Y-8340152D02*
X19904761Y-8244914D01*
X19904761Y-8244914D02*
X19904761Y-8197295D01*
X19904761Y-8197295D02*
X19857142Y-8102057D01*
X19857142Y-8102057D02*
X19809523Y-8054438D01*
X19809523Y-8054438D02*
X19714285Y-8006819D01*
X19714285Y-8006819D02*
X19523809Y-8006819D01*
X19523809Y-8006819D02*
X19428571Y-8054438D01*
X19428571Y-8054438D02*
X19380952Y-8102057D01*
X19380952Y-8102057D02*
X19333333Y-8197295D01*
X19333333Y-8197295D02*
X19333333Y-8244914D01*
X19333333Y-8244914D02*
X19380952Y-8340152D01*
X19380952Y-8340152D02*
X19428571Y-8387771D01*
X19428571Y-8387771D02*
X19523809Y-8435390D01*
X19523809Y-8435390D02*
X19714285Y-8435390D01*
X19714285Y-8435390D02*
X19809523Y-8483009D01*
X19809523Y-8483009D02*
X19857142Y-8530628D01*
X19857142Y-8530628D02*
X19904761Y-8625866D01*
X19904761Y-8625866D02*
X19904761Y-8816342D01*
X19904761Y-8816342D02*
X19857142Y-8911580D01*
X19857142Y-8911580D02*
X19809523Y-8959200D01*
X19809523Y-8959200D02*
X19714285Y-9006819D01*
X19714285Y-9006819D02*
X19523809Y-9006819D01*
X19523809Y-9006819D02*
X19428571Y-8959200D01*
X19428571Y-8959200D02*
X19380952Y-8911580D01*
X19380952Y-8911580D02*
X19333333Y-8816342D01*
X19333333Y-8816342D02*
X19333333Y-8625866D01*
X19333333Y-8625866D02*
X19380952Y-8530628D01*
X19380952Y-8530628D02*
X19428571Y-8483009D01*
X19428571Y-8483009D02*
X19523809Y-8435390D01*
X21761904Y-5006819D02*
X21190476Y-5006819D01*
X21476190Y-6006819D02*
X21476190Y-5006819D01*
X20857142Y-6006819D02*
X20857142Y-5006819D01*
X20857142Y-5006819D02*
X20476190Y-5006819D01*
X20476190Y-5006819D02*
X20380952Y-5054438D01*
X20380952Y-5054438D02*
X20333333Y-5102057D01*
X20333333Y-5102057D02*
X20285714Y-5197295D01*
X20285714Y-5197295D02*
X20285714Y-5340152D01*
X20285714Y-5340152D02*
X20333333Y-5435390D01*
X20333333Y-5435390D02*
X20380952Y-5483009D01*
X20380952Y-5483009D02*
X20476190Y-5530628D01*
X20476190Y-5530628D02*
X20857142Y-5530628D01*
X19428571Y-5340152D02*
X19428571Y-6006819D01*
X19666666Y-4959200D02*
X19904761Y-5673485D01*
X19904761Y-5673485D02*
X19285714Y-5673485D01*
X59354819Y-12016666D02*
X60069104Y-12016666D01*
X60069104Y-12016666D02*
X60211961Y-11969047D01*
X60211961Y-11969047D02*
X60307200Y-11873809D01*
X60307200Y-11873809D02*
X60354819Y-11730952D01*
X60354819Y-11730952D02*
X60354819Y-11635714D01*
X60354819Y-12492857D02*
X59354819Y-12492857D01*
X59354819Y-12492857D02*
X59354819Y-12873809D01*
X59354819Y-12873809D02*
X59402438Y-12969047D01*
X59402438Y-12969047D02*
X59450057Y-13016666D01*
X59450057Y-13016666D02*
X59545295Y-13064285D01*
X59545295Y-13064285D02*
X59688152Y-13064285D01*
X59688152Y-13064285D02*
X59783390Y-13016666D01*
X59783390Y-13016666D02*
X59831009Y-12969047D01*
X59831009Y-12969047D02*
X59878628Y-12873809D01*
X59878628Y-12873809D02*
X59878628Y-12492857D01*
X60354819Y-14016666D02*
X60354819Y-13445238D01*
X60354819Y-13730952D02*
X59354819Y-13730952D01*
X59354819Y-13730952D02*
X59497676Y-13635714D01*
X59497676Y-13635714D02*
X59592914Y-13540476D01*
X59592914Y-13540476D02*
X59640533Y-13445238D01*
X17761904Y-3006819D02*
X17190476Y-3006819D01*
X17476190Y-4006819D02*
X17476190Y-3006819D01*
X16857142Y-4006819D02*
X16857142Y-3006819D01*
X16857142Y-3006819D02*
X16476190Y-3006819D01*
X16476190Y-3006819D02*
X16380952Y-3054438D01*
X16380952Y-3054438D02*
X16333333Y-3102057D01*
X16333333Y-3102057D02*
X16285714Y-3197295D01*
X16285714Y-3197295D02*
X16285714Y-3340152D01*
X16285714Y-3340152D02*
X16333333Y-3435390D01*
X16333333Y-3435390D02*
X16380952Y-3483009D01*
X16380952Y-3483009D02*
X16476190Y-3530628D01*
X16476190Y-3530628D02*
X16857142Y-3530628D01*
X15952380Y-3006819D02*
X15333333Y-3006819D01*
X15333333Y-3006819D02*
X15666666Y-3387771D01*
X15666666Y-3387771D02*
X15523809Y-3387771D01*
X15523809Y-3387771D02*
X15428571Y-3435390D01*
X15428571Y-3435390D02*
X15380952Y-3483009D01*
X15380952Y-3483009D02*
X15333333Y-3578247D01*
X15333333Y-3578247D02*
X15333333Y-3816342D01*
X15333333Y-3816342D02*
X15380952Y-3911580D01*
X15380952Y-3911580D02*
X15428571Y-3959200D01*
X15428571Y-3959200D02*
X15523809Y-4006819D01*
X15523809Y-4006819D02*
X15809523Y-4006819D01*
X15809523Y-4006819D02*
X15904761Y-3959200D01*
X15904761Y-3959200D02*
X15952380Y-3911580D01*
X58154819Y-12633333D02*
X57678628Y-12300000D01*
X58154819Y-12061905D02*
X57154819Y-12061905D01*
X57154819Y-12061905D02*
X57154819Y-12442857D01*
X57154819Y-12442857D02*
X57202438Y-12538095D01*
X57202438Y-12538095D02*
X57250057Y-12585714D01*
X57250057Y-12585714D02*
X57345295Y-12633333D01*
X57345295Y-12633333D02*
X57488152Y-12633333D01*
X57488152Y-12633333D02*
X57583390Y-12585714D01*
X57583390Y-12585714D02*
X57631009Y-12538095D01*
X57631009Y-12538095D02*
X57678628Y-12442857D01*
X57678628Y-12442857D02*
X57678628Y-12061905D01*
X57154819Y-13490476D02*
X57154819Y-13300000D01*
X57154819Y-13300000D02*
X57202438Y-13204762D01*
X57202438Y-13204762D02*
X57250057Y-13157143D01*
X57250057Y-13157143D02*
X57392914Y-13061905D01*
X57392914Y-13061905D02*
X57583390Y-13014286D01*
X57583390Y-13014286D02*
X57964342Y-13014286D01*
X57964342Y-13014286D02*
X58059580Y-13061905D01*
X58059580Y-13061905D02*
X58107200Y-13109524D01*
X58107200Y-13109524D02*
X58154819Y-13204762D01*
X58154819Y-13204762D02*
X58154819Y-13395238D01*
X58154819Y-13395238D02*
X58107200Y-13490476D01*
X58107200Y-13490476D02*
X58059580Y-13538095D01*
X58059580Y-13538095D02*
X57964342Y-13585714D01*
X57964342Y-13585714D02*
X57726247Y-13585714D01*
X57726247Y-13585714D02*
X57631009Y-13538095D01*
X57631009Y-13538095D02*
X57583390Y-13490476D01*
X57583390Y-13490476D02*
X57535771Y-13395238D01*
X57535771Y-13395238D02*
X57535771Y-13204762D01*
X57535771Y-13204762D02*
X57583390Y-13109524D01*
X57583390Y-13109524D02*
X57631009Y-13061905D01*
X57631009Y-13061905D02*
X57726247Y-13014286D01*
X16238094Y-5006819D02*
X15666666Y-5006819D01*
X15952380Y-6006819D02*
X15952380Y-5006819D01*
X15333332Y-6006819D02*
X15333332Y-5006819D01*
X15333332Y-5006819D02*
X14952380Y-5006819D01*
X14952380Y-5006819D02*
X14857142Y-5054438D01*
X14857142Y-5054438D02*
X14809523Y-5102057D01*
X14809523Y-5102057D02*
X14761904Y-5197295D01*
X14761904Y-5197295D02*
X14761904Y-5340152D01*
X14761904Y-5340152D02*
X14809523Y-5435390D01*
X14809523Y-5435390D02*
X14857142Y-5483009D01*
X14857142Y-5483009D02*
X14952380Y-5530628D01*
X14952380Y-5530628D02*
X15333332Y-5530628D01*
X13809523Y-6006819D02*
X14380951Y-6006819D01*
X14095237Y-6006819D02*
X14095237Y-5006819D01*
X14095237Y-5006819D02*
X14190475Y-5149676D01*
X14190475Y-5149676D02*
X14285713Y-5244914D01*
X14285713Y-5244914D02*
X14380951Y-5292533D01*
X13476189Y-5006819D02*
X12857142Y-5006819D01*
X12857142Y-5006819D02*
X13190475Y-5387771D01*
X13190475Y-5387771D02*
X13047618Y-5387771D01*
X13047618Y-5387771D02*
X12952380Y-5435390D01*
X12952380Y-5435390D02*
X12904761Y-5483009D01*
X12904761Y-5483009D02*
X12857142Y-5578247D01*
X12857142Y-5578247D02*
X12857142Y-5816342D01*
X12857142Y-5816342D02*
X12904761Y-5911580D01*
X12904761Y-5911580D02*
X12952380Y-5959200D01*
X12952380Y-5959200D02*
X13047618Y-6006819D01*
X13047618Y-6006819D02*
X13333332Y-6006819D01*
X13333332Y-6006819D02*
X13428570Y-5959200D01*
X13428570Y-5959200D02*
X13476189Y-5911580D01*
D11*
G04 #@! TO.C,TP11*
X17200000Y-7000000D02*
G75*
G02*
X15800000Y-7000000I-700000J0D01*
G01*
X15800000Y-7000000D02*
G75*
G02*
X17200000Y-7000000I700000J0D01*
G01*
G04 #@! TO.C,TP2*
X15200000Y-5000000D02*
G75*
G02*
X13800000Y-5000000I-700000J0D01*
G01*
X13800000Y-5000000D02*
G75*
G02*
X15200000Y-5000000I700000J0D01*
G01*
G04 #@! TO.C,R5*
X58615000Y-8527064D02*
X58615000Y-8072936D01*
X60085000Y-8527064D02*
X60085000Y-8072936D01*
G04 #@! TO.C,TP5*
X19200000Y-5000000D02*
G75*
G02*
X17800000Y-5000000I-700000J0D01*
G01*
X17800000Y-5000000D02*
G75*
G02*
X19200000Y-5000000I700000J0D01*
G01*
G04 #@! TO.C,JP3*
X55900000Y-6900000D02*
X57900000Y-6900000D01*
X55900000Y-9700000D02*
X55900000Y-6900000D01*
X57900000Y-6900000D02*
X57900000Y-9700000D01*
X57900000Y-9700000D02*
X55900000Y-9700000D01*
G04 #@! TO.C,TP7*
X22200000Y-12000000D02*
G75*
G02*
X20800000Y-12000000I-700000J0D01*
G01*
X20800000Y-12000000D02*
G75*
G02*
X22200000Y-12000000I700000J0D01*
G01*
G04 #@! TO.C,J2*
X12410000Y-16440000D02*
X12410000Y-18660000D01*
X12410000Y-18660000D02*
X12520000Y-18660000D01*
X12420000Y-16440000D02*
X13790000Y-16440000D01*
X13690000Y-18660000D02*
X15060000Y-18660000D01*
X14960000Y-16440000D02*
X16330000Y-16440000D01*
X16230000Y-18660000D02*
X17600000Y-18660000D01*
X17500000Y-16440000D02*
X18870000Y-16440000D01*
X18770000Y-18660000D02*
X20140000Y-18660000D01*
X20040000Y-16440000D02*
X21410000Y-16440000D01*
X21310000Y-18660000D02*
X22680000Y-18660000D01*
X22580000Y-14610000D02*
X22580000Y-16440000D01*
X22580000Y-16440000D02*
X22690000Y-16440000D01*
X22690000Y-16440000D02*
X22690000Y-18660000D01*
G04 #@! TO.C,TP10*
X19200000Y-10000000D02*
G75*
G02*
X17800000Y-10000000I-700000J0D01*
G01*
X17800000Y-10000000D02*
G75*
G02*
X19200000Y-10000000I700000J0D01*
G01*
G04 #@! TO.C,TP1*
X20200000Y-12000000D02*
G75*
G02*
X18800000Y-12000000I-700000J0D01*
G01*
X18800000Y-12000000D02*
G75*
G02*
X20200000Y-12000000I700000J0D01*
G01*
G04 #@! TO.C,R4*
X60965000Y-8577064D02*
X60965000Y-8122936D01*
X62435000Y-8577064D02*
X62435000Y-8122936D01*
G04 #@! TO.C,TP9*
X23200000Y-10000000D02*
G75*
G02*
X21800000Y-10000000I-700000J0D01*
G01*
X21800000Y-10000000D02*
G75*
G02*
X23200000Y-10000000I700000J0D01*
G01*
G04 #@! TO.C,TP12*
X21200000Y-5000000D02*
G75*
G02*
X19800000Y-5000000I-700000J0D01*
G01*
X19800000Y-5000000D02*
G75*
G02*
X21200000Y-5000000I700000J0D01*
G01*
G04 #@! TO.C,JP2*
X55900000Y-11400000D02*
X57900000Y-11400000D01*
X55900000Y-14200000D02*
X55900000Y-11400000D01*
X57900000Y-11400000D02*
X57900000Y-14200000D01*
X57900000Y-14200000D02*
X55900000Y-14200000D01*
G04 #@! TO.C,TP6*
X19200000Y-7000000D02*
G75*
G02*
X17800000Y-7000000I-700000J0D01*
G01*
X17800000Y-7000000D02*
G75*
G02*
X19200000Y-7000000I700000J0D01*
G01*
G04 #@! TO.C,TP8*
X21200000Y-10000000D02*
G75*
G02*
X19800000Y-10000000I-700000J0D01*
G01*
X19800000Y-10000000D02*
G75*
G02*
X21200000Y-10000000I700000J0D01*
G01*
G04 #@! TO.C,TP4*
X21200000Y-7000000D02*
G75*
G02*
X19800000Y-7000000I-700000J0D01*
G01*
X19800000Y-7000000D02*
G75*
G02*
X21200000Y-7000000I700000J0D01*
G01*
G04 #@! TO.C,JP1*
X60700000Y-11450000D02*
X62700000Y-11450000D01*
X60700000Y-14250000D02*
X60700000Y-11450000D01*
X62700000Y-11450000D02*
X62700000Y-14250000D01*
X62700000Y-14250000D02*
X60700000Y-14250000D01*
G04 #@! TO.C,TP3*
X17200000Y-5000000D02*
G75*
G02*
X15800000Y-5000000I-700000J0D01*
G01*
X15800000Y-5000000D02*
G75*
G02*
X17200000Y-5000000I700000J0D01*
G01*
G04 #@! TO.C,R6*
X58615000Y-13027064D02*
X58615000Y-12572936D01*
X60085000Y-13027064D02*
X60085000Y-12572936D01*
G04 #@! TO.C,TP13*
X15200000Y-7000000D02*
G75*
G02*
X13800000Y-7000000I-700000J0D01*
G01*
X13800000Y-7000000D02*
G75*
G02*
X15200000Y-7000000I700000J0D01*
G01*
G04 #@! TD*
M02*
