M48
; DRILL file {KiCad 8.0.7-8.0.7-0~ubuntu22.04.1} date 2024-12-31T17:49:22+0100
; FORMAT={-:-/ absolute / metric / decimal}
; #@! TF.CreationDate,2024-12-31T17:49:22+01:00
; #@! TF.GenerationSoftware,Kicad,Pcbnew,8.0.7-8.0.7-0~ubuntu22.04.1
; #@! TF.FileFunction,MixedPlating,1,2
FMAT,2
METRIC
; #@! TA.AperFunction,Plated,PTH,ViaDrill
T1C0.200
; #@! TA.AperFunction,Plated,PTH,ViaDrill
T2C0.300
; #@! TA.AperFunction,Plated,PTH,ComponentDrill
T3C0.750
; #@! TA.AperFunction,Plated,PTH,ComponentDrill
T4C0.800
; #@! TA.AperFunction,Plated,PTH,ComponentDrill
T5C1.200
; #@! TA.AperFunction,Plated,PTH,ComponentDrill
T6C2.700
%
G90
G05
T1
X10.3Y-21.7
X11.75Y-3.9
X12.95Y-3.4
X13.8Y-18.35
X14.1Y-3.6
X15.3Y-16.35
X16.55Y-18.4
X16.7Y-3.7
X17.85Y-16.15
X17.9Y-3.7
X19.0Y-18.4
X19.1Y-9.2
X19.4Y-3.6
X20.2Y-16.25
X21.1Y-9.1
X22.0Y-21.4
X22.8Y-9.1
X23.25Y-21.65
X24.55Y-21.6
X25.2Y-1.65
X32.85Y-11.8
X32.85Y-13.1
X35.45Y-15.55
X35.45Y-16.95
X35.65Y-10.0
X36.2Y-9.5
X43.75Y-16.65
X44.4Y-16.35
X44.65Y-17.7
X45.75Y-17.25
X46.35Y-16.3
X47.2Y-16.6
X48.85Y-8.8
X58.0Y-1.1
T2
X9.6Y-4.75
X9.9Y-10.5
X11.3Y-17.7
X12.9Y-5.7
X20.5Y-13.5
X22.3Y-11.6
X23.0Y-13.5
X23.6Y-16.5
X24.0Y-6.55
X24.55Y-3.85
X27.0Y-19.9
X30.4Y-1.8
X32.45Y-1.6
X32.8Y-20.3
X34.4Y-1.7
X36.95Y-20.6
X37.75Y-14.95
X38.2Y-10.55
X42.0Y-17.0
X42.0Y-21.5
X43.7Y-11.65
X44.8Y-4.0
X44.85Y-10.5
X45.15Y-6.0
X45.2Y-2.2
X48.0Y-15.95
X50.45Y-21.5
X51.15Y-17.15
X51.65Y-20.4
X51.8Y-18.75
X53.4Y-7.575
X53.4Y-18.8
X53.65Y-20.35
X54.55Y-17.2
X55.5Y-10.55
X56.05Y-20.3
X56.4Y-2.9
X56.6Y-5.6
X56.7Y-18.65
X58.25Y-20.4
X58.45Y-18.45
X59.7Y-17.55
X61.1Y-19.1
T3
X29.35Y-5.263
X35.15Y-5.263
T5
X56.75Y-17.0
X61.75Y-17.0
T6
X30.0Y-18.5
X50.75Y-12.25
T4
X27.92Y-1.882G85X27.92Y-1.283
G05
X27.92Y-6.162G85X27.92Y-5.363
G05
X36.58Y-1.882G85X36.58Y-1.283
G05
X36.58Y-6.163G85X36.58Y-5.362
G05
M30
