G04 #@! TF.GenerationSoftware,KiCad,Pcbnew,8.0.7-8.0.7-0~ubuntu22.04.1*
G04 #@! TF.CreationDate,2024-12-31T17:49:22+01:00*
G04 #@! TF.ProjectId,kicad_makespace_tutorial,6b696361-645f-46d6-916b-657370616365,v1*
G04 #@! TF.SameCoordinates,Original*
G04 #@! TF.FileFunction,Copper,L2,Bot*
G04 #@! TF.FilePolarity,Positive*
%FSLAX46Y46*%
G04 Gerber Fmt 4.6, Leading zero omitted, Abs format (unit mm)*
G04 Created by KiCad (PCBNEW 8.0.7-8.0.7-0~ubuntu22.04.1) date 2024-12-31 17:49:22*
%MOMM*%
%LPD*%
G01*
G04 APERTURE LIST*
G04 Aperture macros list*
%AMRoundRect*
0 Rectangle with rounded corners*
0 $1 Rounding radius*
0 $2 $3 $4 $5 $6 $7 $8 $9 X,Y pos of 4 corners*
0 Add a 4 corners polygon primitive as box body*
4,1,4,$2,$3,$4,$5,$6,$7,$8,$9,$2,$3,0*
0 Add four circle primitives for the rounded corners*
1,1,$1+$1,$2,$3*
1,1,$1+$1,$4,$5*
1,1,$1+$1,$6,$7*
1,1,$1+$1,$8,$9*
0 Add four rect primitives between the rounded corners*
20,1,$1+$1,$2,$3,$4,$5,0*
20,1,$1+$1,$4,$5,$6,$7,0*
20,1,$1+$1,$6,$7,$8,$9,0*
20,1,$1+$1,$8,$9,$2,$3,0*%
%AMFreePoly0*
4,1,6,1.000000,0.000000,0.500000,-0.750000,-0.500000,-0.750000,-0.500000,0.750000,0.500000,0.750000,1.000000,0.000000,1.000000,0.000000,$1*%
%AMFreePoly1*
4,1,6,0.500000,-0.750000,-0.650000,-0.750000,-0.150000,0.000000,-0.650000,0.750000,0.500000,0.750000,0.500000,-0.750000,0.500000,-0.750000,$1*%
G04 Aperture macros list end*
G04 #@! TA.AperFunction,ComponentPad*
%ADD10C,2.000000*%
G04 #@! TD*
G04 #@! TA.AperFunction,ComponentPad*
%ADD11C,4.700000*%
G04 #@! TD*
G04 #@! TA.AperFunction,ComponentPad*
%ADD12C,0.750000*%
G04 #@! TD*
G04 #@! TA.AperFunction,ComponentPad*
%ADD13O,1.200000X2.000000*%
G04 #@! TD*
G04 #@! TA.AperFunction,ComponentPad*
%ADD14O,1.200000X1.800000*%
G04 #@! TD*
G04 #@! TA.AperFunction,SMDPad,CuDef*
%ADD15C,1.000000*%
G04 #@! TD*
G04 #@! TA.AperFunction,SMDPad,CuDef*
%ADD16RoundRect,0.250000X-0.450000X0.350000X-0.450000X-0.350000X0.450000X-0.350000X0.450000X0.350000X0*%
G04 #@! TD*
G04 #@! TA.AperFunction,SMDPad,CuDef*
%ADD17FreePoly0,90.000000*%
G04 #@! TD*
G04 #@! TA.AperFunction,SMDPad,CuDef*
%ADD18FreePoly1,90.000000*%
G04 #@! TD*
G04 #@! TA.AperFunction,SMDPad,CuDef*
%ADD19R,0.650000X3.000000*%
G04 #@! TD*
G04 #@! TA.AperFunction,SMDPad,CuDef*
%ADD20FreePoly0,270.000000*%
G04 #@! TD*
G04 #@! TA.AperFunction,SMDPad,CuDef*
%ADD21FreePoly1,270.000000*%
G04 #@! TD*
G04 #@! TA.AperFunction,ViaPad*
%ADD22C,0.600000*%
G04 #@! TD*
G04 #@! TA.AperFunction,ViaPad*
%ADD23C,0.450000*%
G04 #@! TD*
G04 #@! TA.AperFunction,Conductor*
%ADD24C,0.600000*%
G04 #@! TD*
G04 #@! TA.AperFunction,Conductor*
%ADD25C,1.000000*%
G04 #@! TD*
G04 #@! TA.AperFunction,Conductor*
%ADD26C,0.700000*%
G04 #@! TD*
G04 #@! TA.AperFunction,Conductor*
%ADD27C,0.300000*%
G04 #@! TD*
G04 #@! TA.AperFunction,Conductor*
%ADD28C,0.160000*%
G04 #@! TD*
G04 #@! TA.AperFunction,Conductor*
%ADD29C,0.200000*%
G04 #@! TD*
G04 APERTURE END LIST*
D10*
G04 #@! TO.P,J1,1,Pin_1*
G04 #@! TO.N,Net-(J1-Pin_1)*
X56750000Y-17000000D03*
G04 #@! TO.P,J1,2,Pin_2*
G04 #@! TO.N,Net-(J1-Pin_2)*
X61750000Y-17000000D03*
G04 #@! TD*
D11*
G04 #@! TO.P,H1,1*
G04 #@! TO.N,N/C*
X50750000Y-12250000D03*
G04 #@! TD*
D12*
G04 #@! TO.P,USBC1,*
G04 #@! TO.N,*
X35150000Y-5262500D03*
X29350000Y-5262500D03*
D13*
G04 #@! TO.P,USBC1,0,SH*
G04 #@! TO.N,GND*
X36580000Y-5762500D03*
G04 #@! TO.P,USBC1,1*
X27920000Y-5762500D03*
D14*
G04 #@! TO.P,USBC1,2*
X27920000Y-1582500D03*
G04 #@! TO.P,USBC1,3*
X36580000Y-1582500D03*
G04 #@! TD*
D11*
G04 #@! TO.P,H3,1*
G04 #@! TO.N,N/C*
X30000000Y-18500000D03*
G04 #@! TD*
D15*
G04 #@! TO.P,TP11,1,1*
G04 #@! TO.N,GND*
X16500000Y-7000000D03*
G04 #@! TD*
G04 #@! TO.P,TP2,1,1*
G04 #@! TO.N,/GPIO_21*
X14500000Y-5000000D03*
G04 #@! TD*
D16*
G04 #@! TO.P,R5,1*
G04 #@! TO.N,/5V*
X59350000Y-7300000D03*
G04 #@! TO.P,R5,2*
G04 #@! TO.N,/GAIN_SLOT*
X59350000Y-9300000D03*
G04 #@! TD*
D15*
G04 #@! TO.P,TP5,1,1*
G04 #@! TO.N,/GPIO_18*
X18500000Y-5000000D03*
G04 #@! TD*
D17*
G04 #@! TO.P,JP3,1,A*
G04 #@! TO.N,/GAIN_SLOT*
X56900000Y-9025000D03*
D18*
G04 #@! TO.P,JP3,2,B*
G04 #@! TO.N,/5V*
X56900000Y-7575000D03*
G04 #@! TD*
D15*
G04 #@! TO.P,TP7,1,1*
G04 #@! TO.N,/3V3*
X21500000Y-12000000D03*
G04 #@! TD*
D19*
G04 #@! TO.P,J2,1,Pin_1*
G04 #@! TO.N,/3V3*
X21995000Y-16050000D03*
G04 #@! TO.P,J2,2,Pin_2*
G04 #@! TO.N,GND*
X20725000Y-19050000D03*
G04 #@! TO.P,J2,3,Pin_3*
G04 #@! TO.N,/GPIO_26*
X19455000Y-16050000D03*
G04 #@! TO.P,J2,4,Pin_4*
G04 #@! TO.N,/GPIO_25*
X18185000Y-19050000D03*
G04 #@! TO.P,J2,5,Pin_5*
G04 #@! TO.N,/GPIO_33*
X16915000Y-16050000D03*
G04 #@! TO.P,J2,6,Pin_6*
G04 #@! TO.N,/GPIO_32*
X15645000Y-19050000D03*
G04 #@! TO.P,J2,7,Pin_7*
G04 #@! TO.N,/GPIO_35*
X14375000Y-16050000D03*
G04 #@! TO.P,J2,8,Pin_8*
G04 #@! TO.N,/GPIO_34*
X13105000Y-19050000D03*
G04 #@! TD*
D15*
G04 #@! TO.P,TP10,1,1*
G04 #@! TO.N,/GPIO_17*
X18500000Y-10000000D03*
G04 #@! TD*
G04 #@! TO.P,TP1,1,1*
G04 #@! TO.N,GND*
X19500000Y-12000000D03*
G04 #@! TD*
D16*
G04 #@! TO.P,R4,1*
G04 #@! TO.N,/5V*
X61700000Y-7350000D03*
G04 #@! TO.P,R4,2*
G04 #@! TO.N,/SD_MODE*
X61700000Y-9350000D03*
G04 #@! TD*
D15*
G04 #@! TO.P,TP9,1,1*
G04 #@! TO.N,/GPIO_4*
X22500000Y-10000000D03*
G04 #@! TD*
G04 #@! TO.P,TP12,1,1*
G04 #@! TO.N,/GPIO_5*
X20500000Y-5000000D03*
G04 #@! TD*
D17*
G04 #@! TO.P,JP2,1,A*
G04 #@! TO.N,GND*
X56900000Y-13525000D03*
D18*
G04 #@! TO.P,JP2,2,B*
G04 #@! TO.N,/GAIN_SLOT*
X56900000Y-12075000D03*
G04 #@! TD*
D15*
G04 #@! TO.P,TP6,1,1*
G04 #@! TO.N,GND*
X18500000Y-7000000D03*
G04 #@! TD*
G04 #@! TO.P,TP8,1,1*
G04 #@! TO.N,/GPIO_16*
X20500000Y-10000000D03*
G04 #@! TD*
G04 #@! TO.P,TP4,1,1*
G04 #@! TO.N,GND*
X20500000Y-7000000D03*
G04 #@! TD*
D20*
G04 #@! TO.P,JP1,1,A*
G04 #@! TO.N,/SD_MODE*
X61700000Y-12125000D03*
D21*
G04 #@! TO.P,JP1,2,B*
G04 #@! TO.N,/5V*
X61700000Y-13575000D03*
G04 #@! TD*
D15*
G04 #@! TO.P,TP3,1,1*
G04 #@! TO.N,/GPIO_19*
X16500000Y-5000000D03*
G04 #@! TD*
D16*
G04 #@! TO.P,R6,1*
G04 #@! TO.N,/GAIN_SLOT*
X59350000Y-11800000D03*
G04 #@! TO.P,R6,2*
G04 #@! TO.N,GND*
X59350000Y-13800000D03*
G04 #@! TD*
D15*
G04 #@! TO.P,TP13,1,1*
G04 #@! TO.N,GND*
X14500000Y-7000000D03*
G04 #@! TD*
D22*
G04 #@! TO.N,/3V3*
X38200000Y-10550000D03*
X44850000Y-10500000D03*
X24000000Y-6550000D03*
X22300000Y-11600000D03*
X44800000Y-4000000D03*
X20500000Y-13500000D03*
G04 #@! TO.N,GND*
X59700000Y-17550000D03*
X37750000Y-14950000D03*
X9600000Y-4750000D03*
X55500000Y-10550000D03*
X11300000Y-17700000D03*
X27000000Y-19900000D03*
X51800000Y-18750000D03*
X34400000Y-1700000D03*
X56600000Y-5600000D03*
X53400000Y-18800000D03*
D23*
X46350000Y-16300000D03*
D22*
X56050000Y-20300000D03*
X12900000Y-5700000D03*
X51650000Y-20400000D03*
X56700000Y-18650000D03*
X30400000Y-1800000D03*
X42000000Y-21500000D03*
X24550000Y-3850000D03*
X58250000Y-20400000D03*
X58450000Y-18450000D03*
X32450000Y-1600000D03*
X9900000Y-10500000D03*
X56400000Y-2900000D03*
X32800000Y-20300000D03*
X23600000Y-16500000D03*
X51150000Y-17150000D03*
X53650000Y-20350000D03*
X42000000Y-17000000D03*
X36950000Y-20600000D03*
X23000000Y-13500000D03*
X54550000Y-17200000D03*
X45200000Y-2200000D03*
X61100000Y-19100000D03*
X45150000Y-6000000D03*
G04 #@! TO.N,/5V*
X43700000Y-11650000D03*
X50450000Y-21500000D03*
X53400000Y-7575000D03*
X48000000Y-15950000D03*
D23*
G04 #@! TO.N,/SD_MODE*
X44400000Y-16350000D03*
G04 #@! TO.N,/GAIN_SLOT*
X43750000Y-16650000D03*
G04 #@! TO.N,/ESP_PROG*
X58000000Y-1100000D03*
X25200000Y-1650000D03*
G04 #@! TO.N,/ESP_EN*
X48850000Y-8800000D03*
X10300000Y-21700000D03*
G04 #@! TO.N,/USB_N*
X36200000Y-9500000D03*
X35450000Y-16950000D03*
G04 #@! TO.N,/ESP_TXD*
X11750000Y-3900000D03*
X32850000Y-13100000D03*
G04 #@! TO.N,/ESP_RXD*
X32850000Y-11800000D03*
X12950000Y-3400000D03*
G04 #@! TO.N,/USB_P*
X35650000Y-10000000D03*
X35450000Y-15550000D03*
G04 #@! TO.N,/I2S_BCLK*
X23250000Y-21650000D03*
X45750000Y-17250000D03*
G04 #@! TO.N,/I2S_LRCLK*
X47200000Y-16600000D03*
X22000000Y-21400000D03*
G04 #@! TO.N,/I2S_DIN*
X44650000Y-17700000D03*
X24550000Y-21600000D03*
G04 #@! TO.N,/GPIO_21*
X14100000Y-3600000D03*
G04 #@! TO.N,/GPIO_19*
X16700000Y-3700000D03*
G04 #@! TO.N,/GPIO_16*
X21100000Y-9100000D03*
G04 #@! TO.N,/GPIO_17*
X19100000Y-9200000D03*
G04 #@! TO.N,/GPIO_5*
X19400000Y-3600000D03*
G04 #@! TO.N,/GPIO_18*
X17900000Y-3700000D03*
G04 #@! TO.N,/GPIO_4*
X22800000Y-9100000D03*
G04 #@! TO.N,/GPIO_35*
X15300000Y-16350000D03*
G04 #@! TO.N,/GPIO_25*
X19000000Y-18400000D03*
G04 #@! TO.N,/GPIO_32*
X16550000Y-18400000D03*
G04 #@! TO.N,/GPIO_26*
X20200000Y-16250000D03*
G04 #@! TO.N,/GPIO_34*
X13800000Y-18350000D03*
G04 #@! TO.N,/GPIO_33*
X17850000Y-16150000D03*
G04 #@! TD*
D24*
G04 #@! TO.N,/3V3*
X44850000Y-10500000D02*
X43950000Y-9600000D01*
D25*
X26550000Y-4000000D02*
X44800000Y-4000000D01*
D26*
X20900000Y-13500000D02*
X21995000Y-14595000D01*
D27*
X21900000Y-12000000D02*
X22300000Y-11600000D01*
D24*
X39150000Y-9600000D02*
X38200000Y-10550000D01*
D25*
X24000000Y-6550000D02*
X26550000Y-4000000D01*
D27*
X21500000Y-12000000D02*
X21900000Y-12000000D01*
D26*
X20900000Y-13500000D02*
X20500000Y-13500000D01*
D24*
X43950000Y-9600000D02*
X39150000Y-9600000D01*
D27*
X21995000Y-16050000D02*
X21995000Y-14595000D01*
G04 #@! TO.N,/5V*
X61700000Y-13575000D02*
X62455000Y-13575000D01*
X56900000Y-7575000D02*
X59075000Y-7575000D01*
D25*
X43700000Y-11650000D02*
X50450000Y-18400000D01*
D27*
X53400000Y-7575000D02*
X56900000Y-7575000D01*
X62705000Y-8355000D02*
X61700000Y-7350000D01*
D25*
X50450000Y-18400000D02*
X50450000Y-21500000D01*
D27*
X62705000Y-13325000D02*
X62705000Y-8355000D01*
X62455000Y-13575000D02*
X62705000Y-13325000D01*
X61700000Y-7350000D02*
X59400000Y-7350000D01*
D28*
G04 #@! TO.N,/SD_MODE*
X60945000Y-12125000D02*
X61700000Y-12125000D01*
X47257696Y-11760000D02*
X47257695Y-11760001D01*
X57726632Y-14210000D02*
X58250000Y-13686632D01*
X61700000Y-9350000D02*
X61700000Y-12125000D01*
X44910001Y-11760001D02*
X47042304Y-11760000D01*
X52685000Y-9285000D02*
X54450000Y-11050000D01*
X43020000Y-15220000D02*
X43020000Y-11197696D01*
X60370000Y-12700000D02*
X60945000Y-12125000D01*
X47257695Y-11760001D02*
X49732696Y-9285000D01*
X44400000Y-16350000D02*
X44150000Y-16350000D01*
X43020000Y-11197696D02*
X43257696Y-10960000D01*
X43257696Y-10960000D02*
X44110000Y-10960000D01*
X44150000Y-16350000D02*
X43020000Y-15220000D01*
X44110000Y-10960000D02*
X44910001Y-11760001D01*
X47042305Y-11760001D02*
X47257696Y-11760000D01*
X56060000Y-14210000D02*
X57726632Y-14210000D01*
X58800000Y-12700000D02*
X60370000Y-12700000D01*
X47042304Y-11760000D02*
X47042305Y-11760001D01*
X58250000Y-13250000D02*
X58800000Y-12700000D01*
X54450000Y-12600000D02*
X56060000Y-14210000D01*
X54450000Y-11050000D02*
X54450000Y-12600000D01*
X58250000Y-13686632D02*
X58250000Y-13250000D01*
X49732696Y-9285000D02*
X52685000Y-9285000D01*
G04 #@! TO.N,/GAIN_SLOT*
X42750000Y-11100000D02*
X43150000Y-10700000D01*
X43150000Y-10700000D02*
X44250000Y-10700000D01*
X47150000Y-11500000D02*
X49625000Y-9025000D01*
X56900000Y-9025000D02*
X59075000Y-9025000D01*
X42750000Y-15650000D02*
X42750000Y-11100000D01*
X44250000Y-10700000D02*
X45050000Y-11500000D01*
X49625000Y-9025000D02*
X56900000Y-9025000D01*
X59350000Y-9300000D02*
X59350000Y-11800000D01*
X45050000Y-11500000D02*
X47150000Y-11500000D01*
X59350000Y-11800000D02*
X57175000Y-11800000D01*
X43750000Y-16650000D02*
X42750000Y-15650000D01*
G04 #@! TO.N,/ESP_PROG*
X58000000Y-1100000D02*
X41500000Y-1100000D01*
X41500000Y-1100000D02*
X39500000Y-3100000D01*
X39500000Y-3100000D02*
X26650000Y-3100000D01*
X26650000Y-3100000D02*
X25200000Y-1650000D01*
G04 #@! TO.N,/ESP_EN*
X34300000Y-10050000D02*
X34300000Y-14150000D01*
X20500000Y-21700000D02*
X10300000Y-21700000D01*
X48850000Y-8800000D02*
X35550000Y-8800000D01*
X34300000Y-14150000D02*
X33900000Y-14550000D01*
X33900000Y-14550000D02*
X27650000Y-14550000D01*
X35550000Y-8800000D02*
X34300000Y-10050000D01*
X27650000Y-14550000D02*
X20500000Y-21700000D01*
D29*
G04 #@! TO.N,/USB_N*
X36200000Y-16200000D02*
X35450000Y-16950000D01*
X36200000Y-9500000D02*
X36200000Y-16200000D01*
D28*
G04 #@! TO.N,/ESP_TXD*
X29100000Y-8650000D02*
X32420000Y-11970000D01*
X13150000Y-8650000D02*
X29100000Y-8650000D01*
X32420000Y-12670000D02*
X32850000Y-13100000D01*
X32420000Y-11970000D02*
X32420000Y-12670000D01*
X11750000Y-7250000D02*
X13150000Y-8650000D01*
X11750000Y-3900000D02*
X11750000Y-7250000D01*
G04 #@! TO.N,/ESP_RXD*
X12010000Y-4340000D02*
X12950000Y-3400000D01*
X12010000Y-7142304D02*
X12010000Y-4340000D01*
X13257695Y-8389999D02*
X12010000Y-7142304D01*
X32850000Y-11800000D02*
X32617696Y-11800000D01*
X29207695Y-8389999D02*
X13257695Y-8389999D01*
X32617696Y-11800000D02*
X29207695Y-8389999D01*
D29*
G04 #@! TO.N,/USB_P*
X35650000Y-15350000D02*
X35450000Y-15550000D01*
X35650000Y-10000000D02*
X35650000Y-15350000D01*
D28*
G04 #@! TO.N,/I2S_BCLK*
X26110001Y-21660001D02*
X39731887Y-21660001D01*
X44141888Y-17250000D02*
X45750000Y-17250000D01*
X23790000Y-21110000D02*
X25560000Y-21110000D01*
X25560000Y-21110000D02*
X26110001Y-21660001D01*
X23250000Y-21650000D02*
X23790000Y-21110000D01*
X39731887Y-21660001D02*
X44141888Y-17250000D01*
G04 #@! TO.N,/I2S_LRCLK*
X22000000Y-21400000D02*
X22550000Y-20850000D01*
X44224192Y-16800000D02*
X47000000Y-16800000D01*
X39624192Y-21400000D02*
X44224192Y-16800000D01*
X47000000Y-16800000D02*
X47200000Y-16600000D01*
X22550000Y-20850000D02*
X25750000Y-20850000D01*
X26300000Y-21400000D02*
X39624192Y-21400000D01*
X25750000Y-20850000D02*
X26300000Y-21400000D01*
G04 #@! TO.N,/I2S_DIN*
X39880000Y-21920000D02*
X44100000Y-17700000D01*
X25550000Y-21600000D02*
X25870000Y-21920000D01*
X24550000Y-21600000D02*
X25550000Y-21600000D01*
X44100000Y-17700000D02*
X44650000Y-17700000D01*
X25870000Y-21920000D02*
X39880000Y-21920000D01*
G04 #@! TO.N,/GPIO_21*
X14500000Y-5000000D02*
X14500000Y-4000000D01*
X14500000Y-4000000D02*
X14100000Y-3600000D01*
G04 #@! TO.N,/GPIO_19*
X16500000Y-5000000D02*
X16500000Y-3900000D01*
X16500000Y-3900000D02*
X16700000Y-3700000D01*
G04 #@! TO.N,/GPIO_16*
X20500000Y-9700000D02*
X21100000Y-9100000D01*
G04 #@! TO.N,/GPIO_17*
X18500000Y-9800000D02*
X19100000Y-9200000D01*
G04 #@! TO.N,/GPIO_5*
X20500000Y-5000000D02*
X19400000Y-3900000D01*
X19400000Y-3900000D02*
X19400000Y-3600000D01*
G04 #@! TO.N,/GPIO_18*
X18500000Y-4300000D02*
X17900000Y-3700000D01*
X18500000Y-5000000D02*
X18500000Y-4300000D01*
G04 #@! TO.N,/GPIO_4*
X22500000Y-10000000D02*
X22500000Y-9400000D01*
X22500000Y-9400000D02*
X22800000Y-9100000D01*
G04 #@! TO.N,/GPIO_35*
X15300000Y-16350000D02*
X14675000Y-16350000D01*
X14675000Y-16350000D02*
X14375000Y-16050000D01*
G04 #@! TO.N,/GPIO_25*
X19000000Y-18400000D02*
X18835000Y-18400000D01*
X18835000Y-18400000D02*
X18185000Y-19050000D01*
G04 #@! TO.N,/GPIO_32*
X16550000Y-18400000D02*
X16295000Y-18400000D01*
X16295000Y-18400000D02*
X15645000Y-19050000D01*
G04 #@! TO.N,/GPIO_26*
X20200000Y-16250000D02*
X19655000Y-16250000D01*
G04 #@! TO.N,/GPIO_34*
X13800000Y-18355000D02*
X13105000Y-19050000D01*
X13800000Y-18350000D02*
X13800000Y-18355000D01*
G04 #@! TO.N,/GPIO_33*
X17850000Y-16150000D02*
X17015000Y-16150000D01*
G04 #@! TD*
G04 #@! TA.AperFunction,Conductor*
G04 #@! TO.N,GND*
G36*
X27319103Y-519406D02*
G01*
X27355067Y-568906D01*
X27355067Y-630092D01*
X27330916Y-669503D01*
X27259759Y-740659D01*
X27166739Y-879874D01*
X27102664Y-1034565D01*
X27070000Y-1198779D01*
X27070000Y-1332499D01*
X27070001Y-1332500D01*
X27520001Y-1332500D01*
X27520001Y-1832500D01*
X27070001Y-1832500D01*
X27070000Y-1832501D01*
X27070000Y-1966220D01*
X27102664Y-2130434D01*
X27166739Y-2285125D01*
X27259759Y-2424340D01*
X27378159Y-2542740D01*
X27521002Y-2638184D01*
X27558882Y-2686234D01*
X27561284Y-2747372D01*
X27527292Y-2798246D01*
X27469888Y-2819424D01*
X27466001Y-2819500D01*
X26807195Y-2819500D01*
X26749004Y-2800593D01*
X26737191Y-2790504D01*
X25659800Y-1713113D01*
X25632023Y-1658596D01*
X25631882Y-1656806D01*
X25611925Y-1530804D01*
X25609719Y-1516874D01*
X25548528Y-1396780D01*
X25453220Y-1301472D01*
X25453217Y-1301470D01*
X25333129Y-1240282D01*
X25333127Y-1240281D01*
X25200000Y-1219196D01*
X25066872Y-1240281D01*
X25066870Y-1240282D01*
X24946782Y-1301470D01*
X24851470Y-1396782D01*
X24790282Y-1516870D01*
X24790281Y-1516872D01*
X24769196Y-1649999D01*
X24769196Y-1650000D01*
X24790281Y-1783127D01*
X24790282Y-1783129D01*
X24851470Y-1903217D01*
X24851472Y-1903220D01*
X24946780Y-1998528D01*
X25066874Y-2059719D01*
X25200000Y-2080804D01*
X25207696Y-2082023D01*
X25207165Y-2085371D01*
X25251300Y-2099711D01*
X25263113Y-2109800D01*
X26335699Y-3182386D01*
X26363476Y-3236903D01*
X26353905Y-3297335D01*
X26310640Y-3340600D01*
X26303581Y-3343854D01*
X26218189Y-3379224D01*
X26103460Y-3455883D01*
X23455883Y-6103460D01*
X23379223Y-6218191D01*
X23326420Y-6345670D01*
X23326420Y-6345672D01*
X23299500Y-6481003D01*
X23299500Y-6618996D01*
X23326420Y-6754327D01*
X23326420Y-6754329D01*
X23379223Y-6881808D01*
X23448732Y-6985837D01*
X23455886Y-6996543D01*
X23553457Y-7094114D01*
X23668189Y-7170775D01*
X23795672Y-7223580D01*
X23931006Y-7250500D01*
X23931007Y-7250500D01*
X24068993Y-7250500D01*
X24068994Y-7250500D01*
X24204328Y-7223580D01*
X24331811Y-7170775D01*
X24446543Y-7094114D01*
X26811161Y-4729496D01*
X26865678Y-4701719D01*
X26881165Y-4700500D01*
X27154832Y-4700500D01*
X27213023Y-4719407D01*
X27248987Y-4768907D01*
X27248987Y-4830093D01*
X27237148Y-4854501D01*
X27166739Y-4959874D01*
X27102664Y-5114565D01*
X27070000Y-5278779D01*
X27070000Y-5512499D01*
X27070001Y-5512500D01*
X27520001Y-5512500D01*
X27520001Y-6012500D01*
X27070001Y-6012500D01*
X27070000Y-6012501D01*
X27070000Y-6246220D01*
X27102664Y-6410434D01*
X27166739Y-6565125D01*
X27259759Y-6704340D01*
X27378159Y-6822740D01*
X27517374Y-6915760D01*
X27670000Y-6978979D01*
X27670000Y-6478171D01*
X27674395Y-6482566D01*
X27765606Y-6535227D01*
X27867339Y-6562486D01*
X27972661Y-6562486D01*
X28074394Y-6535227D01*
X28165605Y-6482566D01*
X28170000Y-6478171D01*
X28170000Y-6978978D01*
X28322625Y-6915760D01*
X28461840Y-6822740D01*
X28580240Y-6704340D01*
X28673260Y-6565125D01*
X28737335Y-6410434D01*
X28769999Y-6246220D01*
X28770000Y-6246216D01*
X28770000Y-6012501D01*
X28769999Y-6012500D01*
X28319999Y-6012500D01*
X28319999Y-5512500D01*
X28711844Y-5512500D01*
X28770035Y-5531407D01*
X28794159Y-5556498D01*
X28864141Y-5661232D01*
X28864142Y-5661233D01*
X28951267Y-5748358D01*
X29053714Y-5816811D01*
X29167548Y-5863963D01*
X29288394Y-5888000D01*
X29288396Y-5888000D01*
X29411604Y-5888000D01*
X29411606Y-5888000D01*
X29532452Y-5863963D01*
X29646286Y-5816811D01*
X29748733Y-5748358D01*
X29835858Y-5661233D01*
X29904311Y-5558786D01*
X29951463Y-5444952D01*
X29975500Y-5324106D01*
X29975500Y-5200894D01*
X29951463Y-5080048D01*
X29904311Y-4966214D01*
X29835858Y-4863767D01*
X29835856Y-4863764D01*
X29834654Y-4862300D01*
X29834338Y-4861493D01*
X29833156Y-4859724D01*
X29833544Y-4859464D01*
X29812357Y-4805322D01*
X29827810Y-4746120D01*
X29875110Y-4707307D01*
X29911186Y-4700500D01*
X34588814Y-4700500D01*
X34647005Y-4719407D01*
X34682969Y-4768907D01*
X34682969Y-4830093D01*
X34666779Y-4859680D01*
X34666844Y-4859724D01*
X34666355Y-4860455D01*
X34665346Y-4862300D01*
X34664143Y-4863764D01*
X34595688Y-4966214D01*
X34548536Y-5080049D01*
X34524500Y-5200891D01*
X34524500Y-5324108D01*
X34548536Y-5444950D01*
X34595688Y-5558785D01*
X34595689Y-5558786D01*
X34664142Y-5661233D01*
X34751267Y-5748358D01*
X34853714Y-5816811D01*
X34967548Y-5863963D01*
X35088394Y-5888000D01*
X35088396Y-5888000D01*
X35211604Y-5888000D01*
X35211606Y-5888000D01*
X35332452Y-5863963D01*
X35446286Y-5816811D01*
X35548733Y-5748358D01*
X35635858Y-5661233D01*
X35660821Y-5623871D01*
X35705841Y-5556498D01*
X35753892Y-5518619D01*
X35788156Y-5512500D01*
X36180001Y-5512500D01*
X36180001Y-6012500D01*
X35730001Y-6012500D01*
X35730000Y-6012501D01*
X35730000Y-6246220D01*
X35762664Y-6410434D01*
X35826739Y-6565125D01*
X35919759Y-6704340D01*
X36038159Y-6822740D01*
X36177374Y-6915760D01*
X36330000Y-6978979D01*
X36330000Y-6478196D01*
X36334395Y-6482591D01*
X36425606Y-6535252D01*
X36527339Y-6562511D01*
X36632661Y-6562511D01*
X36734394Y-6535252D01*
X36825605Y-6482591D01*
X36830000Y-6478196D01*
X36830000Y-6978978D01*
X36982625Y-6915760D01*
X37121840Y-6822740D01*
X37240240Y-6704340D01*
X37333260Y-6565125D01*
X37397335Y-6410434D01*
X37429999Y-6246220D01*
X37430000Y-6246216D01*
X37430000Y-6012501D01*
X37429999Y-6012500D01*
X36979999Y-6012500D01*
X36979999Y-5512500D01*
X37429999Y-5512500D01*
X37430000Y-5512499D01*
X37430000Y-5278783D01*
X37429999Y-5278779D01*
X37397335Y-5114565D01*
X37333260Y-4959874D01*
X37262852Y-4854501D01*
X37246244Y-4795613D01*
X37267422Y-4738210D01*
X37318295Y-4704217D01*
X37345168Y-4700500D01*
X44868992Y-4700500D01*
X44868993Y-4700500D01*
X45004328Y-4673580D01*
X45131811Y-4620775D01*
X45246542Y-4544114D01*
X45344114Y-4446542D01*
X45420775Y-4331811D01*
X45473580Y-4204328D01*
X45500500Y-4068993D01*
X45500500Y-3931007D01*
X45473580Y-3795672D01*
X45447673Y-3733126D01*
X45420777Y-3668193D01*
X45420771Y-3668182D01*
X45344114Y-3553458D01*
X45246541Y-3455885D01*
X45131817Y-3379228D01*
X45131806Y-3379222D01*
X45004328Y-3326420D01*
X44868995Y-3299500D01*
X44868993Y-3299500D01*
X39936193Y-3299500D01*
X39878002Y-3280593D01*
X39842038Y-3231093D01*
X39842038Y-3169907D01*
X39866189Y-3130496D01*
X40198440Y-2798246D01*
X41587191Y-1409496D01*
X41641708Y-1381719D01*
X41657195Y-1380500D01*
X57637744Y-1380500D01*
X57695935Y-1399407D01*
X57707747Y-1409496D01*
X57732326Y-1434074D01*
X57746780Y-1448528D01*
X57866874Y-1509719D01*
X58000000Y-1530804D01*
X58133126Y-1509719D01*
X58253220Y-1448528D01*
X58348528Y-1353220D01*
X58409719Y-1233126D01*
X58430804Y-1100000D01*
X58409719Y-966874D01*
X58348528Y-846780D01*
X58253220Y-751472D01*
X58231998Y-740659D01*
X58128077Y-687708D01*
X58084813Y-644444D01*
X58075242Y-584011D01*
X58103020Y-529495D01*
X58157536Y-501718D01*
X58173023Y-500499D01*
X63060712Y-500499D01*
X63075292Y-501578D01*
X63218737Y-522939D01*
X63234848Y-526737D01*
X63378443Y-573564D01*
X63393694Y-579993D01*
X63527480Y-650093D01*
X63541449Y-658974D01*
X63661682Y-750384D01*
X63673976Y-761470D01*
X63746326Y-838614D01*
X63777291Y-871630D01*
X63787567Y-884610D01*
X63871091Y-1010461D01*
X63879059Y-1024970D01*
X63940436Y-1162958D01*
X63945876Y-1178593D01*
X63983408Y-1324897D01*
X63986166Y-1341220D01*
X63999153Y-1496008D01*
X63999500Y-1504285D01*
X63999500Y-21900500D01*
X63980593Y-21958691D01*
X63931093Y-21994655D01*
X63900500Y-21999500D01*
X51143945Y-21999500D01*
X51085754Y-21980593D01*
X51049790Y-21931093D01*
X51049790Y-21869907D01*
X51061631Y-21845497D01*
X51070770Y-21831819D01*
X51070771Y-21831816D01*
X51070775Y-21831811D01*
X51123580Y-21704328D01*
X51150500Y-21568993D01*
X51150500Y-18331007D01*
X51146932Y-18313072D01*
X51123580Y-18195672D01*
X51070775Y-18068189D01*
X50994114Y-17953457D01*
X50040657Y-17000000D01*
X55544357Y-17000000D01*
X55564885Y-17221536D01*
X55625771Y-17435528D01*
X55724942Y-17634689D01*
X55859019Y-17812236D01*
X56023438Y-17962124D01*
X56212599Y-18079247D01*
X56420060Y-18159618D01*
X56638757Y-18200500D01*
X56861243Y-18200500D01*
X57079940Y-18159618D01*
X57287401Y-18079247D01*
X57476562Y-17962124D01*
X57640981Y-17812236D01*
X57775058Y-17634689D01*
X57874229Y-17435528D01*
X57935115Y-17221536D01*
X57955643Y-17000000D01*
X60544357Y-17000000D01*
X60564885Y-17221536D01*
X60625771Y-17435528D01*
X60724942Y-17634689D01*
X60859019Y-17812236D01*
X61023438Y-17962124D01*
X61212599Y-18079247D01*
X61420060Y-18159618D01*
X61638757Y-18200500D01*
X61861243Y-18200500D01*
X62079940Y-18159618D01*
X62287401Y-18079247D01*
X62476562Y-17962124D01*
X62640981Y-17812236D01*
X62775058Y-17634689D01*
X62874229Y-17435528D01*
X62935115Y-17221536D01*
X62955643Y-17000000D01*
X62935115Y-16778464D01*
X62874229Y-16564472D01*
X62775058Y-16365311D01*
X62640981Y-16187764D01*
X62476562Y-16037876D01*
X62287401Y-15920753D01*
X62079940Y-15840382D01*
X62079939Y-15840381D01*
X62079937Y-15840381D01*
X61861243Y-15799500D01*
X61638757Y-15799500D01*
X61420062Y-15840381D01*
X61387373Y-15853045D01*
X61212599Y-15920753D01*
X61082236Y-16001470D01*
X61023438Y-16037876D01*
X60859020Y-16187763D01*
X60724943Y-16365309D01*
X60724938Y-16365318D01*
X60625772Y-16564469D01*
X60625771Y-16564472D01*
X60564885Y-16778464D01*
X60544357Y-17000000D01*
X57955643Y-17000000D01*
X57935115Y-16778464D01*
X57874229Y-16564472D01*
X57775058Y-16365311D01*
X57640981Y-16187764D01*
X57476562Y-16037876D01*
X57287401Y-15920753D01*
X57079940Y-15840382D01*
X57079939Y-15840381D01*
X57079937Y-15840381D01*
X56861243Y-15799500D01*
X56638757Y-15799500D01*
X56420062Y-15840381D01*
X56387373Y-15853045D01*
X56212599Y-15920753D01*
X56082236Y-16001470D01*
X56023438Y-16037876D01*
X55859020Y-16187763D01*
X55724943Y-16365309D01*
X55724938Y-16365318D01*
X55625772Y-16564469D01*
X55625771Y-16564472D01*
X55564885Y-16778464D01*
X55544357Y-17000000D01*
X50040657Y-17000000D01*
X45250161Y-12209504D01*
X45222384Y-12154987D01*
X45231955Y-12094555D01*
X45275220Y-12051290D01*
X45320165Y-12040500D01*
X46999297Y-12040500D01*
X46999313Y-12040501D01*
X47005376Y-12040501D01*
X47120228Y-12040501D01*
X47120241Y-12040500D01*
X47212779Y-12040500D01*
X47212791Y-12040501D01*
X47220766Y-12040501D01*
X47294625Y-12040501D01*
X47294625Y-12040500D01*
X47365964Y-12021385D01*
X47429923Y-11984458D01*
X47429928Y-11984455D01*
X47482153Y-11932230D01*
X47482154Y-11932227D01*
X48212047Y-11202333D01*
X48266562Y-11174558D01*
X48326994Y-11184129D01*
X48370259Y-11227394D01*
X48379830Y-11287826D01*
X48374790Y-11306254D01*
X48374878Y-11306283D01*
X48374276Y-11308134D01*
X48374104Y-11308765D01*
X48373922Y-11309223D01*
X48345888Y-11395504D01*
X48279443Y-11600002D01*
X48274745Y-11614460D01*
X48274742Y-11614470D01*
X48214608Y-11929700D01*
X48194457Y-12250000D01*
X48214608Y-12570299D01*
X48274742Y-12885529D01*
X48274744Y-12885538D01*
X48342217Y-13093197D01*
X48373918Y-13190764D01*
X48510561Y-13481142D01*
X48510568Y-13481155D01*
X48682521Y-13752109D01*
X48887083Y-13999383D01*
X48887093Y-13999394D01*
X49016300Y-14120727D01*
X49121036Y-14219080D01*
X49380672Y-14407716D01*
X49380679Y-14407719D01*
X49380682Y-14407722D01*
X49661901Y-14562323D01*
X49661904Y-14562325D01*
X49811098Y-14621395D01*
X49960294Y-14680466D01*
X50271139Y-14760277D01*
X50589536Y-14800500D01*
X50910464Y-14800500D01*
X51228861Y-14760277D01*
X51539706Y-14680466D01*
X51786688Y-14582678D01*
X51838095Y-14562325D01*
X51838097Y-14562324D01*
X52119328Y-14407716D01*
X52378964Y-14219080D01*
X52612911Y-13999390D01*
X52817478Y-13752110D01*
X52989439Y-13481142D01*
X53126084Y-13190758D01*
X53225256Y-12885538D01*
X53285392Y-12570294D01*
X53305543Y-12250000D01*
X53285392Y-11929706D01*
X53225256Y-11614462D01*
X53126084Y-11309242D01*
X53116006Y-11287826D01*
X53040727Y-11127850D01*
X52989439Y-11018858D01*
X52989435Y-11018853D01*
X52989431Y-11018844D01*
X52817478Y-10747890D01*
X52612916Y-10500616D01*
X52612906Y-10500605D01*
X52406538Y-10306814D01*
X52378964Y-10280920D01*
X52119328Y-10092284D01*
X52119322Y-10092280D01*
X52119317Y-10092277D01*
X51838098Y-9937676D01*
X51838095Y-9937674D01*
X51539706Y-9819534D01*
X51468486Y-9801248D01*
X51309350Y-9760389D01*
X51257691Y-9727605D01*
X51235167Y-9670717D01*
X51250383Y-9611453D01*
X51297527Y-9572452D01*
X51333972Y-9565500D01*
X52527806Y-9565500D01*
X52585997Y-9584407D01*
X52597810Y-9594496D01*
X54140504Y-11137190D01*
X54168281Y-11191707D01*
X54169500Y-11207194D01*
X54169500Y-12636930D01*
X54175625Y-12659787D01*
X54175625Y-12659789D01*
X54188614Y-12708265D01*
X54188614Y-12708266D01*
X54198282Y-12725011D01*
X54225544Y-12772231D01*
X54277769Y-12824456D01*
X54277771Y-12824457D01*
X55887769Y-14434456D01*
X55951731Y-14471384D01*
X55951733Y-14471384D01*
X55951734Y-14471385D01*
X55987401Y-14480942D01*
X56023068Y-14490499D01*
X56023070Y-14490500D01*
X56023071Y-14490500D01*
X57763562Y-14490500D01*
X57763562Y-14490499D01*
X57834897Y-14471385D01*
X57834898Y-14471385D01*
X57834898Y-14471384D01*
X57834901Y-14471384D01*
X57898863Y-14434456D01*
X57951088Y-14382231D01*
X57951088Y-14382229D01*
X57959238Y-14374080D01*
X57959239Y-14374077D01*
X58230999Y-14102318D01*
X58285513Y-14074543D01*
X58345945Y-14084114D01*
X58389210Y-14127379D01*
X58400000Y-14172324D01*
X58400000Y-14197824D01*
X58399999Y-14197824D01*
X58406401Y-14257370D01*
X58406403Y-14257381D01*
X58456646Y-14392088D01*
X58456647Y-14392090D01*
X58542807Y-14507184D01*
X58542815Y-14507192D01*
X58657909Y-14593352D01*
X58657911Y-14593353D01*
X58792618Y-14643596D01*
X58792629Y-14643598D01*
X58852176Y-14650000D01*
X59099999Y-14650000D01*
X59100000Y-14649999D01*
X59100000Y-14050001D01*
X59600000Y-14050001D01*
X59600000Y-14649999D01*
X59600001Y-14650000D01*
X59847824Y-14650000D01*
X59907370Y-14643598D01*
X59907381Y-14643596D01*
X60042088Y-14593353D01*
X60042090Y-14593352D01*
X60157184Y-14507192D01*
X60157192Y-14507184D01*
X60243352Y-14392090D01*
X60243353Y-14392088D01*
X60293596Y-14257381D01*
X60293598Y-14257370D01*
X60300000Y-14197824D01*
X60300000Y-14050001D01*
X60299999Y-14050000D01*
X59600001Y-14050000D01*
X59600000Y-14050001D01*
X59100000Y-14050001D01*
X59100000Y-13899000D01*
X59118907Y-13840809D01*
X59168407Y-13804845D01*
X59199000Y-13800000D01*
X59349999Y-13800000D01*
X59350000Y-13799999D01*
X59350000Y-13649000D01*
X59368907Y-13590809D01*
X59418407Y-13554845D01*
X59449000Y-13550000D01*
X60299999Y-13550000D01*
X60300000Y-13549999D01*
X60300000Y-13402175D01*
X60293598Y-13342629D01*
X60293596Y-13342618D01*
X60243353Y-13207911D01*
X60243352Y-13207909D01*
X60191639Y-13138829D01*
X60171902Y-13080914D01*
X60189976Y-13022459D01*
X60238957Y-12985792D01*
X60270892Y-12980500D01*
X60406930Y-12980500D01*
X60406930Y-12980499D01*
X60478265Y-12961385D01*
X60478266Y-12961385D01*
X60478266Y-12961384D01*
X60478269Y-12961384D01*
X60542231Y-12924456D01*
X60575498Y-12891188D01*
X60630013Y-12863413D01*
X60690445Y-12872984D01*
X60733710Y-12916249D01*
X60744500Y-12961194D01*
X60744500Y-14075001D01*
X60749651Y-14120727D01*
X60774500Y-14172324D01*
X60789334Y-14203127D01*
X60860837Y-14260149D01*
X60950000Y-14280500D01*
X62449999Y-14280500D01*
X62450000Y-14280500D01*
X62495728Y-14275348D01*
X62578127Y-14235666D01*
X62635149Y-14164163D01*
X62655500Y-14075000D01*
X62655500Y-13911189D01*
X62674407Y-13852998D01*
X62684496Y-13841186D01*
X62735470Y-13790212D01*
X62985469Y-13540212D01*
X63031614Y-13460288D01*
X63037720Y-13437500D01*
X63055500Y-13371144D01*
X63055500Y-8308856D01*
X63031614Y-8219712D01*
X63000340Y-8165544D01*
X62985470Y-8139788D01*
X62811393Y-7965711D01*
X62629496Y-7783813D01*
X62601719Y-7729297D01*
X62600500Y-7713810D01*
X62600500Y-6945727D01*
X62600499Y-6945725D01*
X62599127Y-6931093D01*
X62597646Y-6915301D01*
X62552793Y-6787118D01*
X62528592Y-6754327D01*
X62472154Y-6677855D01*
X62472152Y-6677853D01*
X62472150Y-6677850D01*
X62472146Y-6677847D01*
X62472144Y-6677845D01*
X62362883Y-6597207D01*
X62234703Y-6552355D01*
X62234694Y-6552353D01*
X62204274Y-6549500D01*
X62204266Y-6549500D01*
X61195734Y-6549500D01*
X61195725Y-6549500D01*
X61165305Y-6552353D01*
X61165296Y-6552355D01*
X61037116Y-6597207D01*
X60927855Y-6677845D01*
X60927845Y-6677855D01*
X60847207Y-6787116D01*
X60802355Y-6915296D01*
X60801069Y-6921185D01*
X60798193Y-6920556D01*
X60778656Y-6965871D01*
X60726033Y-6997087D01*
X60704308Y-6999500D01*
X60349500Y-6999500D01*
X60291309Y-6980593D01*
X60255345Y-6931093D01*
X60250500Y-6900500D01*
X60250500Y-6895727D01*
X60250499Y-6895725D01*
X60248523Y-6874651D01*
X60247646Y-6865301D01*
X60202793Y-6737118D01*
X60159055Y-6677855D01*
X60122154Y-6627855D01*
X60122152Y-6627853D01*
X60122150Y-6627850D01*
X60122146Y-6627847D01*
X60122144Y-6627845D01*
X60012883Y-6547207D01*
X59884703Y-6502355D01*
X59884694Y-6502353D01*
X59854274Y-6499500D01*
X59854266Y-6499500D01*
X58845734Y-6499500D01*
X58845725Y-6499500D01*
X58815305Y-6502353D01*
X58815296Y-6502355D01*
X58687116Y-6547207D01*
X58577855Y-6627845D01*
X58577845Y-6627855D01*
X58497207Y-6737116D01*
X58452355Y-6865296D01*
X58452353Y-6865305D01*
X58449500Y-6895725D01*
X58449500Y-7125500D01*
X58430593Y-7183691D01*
X58381093Y-7219655D01*
X58350500Y-7224500D01*
X57954500Y-7224500D01*
X57896309Y-7205593D01*
X57860345Y-7156093D01*
X57855500Y-7125500D01*
X57855500Y-7075000D01*
X57850348Y-7029272D01*
X57810666Y-6946873D01*
X57809227Y-6945725D01*
X57739162Y-6889850D01*
X57650000Y-6869500D01*
X56150000Y-6869500D01*
X56149998Y-6869500D01*
X56104272Y-6874651D01*
X56021872Y-6914334D01*
X55964850Y-6985837D01*
X55944500Y-7075000D01*
X55944500Y-7125500D01*
X55925593Y-7183691D01*
X55876093Y-7219655D01*
X55845500Y-7224500D01*
X53803759Y-7224500D01*
X53745568Y-7205593D01*
X53736596Y-7197359D01*
X53736480Y-7197494D01*
X53731128Y-7192856D01*
X53610057Y-7115049D01*
X53610054Y-7115047D01*
X53610053Y-7115047D01*
X53610050Y-7115046D01*
X53471964Y-7074500D01*
X53471961Y-7074500D01*
X53328039Y-7074500D01*
X53328035Y-7074500D01*
X53189949Y-7115046D01*
X53189942Y-7115049D01*
X53068873Y-7192855D01*
X52974622Y-7301628D01*
X52914834Y-7432543D01*
X52894353Y-7574997D01*
X52894353Y-7575002D01*
X52914834Y-7717456D01*
X52974622Y-7848371D01*
X52974623Y-7848373D01*
X53043682Y-7928072D01*
X53068873Y-7957144D01*
X53189942Y-8034950D01*
X53189947Y-8034953D01*
X53296403Y-8066211D01*
X53328035Y-8075499D01*
X53328036Y-8075499D01*
X53328039Y-8075500D01*
X53328041Y-8075500D01*
X53471959Y-8075500D01*
X53471961Y-8075500D01*
X53610053Y-8034953D01*
X53731128Y-7957143D01*
X53736480Y-7952506D01*
X53737968Y-7954223D01*
X53781341Y-7928072D01*
X53803759Y-7925500D01*
X55845500Y-7925500D01*
X55903691Y-7944407D01*
X55939655Y-7993907D01*
X55944500Y-8024500D01*
X55944500Y-8224999D01*
X55944501Y-8225011D01*
X55957933Y-8298079D01*
X55957936Y-8298088D01*
X55971013Y-8317703D01*
X55987560Y-8376608D01*
X55969407Y-8425653D01*
X55969690Y-8425789D01*
X55968252Y-8428773D01*
X55966322Y-8433990D01*
X55966046Y-8434338D01*
X55964851Y-8435836D01*
X55964850Y-8435837D01*
X55944500Y-8525000D01*
X55944500Y-8645500D01*
X55925593Y-8703691D01*
X55876093Y-8739655D01*
X55845500Y-8744500D01*
X49588072Y-8744500D01*
X49516731Y-8763616D01*
X49516730Y-8763616D01*
X49516728Y-8763617D01*
X49462152Y-8795126D01*
X49453711Y-8800000D01*
X49453706Y-8800003D01*
X49453705Y-8800002D01*
X49452769Y-8800543D01*
X49441778Y-8811534D01*
X49387261Y-8839310D01*
X49326829Y-8829736D01*
X49283566Y-8786470D01*
X49273996Y-8757015D01*
X49271246Y-8739655D01*
X49259719Y-8666874D01*
X49198528Y-8546780D01*
X49103220Y-8451472D01*
X49103217Y-8451470D01*
X48983129Y-8390282D01*
X48983127Y-8390281D01*
X48850000Y-8369196D01*
X48716872Y-8390281D01*
X48716870Y-8390282D01*
X48596782Y-8451470D01*
X48596778Y-8451473D01*
X48557747Y-8490504D01*
X48503230Y-8518281D01*
X48487744Y-8519500D01*
X35513068Y-8519500D01*
X35441734Y-8538614D01*
X35441733Y-8538614D01*
X35377769Y-8575544D01*
X34127771Y-9825542D01*
X34127769Y-9825544D01*
X34127768Y-9825543D01*
X34075544Y-9877767D01*
X34057097Y-9909720D01*
X34038616Y-9941729D01*
X34022870Y-10000497D01*
X34022869Y-10000500D01*
X34019500Y-10013071D01*
X34019500Y-13992806D01*
X34000593Y-14050997D01*
X33990504Y-14062809D01*
X33812811Y-14240503D01*
X33758294Y-14268281D01*
X33742807Y-14269500D01*
X27613068Y-14269500D01*
X27541734Y-14288614D01*
X27541733Y-14288614D01*
X27477769Y-14325544D01*
X21469004Y-20334309D01*
X21414487Y-20362086D01*
X21354055Y-20352515D01*
X21310790Y-20309250D01*
X21300000Y-20264305D01*
X21300000Y-19300001D01*
X21299999Y-19300000D01*
X20975001Y-19300000D01*
X20975000Y-19300001D01*
X20975000Y-20787306D01*
X20956093Y-20845497D01*
X20946004Y-20857310D01*
X20412810Y-21390504D01*
X20358293Y-21418281D01*
X20342806Y-21419500D01*
X10662256Y-21419500D01*
X10604065Y-21400593D01*
X10592253Y-21390504D01*
X10553221Y-21351473D01*
X10553217Y-21351470D01*
X10433129Y-21290282D01*
X10433127Y-21290281D01*
X10300000Y-21269196D01*
X10166872Y-21290281D01*
X10166870Y-21290282D01*
X10046782Y-21351470D01*
X9951470Y-21446782D01*
X9890282Y-21566870D01*
X9890281Y-21566872D01*
X9869196Y-21699999D01*
X9869196Y-21700000D01*
X9890281Y-21833127D01*
X9901709Y-21855556D01*
X9911280Y-21915988D01*
X9883502Y-21970504D01*
X9828985Y-21998281D01*
X9813499Y-21999500D01*
X7399000Y-21999500D01*
X7340809Y-21980593D01*
X7304845Y-21931093D01*
X7300000Y-21900500D01*
X7300000Y-17530253D01*
X12579500Y-17530253D01*
X12579500Y-20569746D01*
X12579501Y-20569758D01*
X12591132Y-20628227D01*
X12591134Y-20628233D01*
X12624235Y-20677771D01*
X12635448Y-20694552D01*
X12635451Y-20694554D01*
X12688853Y-20730237D01*
X12701769Y-20738867D01*
X12746231Y-20747711D01*
X12760241Y-20750498D01*
X12760246Y-20750498D01*
X12760252Y-20750500D01*
X12760253Y-20750500D01*
X13449747Y-20750500D01*
X13449748Y-20750500D01*
X13508231Y-20738867D01*
X13574552Y-20694552D01*
X13618867Y-20628231D01*
X13630500Y-20569748D01*
X13630500Y-18962192D01*
X13649407Y-18904001D01*
X13659491Y-18892194D01*
X13742657Y-18809027D01*
X13797171Y-18781251D01*
X13797173Y-18781251D01*
X13799997Y-18780803D01*
X13800000Y-18780804D01*
X13933126Y-18759719D01*
X14053220Y-18698528D01*
X14148528Y-18603220D01*
X14209719Y-18483126D01*
X14230804Y-18350000D01*
X14209719Y-18216874D01*
X14148528Y-18096780D01*
X14053220Y-18001472D01*
X14053217Y-18001470D01*
X13933129Y-17940282D01*
X13933127Y-17940281D01*
X13800000Y-17919196D01*
X13799999Y-17919196D01*
X13744987Y-17927909D01*
X13684555Y-17918338D01*
X13641290Y-17875073D01*
X13630500Y-17830128D01*
X13630500Y-17530253D01*
X13630498Y-17530241D01*
X13623360Y-17494359D01*
X13618867Y-17471769D01*
X13574552Y-17405448D01*
X13574548Y-17405445D01*
X13508233Y-17361134D01*
X13508231Y-17361133D01*
X13508228Y-17361132D01*
X13508227Y-17361132D01*
X13449758Y-17349501D01*
X13449748Y-17349500D01*
X12760252Y-17349500D01*
X12760251Y-17349500D01*
X12760241Y-17349501D01*
X12701772Y-17361132D01*
X12701766Y-17361134D01*
X12635451Y-17405445D01*
X12635445Y-17405451D01*
X12591134Y-17471766D01*
X12591132Y-17471772D01*
X12579501Y-17530241D01*
X12579500Y-17530253D01*
X7300000Y-17530253D01*
X7300000Y-14530253D01*
X13849500Y-14530253D01*
X13849500Y-17569746D01*
X13849501Y-17569758D01*
X13861132Y-17628227D01*
X13861134Y-17628233D01*
X13905445Y-17694548D01*
X13905448Y-17694552D01*
X13971769Y-17738867D01*
X14016231Y-17747711D01*
X14030241Y-17750498D01*
X14030246Y-17750498D01*
X14030252Y-17750500D01*
X14030253Y-17750500D01*
X14719747Y-17750500D01*
X14719748Y-17750500D01*
X14778231Y-17738867D01*
X14844552Y-17694552D01*
X14888867Y-17628231D01*
X14900500Y-17569748D01*
X14900500Y-17530253D01*
X15119500Y-17530253D01*
X15119500Y-20569746D01*
X15119501Y-20569758D01*
X15131132Y-20628227D01*
X15131134Y-20628233D01*
X15164235Y-20677771D01*
X15175448Y-20694552D01*
X15175451Y-20694554D01*
X15228853Y-20730237D01*
X15241769Y-20738867D01*
X15286231Y-20747711D01*
X15300241Y-20750498D01*
X15300246Y-20750498D01*
X15300252Y-20750500D01*
X15300253Y-20750500D01*
X15989747Y-20750500D01*
X15989748Y-20750500D01*
X16048231Y-20738867D01*
X16114552Y-20694552D01*
X16158867Y-20628231D01*
X16170500Y-20569748D01*
X16170500Y-18962194D01*
X16189407Y-18904003D01*
X16199496Y-18892191D01*
X16276643Y-18815043D01*
X16331159Y-18787265D01*
X16391589Y-18796835D01*
X16416874Y-18809719D01*
X16550000Y-18830804D01*
X16683126Y-18809719D01*
X16803220Y-18748528D01*
X16898528Y-18653220D01*
X16959719Y-18533126D01*
X16980804Y-18400000D01*
X16959719Y-18266874D01*
X16898528Y-18146780D01*
X16803220Y-18051472D01*
X16803217Y-18051470D01*
X16683129Y-17990282D01*
X16683127Y-17990281D01*
X16550000Y-17969196D01*
X16416874Y-17990281D01*
X16314445Y-18042471D01*
X16254013Y-18052042D01*
X16199496Y-18024264D01*
X16171719Y-17969748D01*
X16170500Y-17954261D01*
X16170500Y-17530253D01*
X16170498Y-17530241D01*
X16163360Y-17494359D01*
X16158867Y-17471769D01*
X16114552Y-17405448D01*
X16114548Y-17405445D01*
X16048233Y-17361134D01*
X16048231Y-17361133D01*
X16048228Y-17361132D01*
X16048227Y-17361132D01*
X15989758Y-17349501D01*
X15989748Y-17349500D01*
X15300252Y-17349500D01*
X15300251Y-17349500D01*
X15300241Y-17349501D01*
X15241772Y-17361132D01*
X15241766Y-17361134D01*
X15175451Y-17405445D01*
X15175445Y-17405451D01*
X15131134Y-17471766D01*
X15131132Y-17471772D01*
X15119501Y-17530241D01*
X15119500Y-17530253D01*
X14900500Y-17530253D01*
X14900500Y-16785547D01*
X14919407Y-16727356D01*
X14968907Y-16691392D01*
X15030093Y-16691392D01*
X15044446Y-16697338D01*
X15046778Y-16698526D01*
X15046780Y-16698528D01*
X15166874Y-16759719D01*
X15300000Y-16780804D01*
X15433126Y-16759719D01*
X15553220Y-16698528D01*
X15648528Y-16603220D01*
X15709719Y-16483126D01*
X15730804Y-16350000D01*
X15709719Y-16216874D01*
X15648528Y-16096780D01*
X15553220Y-16001472D01*
X15553217Y-16001470D01*
X15433129Y-15940282D01*
X15433127Y-15940281D01*
X15300000Y-15919196D01*
X15166874Y-15940281D01*
X15087344Y-15980804D01*
X15044445Y-16002662D01*
X14984013Y-16012233D01*
X14929497Y-15984456D01*
X14901719Y-15929939D01*
X14900500Y-15914452D01*
X14900500Y-14530253D01*
X16389500Y-14530253D01*
X16389500Y-17569746D01*
X16389501Y-17569758D01*
X16401132Y-17628227D01*
X16401134Y-17628233D01*
X16445445Y-17694548D01*
X16445448Y-17694552D01*
X16511769Y-17738867D01*
X16556231Y-17747711D01*
X16570241Y-17750498D01*
X16570246Y-17750498D01*
X16570252Y-17750500D01*
X16570253Y-17750500D01*
X17259747Y-17750500D01*
X17259748Y-17750500D01*
X17318231Y-17738867D01*
X17384552Y-17694552D01*
X17428867Y-17628231D01*
X17440500Y-17569748D01*
X17440500Y-17530253D01*
X17659500Y-17530253D01*
X17659500Y-20569746D01*
X17659501Y-20569758D01*
X17671132Y-20628227D01*
X17671134Y-20628233D01*
X17704235Y-20677771D01*
X17715448Y-20694552D01*
X17715451Y-20694554D01*
X17768853Y-20730237D01*
X17781769Y-20738867D01*
X17826231Y-20747711D01*
X17840241Y-20750498D01*
X17840246Y-20750498D01*
X17840252Y-20750500D01*
X17840253Y-20750500D01*
X18529747Y-20750500D01*
X18529748Y-20750500D01*
X18588231Y-20738867D01*
X18654552Y-20694552D01*
X18698867Y-20628231D01*
X18710500Y-20569748D01*
X18710500Y-19300001D01*
X20150000Y-19300001D01*
X20150000Y-20574624D01*
X20164506Y-20647546D01*
X20164507Y-20647548D01*
X20219758Y-20730237D01*
X20219762Y-20730241D01*
X20302451Y-20785492D01*
X20302453Y-20785493D01*
X20375375Y-20799999D01*
X20375377Y-20800000D01*
X20474999Y-20800000D01*
X20475000Y-20799999D01*
X20475000Y-19300001D01*
X20474999Y-19300000D01*
X20150001Y-19300000D01*
X20150000Y-19300001D01*
X18710500Y-19300001D01*
X18710500Y-18962194D01*
X18729407Y-18904003D01*
X18739496Y-18892191D01*
X18792438Y-18839248D01*
X18846954Y-18811470D01*
X18877929Y-18811470D01*
X18999999Y-18830804D01*
X18999999Y-18830803D01*
X19000000Y-18830804D01*
X19133126Y-18809719D01*
X19253220Y-18748528D01*
X19348528Y-18653220D01*
X19409719Y-18533126D01*
X19430804Y-18400000D01*
X19409719Y-18266874D01*
X19348528Y-18146780D01*
X19253220Y-18051472D01*
X19253217Y-18051470D01*
X19133129Y-17990282D01*
X19133127Y-17990281D01*
X19000000Y-17969196D01*
X18866874Y-17990281D01*
X18854445Y-17996614D01*
X18794013Y-18006185D01*
X18739496Y-17978408D01*
X18711719Y-17923891D01*
X18710500Y-17908404D01*
X18710500Y-17530253D01*
X18710498Y-17530241D01*
X18703360Y-17494359D01*
X18698867Y-17471769D01*
X18654552Y-17405448D01*
X18654548Y-17405445D01*
X18588233Y-17361134D01*
X18588231Y-17361133D01*
X18588228Y-17361132D01*
X18588227Y-17361132D01*
X18529758Y-17349501D01*
X18529748Y-17349500D01*
X17840252Y-17349500D01*
X17840251Y-17349500D01*
X17840241Y-17349501D01*
X17781772Y-17361132D01*
X17781766Y-17361134D01*
X17715451Y-17405445D01*
X17715445Y-17405451D01*
X17671134Y-17471766D01*
X17671132Y-17471772D01*
X17659501Y-17530241D01*
X17659500Y-17530253D01*
X17440500Y-17530253D01*
X17440500Y-16579281D01*
X17459407Y-16521090D01*
X17508907Y-16485126D01*
X17570093Y-16485126D01*
X17589758Y-16495147D01*
X17589838Y-16494991D01*
X17616763Y-16508710D01*
X17716874Y-16559719D01*
X17850000Y-16580804D01*
X17983126Y-16559719D01*
X18103220Y-16498528D01*
X18198528Y-16403220D01*
X18259719Y-16283126D01*
X18280804Y-16150000D01*
X18259719Y-16016874D01*
X18198528Y-15896780D01*
X18103220Y-15801472D01*
X18103217Y-15801470D01*
X17983129Y-15740282D01*
X17983127Y-15740281D01*
X17850000Y-15719196D01*
X17716872Y-15740281D01*
X17716870Y-15740282D01*
X17589838Y-15805009D01*
X17589118Y-15803596D01*
X17539497Y-15819718D01*
X17481307Y-15800809D01*
X17445344Y-15751308D01*
X17440500Y-15720718D01*
X17440500Y-14530253D01*
X18929500Y-14530253D01*
X18929500Y-17569746D01*
X18929501Y-17569758D01*
X18941132Y-17628227D01*
X18941134Y-17628233D01*
X18985445Y-17694548D01*
X18985448Y-17694552D01*
X19051769Y-17738867D01*
X19096231Y-17747711D01*
X19110241Y-17750498D01*
X19110246Y-17750498D01*
X19110252Y-17750500D01*
X19110253Y-17750500D01*
X19799747Y-17750500D01*
X19799748Y-17750500D01*
X19858231Y-17738867D01*
X19924552Y-17694552D01*
X19968685Y-17628502D01*
X20016735Y-17590624D01*
X20077873Y-17588222D01*
X20128747Y-17622215D01*
X20149924Y-17679619D01*
X20150000Y-17683505D01*
X20150000Y-18799999D01*
X20150001Y-18800000D01*
X20474999Y-18800000D01*
X20475000Y-18799999D01*
X20475000Y-17300001D01*
X20474999Y-17300000D01*
X20375375Y-17300000D01*
X20302453Y-17314506D01*
X20302451Y-17314507D01*
X20219762Y-17369758D01*
X20219758Y-17369762D01*
X20161815Y-17456480D01*
X20113765Y-17494359D01*
X20052627Y-17496761D01*
X20001753Y-17462768D01*
X19980576Y-17405364D01*
X19980500Y-17401478D01*
X19980500Y-16761952D01*
X19999407Y-16703761D01*
X20048907Y-16667797D01*
X20094984Y-16664171D01*
X20200000Y-16680804D01*
X20333126Y-16659719D01*
X20453220Y-16598528D01*
X20548528Y-16503220D01*
X20609719Y-16383126D01*
X20630804Y-16250000D01*
X20609719Y-16116874D01*
X20548528Y-15996780D01*
X20453220Y-15901472D01*
X20453217Y-15901470D01*
X20333129Y-15840282D01*
X20333127Y-15840281D01*
X20200000Y-15819196D01*
X20199999Y-15819196D01*
X20094987Y-15835828D01*
X20034555Y-15826257D01*
X19991290Y-15782992D01*
X19980500Y-15738047D01*
X19980500Y-14530253D01*
X19980498Y-14530241D01*
X19975911Y-14507184D01*
X19968867Y-14471769D01*
X19924552Y-14405448D01*
X19889806Y-14382231D01*
X19858233Y-14361134D01*
X19858231Y-14361133D01*
X19858228Y-14361132D01*
X19858227Y-14361132D01*
X19799758Y-14349501D01*
X19799748Y-14349500D01*
X19110252Y-14349500D01*
X19110251Y-14349500D01*
X19110241Y-14349501D01*
X19051772Y-14361132D01*
X19051766Y-14361134D01*
X18985451Y-14405445D01*
X18985445Y-14405451D01*
X18941134Y-14471766D01*
X18941132Y-14471772D01*
X18929501Y-14530241D01*
X18929500Y-14530253D01*
X17440500Y-14530253D01*
X17440498Y-14530241D01*
X17435911Y-14507184D01*
X17428867Y-14471769D01*
X17384552Y-14405448D01*
X17349806Y-14382231D01*
X17318233Y-14361134D01*
X17318231Y-14361133D01*
X17318228Y-14361132D01*
X17318227Y-14361132D01*
X17259758Y-14349501D01*
X17259748Y-14349500D01*
X16570252Y-14349500D01*
X16570251Y-14349500D01*
X16570241Y-14349501D01*
X16511772Y-14361132D01*
X16511766Y-14361134D01*
X16445451Y-14405445D01*
X16445445Y-14405451D01*
X16401134Y-14471766D01*
X16401132Y-14471772D01*
X16389501Y-14530241D01*
X16389500Y-14530253D01*
X14900500Y-14530253D01*
X14900498Y-14530241D01*
X14895911Y-14507184D01*
X14888867Y-14471769D01*
X14844552Y-14405448D01*
X14809806Y-14382231D01*
X14778233Y-14361134D01*
X14778231Y-14361133D01*
X14778228Y-14361132D01*
X14778227Y-14361132D01*
X14719758Y-14349501D01*
X14719748Y-14349500D01*
X14030252Y-14349500D01*
X14030251Y-14349500D01*
X14030241Y-14349501D01*
X13971772Y-14361132D01*
X13971766Y-14361134D01*
X13905451Y-14405445D01*
X13905445Y-14405451D01*
X13861134Y-14471766D01*
X13861132Y-14471772D01*
X13849501Y-14530241D01*
X13849500Y-14530253D01*
X7300000Y-14530253D01*
X7300000Y-13427525D01*
X19949500Y-13427525D01*
X19949500Y-13572474D01*
X19987017Y-13712489D01*
X20059487Y-13838010D01*
X20059489Y-13838012D01*
X20059491Y-13838015D01*
X20161985Y-13940509D01*
X20161987Y-13940510D01*
X20161989Y-13940512D01*
X20287511Y-14012982D01*
X20287512Y-14012982D01*
X20287515Y-14012984D01*
X20427525Y-14050500D01*
X20630967Y-14050500D01*
X20689158Y-14069407D01*
X20700971Y-14079496D01*
X21440504Y-14819029D01*
X21468281Y-14873546D01*
X21469500Y-14889033D01*
X21469500Y-17401478D01*
X21450593Y-17459669D01*
X21401093Y-17495633D01*
X21339907Y-17495633D01*
X21290407Y-17459669D01*
X21288185Y-17456480D01*
X21230241Y-17369762D01*
X21230237Y-17369758D01*
X21147548Y-17314507D01*
X21147546Y-17314506D01*
X21074624Y-17300000D01*
X20975001Y-17300000D01*
X20975000Y-17300001D01*
X20975000Y-18799999D01*
X20975001Y-18800000D01*
X21299999Y-18800000D01*
X21300000Y-18799999D01*
X21300000Y-17683505D01*
X21318907Y-17625314D01*
X21368407Y-17589350D01*
X21429593Y-17589350D01*
X21479093Y-17625314D01*
X21481308Y-17628494D01*
X21525448Y-17694552D01*
X21591769Y-17738867D01*
X21636231Y-17747711D01*
X21650241Y-17750498D01*
X21650246Y-17750498D01*
X21650252Y-17750500D01*
X21650253Y-17750500D01*
X22339747Y-17750500D01*
X22339748Y-17750500D01*
X22398231Y-17738867D01*
X22464552Y-17694552D01*
X22508867Y-17628231D01*
X22520500Y-17569748D01*
X22520500Y-14773808D01*
X22523873Y-14748185D01*
X22545500Y-14667474D01*
X22545500Y-14522526D01*
X22507984Y-14382515D01*
X22435510Y-14256985D01*
X21238015Y-13059490D01*
X21112485Y-12987016D01*
X21112484Y-12987015D01*
X21112481Y-12987014D01*
X21047115Y-12969499D01*
X21047115Y-12969500D01*
X20972475Y-12949500D01*
X20427525Y-12949500D01*
X20383883Y-12961194D01*
X20287510Y-12987017D01*
X20161989Y-13059487D01*
X20059487Y-13161989D01*
X19987017Y-13287510D01*
X19949500Y-13427525D01*
X7300000Y-13427525D01*
X7300000Y-12680267D01*
X19173284Y-12680267D01*
X19332046Y-12735821D01*
X19332050Y-12735822D01*
X19500000Y-12754745D01*
X19667949Y-12735822D01*
X19667953Y-12735821D01*
X19826713Y-12680267D01*
X19499999Y-12353553D01*
X19173284Y-12680267D01*
X7300000Y-12680267D01*
X7300000Y-12000000D01*
X18745254Y-12000000D01*
X18764177Y-12167949D01*
X18764178Y-12167953D01*
X18819731Y-12326713D01*
X19146446Y-11999999D01*
X19853553Y-11999999D01*
X20180267Y-12326713D01*
X20235821Y-12167953D01*
X20235822Y-12167949D01*
X20254745Y-12000000D01*
X20794355Y-12000000D01*
X20814860Y-12168872D01*
X20875182Y-12327930D01*
X20954475Y-12442805D01*
X20971816Y-12467927D01*
X20971818Y-12467930D01*
X20985629Y-12480165D01*
X21099148Y-12580734D01*
X21249775Y-12659790D01*
X21414944Y-12700500D01*
X21414947Y-12700500D01*
X21585053Y-12700500D01*
X21585056Y-12700500D01*
X21750225Y-12659790D01*
X21900852Y-12580734D01*
X22028183Y-12467929D01*
X22124818Y-12327930D01*
X22152146Y-12255869D01*
X22174710Y-12220971D01*
X22266186Y-12129496D01*
X22320703Y-12101719D01*
X22336189Y-12100500D01*
X22371959Y-12100500D01*
X22371961Y-12100500D01*
X22510053Y-12059953D01*
X22631128Y-11982143D01*
X22725377Y-11873373D01*
X22785165Y-11742457D01*
X22795110Y-11673285D01*
X22805647Y-11600002D01*
X22805647Y-11599997D01*
X22785165Y-11457543D01*
X22770144Y-11424652D01*
X22725377Y-11326627D01*
X22631128Y-11217857D01*
X22631127Y-11217856D01*
X22631126Y-11217855D01*
X22510057Y-11140049D01*
X22510054Y-11140047D01*
X22510053Y-11140047D01*
X22500323Y-11137190D01*
X22371964Y-11099500D01*
X22371961Y-11099500D01*
X22228039Y-11099500D01*
X22228035Y-11099500D01*
X22089949Y-11140046D01*
X22089942Y-11140049D01*
X21968872Y-11217856D01*
X21968870Y-11217858D01*
X21879013Y-11321559D01*
X21826617Y-11353155D01*
X21765656Y-11347919D01*
X21758189Y-11344389D01*
X21750228Y-11340211D01*
X21750225Y-11340210D01*
X21585058Y-11299500D01*
X21585056Y-11299500D01*
X21414944Y-11299500D01*
X21414941Y-11299500D01*
X21249776Y-11340209D01*
X21099146Y-11419267D01*
X20971818Y-11532069D01*
X20971816Y-11532072D01*
X20914946Y-11614462D01*
X20875182Y-11672070D01*
X20814860Y-11831128D01*
X20808025Y-11887418D01*
X20796243Y-11984455D01*
X20794355Y-12000000D01*
X20254745Y-12000000D01*
X20235822Y-11832050D01*
X20235821Y-11832046D01*
X20180267Y-11673285D01*
X20180267Y-11673284D01*
X19853553Y-11999999D01*
X19146446Y-11999999D01*
X18819731Y-11673284D01*
X18764178Y-11832046D01*
X18764177Y-11832050D01*
X18745254Y-12000000D01*
X7300000Y-12000000D01*
X7300000Y-11319731D01*
X19173284Y-11319731D01*
X19499999Y-11646445D01*
X19826713Y-11319731D01*
X19826714Y-11319731D01*
X19667953Y-11264178D01*
X19667949Y-11264177D01*
X19500000Y-11245254D01*
X19332050Y-11264177D01*
X19332046Y-11264178D01*
X19173284Y-11319731D01*
X7300000Y-11319731D01*
X7300000Y-3899999D01*
X11319196Y-3899999D01*
X11319196Y-3900000D01*
X11340281Y-4033127D01*
X11340282Y-4033129D01*
X11392377Y-4135371D01*
X11401472Y-4153220D01*
X11440505Y-4192253D01*
X11468281Y-4246768D01*
X11469500Y-4262255D01*
X11469500Y-7286929D01*
X11474035Y-7303852D01*
X11474035Y-7303855D01*
X11488614Y-7358265D01*
X11488614Y-7358266D01*
X11488616Y-7358269D01*
X11525544Y-7422231D01*
X11577769Y-7474456D01*
X11577771Y-7474457D01*
X12977769Y-8874456D01*
X13041731Y-8911384D01*
X13041733Y-8911384D01*
X13041734Y-8911385D01*
X13056330Y-8915296D01*
X13113068Y-8930499D01*
X13113070Y-8930500D01*
X13113071Y-8930500D01*
X13113072Y-8930500D01*
X18598330Y-8930500D01*
X18656521Y-8949407D01*
X18692485Y-8998907D01*
X18692485Y-9060093D01*
X18692484Y-9060093D01*
X18690281Y-9066871D01*
X18667977Y-9207695D01*
X18664629Y-9207164D01*
X18650289Y-9251300D01*
X18640204Y-9263108D01*
X18632814Y-9270499D01*
X18578300Y-9298280D01*
X18562806Y-9299500D01*
X18414941Y-9299500D01*
X18249776Y-9340209D01*
X18099146Y-9419267D01*
X17971818Y-9532069D01*
X17971816Y-9532072D01*
X17904116Y-9630152D01*
X17875182Y-9672070D01*
X17816979Y-9825542D01*
X17814860Y-9831129D01*
X17794355Y-9999998D01*
X17794355Y-10000001D01*
X17797045Y-10022154D01*
X17814860Y-10168872D01*
X17875182Y-10327930D01*
X17969244Y-10464201D01*
X17971816Y-10467927D01*
X17971818Y-10467930D01*
X17980414Y-10475545D01*
X18099148Y-10580734D01*
X18249775Y-10659790D01*
X18414944Y-10700500D01*
X18414947Y-10700500D01*
X18585053Y-10700500D01*
X18585056Y-10700500D01*
X18750225Y-10659790D01*
X18900852Y-10580734D01*
X19028183Y-10467929D01*
X19124818Y-10327930D01*
X19185140Y-10168872D01*
X19205645Y-10000000D01*
X19202263Y-9972150D01*
X19191914Y-9886917D01*
X19185140Y-9831128D01*
X19151820Y-9743271D01*
X19148865Y-9682161D01*
X19182396Y-9630981D01*
X19228902Y-9610388D01*
X19233126Y-9609719D01*
X19353220Y-9548528D01*
X19448528Y-9453220D01*
X19509719Y-9333126D01*
X19530804Y-9200000D01*
X19509719Y-9066874D01*
X19509718Y-9066872D01*
X19509718Y-9066871D01*
X19507516Y-9060093D01*
X19507515Y-8998908D01*
X19543479Y-8949408D01*
X19601670Y-8930500D01*
X20580128Y-8930500D01*
X20638319Y-8949407D01*
X20674283Y-8998907D01*
X20677909Y-9044987D01*
X20667977Y-9107695D01*
X20664629Y-9107164D01*
X20650289Y-9151300D01*
X20640200Y-9163112D01*
X20608326Y-9194987D01*
X20551540Y-9251774D01*
X20532811Y-9270503D01*
X20478295Y-9298281D01*
X20462807Y-9299500D01*
X20414941Y-9299500D01*
X20249776Y-9340209D01*
X20099146Y-9419267D01*
X19971818Y-9532069D01*
X19971816Y-9532072D01*
X19904116Y-9630152D01*
X19875182Y-9672070D01*
X19816979Y-9825542D01*
X19814860Y-9831129D01*
X19794355Y-9999998D01*
X19794355Y-10000001D01*
X19797045Y-10022154D01*
X19814860Y-10168872D01*
X19875182Y-10327930D01*
X19969244Y-10464201D01*
X19971816Y-10467927D01*
X19971818Y-10467930D01*
X19980414Y-10475545D01*
X20099148Y-10580734D01*
X20249775Y-10659790D01*
X20414944Y-10700500D01*
X20414947Y-10700500D01*
X20585053Y-10700500D01*
X20585056Y-10700500D01*
X20750225Y-10659790D01*
X20900852Y-10580734D01*
X21028183Y-10467929D01*
X21124818Y-10327930D01*
X21185140Y-10168872D01*
X21205645Y-10000000D01*
X21185140Y-9831128D01*
X21124818Y-9672070D01*
X21123805Y-9670603D01*
X21123485Y-9669532D01*
X21122035Y-9666768D01*
X21122576Y-9666484D01*
X21106308Y-9611976D01*
X21126613Y-9554258D01*
X21176966Y-9519498D01*
X21189789Y-9516582D01*
X21233126Y-9509719D01*
X21353220Y-9448528D01*
X21448528Y-9353220D01*
X21509719Y-9233126D01*
X21530804Y-9100000D01*
X21530710Y-9099407D01*
X21522091Y-9044987D01*
X21531662Y-8984555D01*
X21574927Y-8941290D01*
X21619872Y-8930500D01*
X22280128Y-8930500D01*
X22338319Y-8949407D01*
X22374283Y-8998907D01*
X22377909Y-9044987D01*
X22367977Y-9107695D01*
X22364629Y-9107164D01*
X22350289Y-9151300D01*
X22340201Y-9163112D01*
X22327771Y-9175542D01*
X22327769Y-9175544D01*
X22327768Y-9175543D01*
X22275543Y-9227769D01*
X22238617Y-9291727D01*
X22238615Y-9291730D01*
X22232896Y-9313075D01*
X22199570Y-9364388D01*
X22183279Y-9375108D01*
X22099152Y-9419263D01*
X22099149Y-9419265D01*
X22099148Y-9419266D01*
X22076742Y-9439116D01*
X21971818Y-9532069D01*
X21971816Y-9532072D01*
X21904116Y-9630152D01*
X21875182Y-9672070D01*
X21816979Y-9825542D01*
X21814860Y-9831129D01*
X21794355Y-9999998D01*
X21794355Y-10000001D01*
X21797045Y-10022154D01*
X21814860Y-10168872D01*
X21875182Y-10327930D01*
X21969244Y-10464201D01*
X21971816Y-10467927D01*
X21971818Y-10467930D01*
X21980414Y-10475545D01*
X22099148Y-10580734D01*
X22249775Y-10659790D01*
X22414944Y-10700500D01*
X22414947Y-10700500D01*
X22585053Y-10700500D01*
X22585056Y-10700500D01*
X22750225Y-10659790D01*
X22900852Y-10580734D01*
X23028183Y-10467929D01*
X23124818Y-10327930D01*
X23185140Y-10168872D01*
X23205645Y-10000000D01*
X23185140Y-9831128D01*
X23124818Y-9672070D01*
X23051158Y-9565355D01*
X23033663Y-9506729D01*
X23053970Y-9449012D01*
X23062623Y-9439124D01*
X23148528Y-9353220D01*
X23209719Y-9233126D01*
X23230804Y-9100000D01*
X23230710Y-9099407D01*
X23222091Y-9044987D01*
X23231662Y-8984555D01*
X23274927Y-8941290D01*
X23319872Y-8930500D01*
X28942806Y-8930500D01*
X29000997Y-8949407D01*
X29012810Y-8959496D01*
X32110504Y-12057190D01*
X32138281Y-12111707D01*
X32139500Y-12127194D01*
X32139500Y-12633071D01*
X32139500Y-12706929D01*
X32151436Y-12751472D01*
X32158616Y-12778269D01*
X32195544Y-12842231D01*
X32247769Y-12894456D01*
X32247771Y-12894457D01*
X32390201Y-13036888D01*
X32417977Y-13091402D01*
X32418118Y-13093197D01*
X32440281Y-13233127D01*
X32440282Y-13233129D01*
X32501470Y-13353217D01*
X32501472Y-13353220D01*
X32596780Y-13448528D01*
X32716874Y-13509719D01*
X32850000Y-13530804D01*
X32983126Y-13509719D01*
X33103220Y-13448528D01*
X33198528Y-13353220D01*
X33259719Y-13233126D01*
X33280804Y-13100000D01*
X33277282Y-13077766D01*
X33274387Y-13059487D01*
X33259719Y-12966874D01*
X33250866Y-12949500D01*
X33198529Y-12846782D01*
X33198528Y-12846780D01*
X33103220Y-12751472D01*
X33103217Y-12751470D01*
X32983129Y-12690282D01*
X32983127Y-12690281D01*
X32842305Y-12667977D01*
X32842835Y-12664629D01*
X32798700Y-12650289D01*
X32786887Y-12640200D01*
X32729496Y-12582809D01*
X32701719Y-12528292D01*
X32700500Y-12512805D01*
X32700500Y-12323039D01*
X32719407Y-12264848D01*
X32768907Y-12228884D01*
X32814985Y-12225258D01*
X32850000Y-12230804D01*
X32983126Y-12209719D01*
X33103220Y-12148528D01*
X33198528Y-12053220D01*
X33259719Y-11933126D01*
X33280804Y-11800000D01*
X33259719Y-11666874D01*
X33198528Y-11546780D01*
X33103220Y-11451472D01*
X33103217Y-11451470D01*
X32983129Y-11390282D01*
X32983127Y-11390281D01*
X32850000Y-11369196D01*
X32716873Y-11390281D01*
X32716869Y-11390282D01*
X32706620Y-11395504D01*
X32646187Y-11405071D01*
X32591678Y-11377295D01*
X29432152Y-8217770D01*
X29432151Y-8217768D01*
X29379926Y-8165543D01*
X29315964Y-8128615D01*
X29315963Y-8128614D01*
X29315960Y-8128613D01*
X29244626Y-8109499D01*
X29244624Y-8109499D01*
X29244623Y-8109499D01*
X13414890Y-8109499D01*
X13356699Y-8090592D01*
X13344886Y-8080503D01*
X12944650Y-7680267D01*
X14173284Y-7680267D01*
X14332046Y-7735821D01*
X14332050Y-7735822D01*
X14500000Y-7754745D01*
X14667949Y-7735822D01*
X14667953Y-7735821D01*
X14826713Y-7680267D01*
X16173284Y-7680267D01*
X16332046Y-7735821D01*
X16332050Y-7735822D01*
X16500000Y-7754745D01*
X16667949Y-7735822D01*
X16667953Y-7735821D01*
X16826713Y-7680267D01*
X18173284Y-7680267D01*
X18332046Y-7735821D01*
X18332050Y-7735822D01*
X18500000Y-7754745D01*
X18667949Y-7735822D01*
X18667953Y-7735821D01*
X18826713Y-7680267D01*
X20173284Y-7680267D01*
X20332046Y-7735821D01*
X20332050Y-7735822D01*
X20500000Y-7754745D01*
X20667949Y-7735822D01*
X20667953Y-7735821D01*
X20826713Y-7680267D01*
X20499999Y-7353553D01*
X20173284Y-7680267D01*
X18826713Y-7680267D01*
X18499999Y-7353553D01*
X18173284Y-7680267D01*
X16826713Y-7680267D01*
X16499999Y-7353553D01*
X16173284Y-7680267D01*
X14826713Y-7680267D01*
X14499999Y-7353553D01*
X14173284Y-7680267D01*
X12944650Y-7680267D01*
X12319496Y-7055113D01*
X12291719Y-7000596D01*
X12291672Y-7000000D01*
X13745254Y-7000000D01*
X13764177Y-7167949D01*
X13764178Y-7167953D01*
X13819731Y-7326713D01*
X14146446Y-6999999D01*
X14853553Y-6999999D01*
X15180267Y-7326713D01*
X15235821Y-7167953D01*
X15235822Y-7167949D01*
X15254745Y-7000000D01*
X15745254Y-7000000D01*
X15764177Y-7167949D01*
X15764178Y-7167953D01*
X15819731Y-7326713D01*
X16146445Y-6999999D01*
X16853553Y-6999999D01*
X17180267Y-7326713D01*
X17235821Y-7167953D01*
X17235822Y-7167949D01*
X17254745Y-7000000D01*
X17745254Y-7000000D01*
X17764177Y-7167949D01*
X17764178Y-7167953D01*
X17819731Y-7326713D01*
X18146445Y-6999999D01*
X18853553Y-6999999D01*
X19180267Y-7326713D01*
X19235821Y-7167953D01*
X19235822Y-7167949D01*
X19254745Y-7000000D01*
X19745254Y-7000000D01*
X19764177Y-7167949D01*
X19764178Y-7167953D01*
X19819731Y-7326713D01*
X20146446Y-6999999D01*
X20853553Y-6999999D01*
X21180267Y-7326713D01*
X21235821Y-7167953D01*
X21235822Y-7167949D01*
X21254745Y-7000000D01*
X21235822Y-6832050D01*
X21235821Y-6832046D01*
X21180267Y-6673285D01*
X21180267Y-6673284D01*
X20853553Y-6999999D01*
X20146446Y-6999999D01*
X19819731Y-6673284D01*
X19764178Y-6832046D01*
X19764177Y-6832050D01*
X19745254Y-7000000D01*
X19254745Y-7000000D01*
X19235822Y-6832050D01*
X19235821Y-6832046D01*
X19180267Y-6673285D01*
X19180267Y-6673284D01*
X18853553Y-6999999D01*
X18146445Y-6999999D01*
X17819731Y-6673284D01*
X17764178Y-6832046D01*
X17764177Y-6832050D01*
X17745254Y-7000000D01*
X17254745Y-7000000D01*
X17235822Y-6832050D01*
X17235821Y-6832046D01*
X17180267Y-6673285D01*
X17180267Y-6673284D01*
X16853553Y-6999999D01*
X16146445Y-6999999D01*
X15819731Y-6673284D01*
X15764178Y-6832046D01*
X15764177Y-6832050D01*
X15745254Y-7000000D01*
X15254745Y-7000000D01*
X15235822Y-6832050D01*
X15235821Y-6832046D01*
X15180267Y-6673285D01*
X15180267Y-6673284D01*
X14853553Y-6999999D01*
X14146446Y-6999999D01*
X13819731Y-6673284D01*
X13764178Y-6832046D01*
X13764177Y-6832050D01*
X13745254Y-7000000D01*
X12291672Y-7000000D01*
X12290500Y-6985109D01*
X12290500Y-6319731D01*
X14173284Y-6319731D01*
X14499999Y-6646445D01*
X14826713Y-6319731D01*
X14826714Y-6319731D01*
X16173284Y-6319731D01*
X16499999Y-6646445D01*
X16826713Y-6319731D01*
X16826714Y-6319731D01*
X18173284Y-6319731D01*
X18499999Y-6646445D01*
X18826713Y-6319731D01*
X18826714Y-6319731D01*
X20173284Y-6319731D01*
X20499999Y-6646445D01*
X20826713Y-6319731D01*
X20826714Y-6319731D01*
X20667953Y-6264178D01*
X20667949Y-6264177D01*
X20500000Y-6245254D01*
X20332050Y-6264177D01*
X20332046Y-6264178D01*
X20173284Y-6319731D01*
X18826714Y-6319731D01*
X18667953Y-6264178D01*
X18667949Y-6264177D01*
X18500000Y-6245254D01*
X18332050Y-6264177D01*
X18332046Y-6264178D01*
X18173284Y-6319731D01*
X16826714Y-6319731D01*
X16667953Y-6264178D01*
X16667949Y-6264177D01*
X16500000Y-6245254D01*
X16332050Y-6264177D01*
X16332046Y-6264178D01*
X16173284Y-6319731D01*
X14826714Y-6319731D01*
X14667953Y-6264178D01*
X14667949Y-6264177D01*
X14500000Y-6245254D01*
X14332050Y-6264177D01*
X14332046Y-6264178D01*
X14173284Y-6319731D01*
X12290500Y-6319731D01*
X12290500Y-4497194D01*
X12309407Y-4439003D01*
X12319496Y-4427190D01*
X12886886Y-3859800D01*
X12941403Y-3832023D01*
X12943194Y-3831882D01*
X12950000Y-3830804D01*
X13083126Y-3809719D01*
X13203220Y-3748528D01*
X13298528Y-3653220D01*
X13325645Y-3599999D01*
X13669196Y-3599999D01*
X13669196Y-3600000D01*
X13690281Y-3733127D01*
X13690282Y-3733129D01*
X13751470Y-3853217D01*
X13751472Y-3853220D01*
X13846780Y-3948528D01*
X13966874Y-4009719D01*
X14100000Y-4030804D01*
X14107696Y-4032023D01*
X14107165Y-4035370D01*
X14151301Y-4049711D01*
X14163112Y-4059799D01*
X14190502Y-4087188D01*
X14218281Y-4141704D01*
X14219500Y-4157193D01*
X14219500Y-4296251D01*
X14200593Y-4354442D01*
X14166509Y-4383910D01*
X14099151Y-4419263D01*
X14099147Y-4419266D01*
X13971818Y-4532069D01*
X13971817Y-4532071D01*
X13875182Y-4672070D01*
X13814860Y-4831128D01*
X13794355Y-5000000D01*
X13814860Y-5168872D01*
X13875182Y-5327930D01*
X13971817Y-5467929D01*
X14099148Y-5580734D01*
X14249775Y-5659790D01*
X14414944Y-5700500D01*
X14414947Y-5700500D01*
X14585053Y-5700500D01*
X14585056Y-5700500D01*
X14750225Y-5659790D01*
X14900852Y-5580734D01*
X15028183Y-5467929D01*
X15124818Y-5327930D01*
X15185140Y-5168872D01*
X15205645Y-5000000D01*
X15794355Y-5000000D01*
X15814860Y-5168872D01*
X15875182Y-5327930D01*
X15971817Y-5467929D01*
X16099148Y-5580734D01*
X16249775Y-5659790D01*
X16414944Y-5700500D01*
X16414947Y-5700500D01*
X16585053Y-5700500D01*
X16585056Y-5700500D01*
X16750225Y-5659790D01*
X16900852Y-5580734D01*
X17028183Y-5467929D01*
X17124818Y-5327930D01*
X17185140Y-5168872D01*
X17205645Y-5000000D01*
X17185140Y-4831128D01*
X17124818Y-4672070D01*
X17028183Y-4532071D01*
X16900852Y-4419266D01*
X16900848Y-4419263D01*
X16833491Y-4383910D01*
X16790753Y-4340126D01*
X16780500Y-4296251D01*
X16780500Y-4197200D01*
X16799407Y-4139009D01*
X16834552Y-4108992D01*
X16953220Y-4048528D01*
X17048528Y-3953220D01*
X17109719Y-3833126D01*
X17130804Y-3700000D01*
X17130804Y-3699999D01*
X17469196Y-3699999D01*
X17469196Y-3700000D01*
X17490281Y-3833127D01*
X17490282Y-3833129D01*
X17551470Y-3953217D01*
X17551472Y-3953220D01*
X17646780Y-4048528D01*
X17766874Y-4109719D01*
X17900000Y-4130804D01*
X17907696Y-4132023D01*
X17907165Y-4135371D01*
X17951300Y-4149711D01*
X17963113Y-4159800D01*
X18090230Y-4286917D01*
X18118007Y-4341434D01*
X18108436Y-4401866D01*
X18085875Y-4431023D01*
X17971823Y-4532064D01*
X17971819Y-4532069D01*
X17971817Y-4532071D01*
X17875182Y-4672070D01*
X17814860Y-4831128D01*
X17794355Y-5000000D01*
X17814860Y-5168872D01*
X17875182Y-5327930D01*
X17971817Y-5467929D01*
X18099148Y-5580734D01*
X18249775Y-5659790D01*
X18414944Y-5700500D01*
X18414947Y-5700500D01*
X18585053Y-5700500D01*
X18585056Y-5700500D01*
X18750225Y-5659790D01*
X18900852Y-5580734D01*
X19028183Y-5467929D01*
X19124818Y-5327930D01*
X19185140Y-5168872D01*
X19205645Y-5000000D01*
X19185140Y-4831128D01*
X19124818Y-4672070D01*
X19028183Y-4532071D01*
X18900852Y-4419266D01*
X18900848Y-4419263D01*
X18833491Y-4383910D01*
X18790753Y-4340126D01*
X18780500Y-4296251D01*
X18780500Y-4263071D01*
X18770152Y-4224456D01*
X18770151Y-4224451D01*
X18761386Y-4191737D01*
X18761385Y-4191734D01*
X18761384Y-4191731D01*
X18724455Y-4127768D01*
X18545215Y-3948528D01*
X18359800Y-3763112D01*
X18332023Y-3708596D01*
X18331882Y-3706806D01*
X18325766Y-3668193D01*
X18314965Y-3599999D01*
X18969196Y-3599999D01*
X18969196Y-3600000D01*
X18990281Y-3733127D01*
X18990282Y-3733129D01*
X19051470Y-3853217D01*
X19051473Y-3853221D01*
X19095003Y-3896752D01*
X19120625Y-3941130D01*
X19138615Y-4008266D01*
X19138616Y-4008269D01*
X19175544Y-4072231D01*
X19227769Y-4124456D01*
X19227771Y-4124457D01*
X19802480Y-4699167D01*
X19830257Y-4753684D01*
X19825044Y-4804274D01*
X19814859Y-4831129D01*
X19798457Y-4966214D01*
X19794355Y-5000000D01*
X19814860Y-5168872D01*
X19875182Y-5327930D01*
X19971817Y-5467929D01*
X20099148Y-5580734D01*
X20249775Y-5659790D01*
X20414944Y-5700500D01*
X20414947Y-5700500D01*
X20585053Y-5700500D01*
X20585056Y-5700500D01*
X20750225Y-5659790D01*
X20900852Y-5580734D01*
X21028183Y-5467929D01*
X21124818Y-5327930D01*
X21185140Y-5168872D01*
X21205645Y-5000000D01*
X21185140Y-4831128D01*
X21124818Y-4672070D01*
X21028183Y-4532071D01*
X20900852Y-4419266D01*
X20750225Y-4340210D01*
X20750224Y-4340209D01*
X20750223Y-4340209D01*
X20585058Y-4299500D01*
X20585056Y-4299500D01*
X20414944Y-4299500D01*
X20338795Y-4318268D01*
X20293656Y-4329394D01*
X20232632Y-4324961D01*
X20199962Y-4303274D01*
X19799854Y-3903167D01*
X19772076Y-3848650D01*
X19781646Y-3788221D01*
X19809719Y-3733126D01*
X19830804Y-3600000D01*
X19809719Y-3466874D01*
X19748528Y-3346780D01*
X19653220Y-3251472D01*
X19653217Y-3251470D01*
X19533129Y-3190282D01*
X19533127Y-3190281D01*
X19400000Y-3169196D01*
X19266872Y-3190281D01*
X19266870Y-3190282D01*
X19146782Y-3251470D01*
X19051470Y-3346782D01*
X18990282Y-3466870D01*
X18990281Y-3466872D01*
X18969196Y-3599999D01*
X18314965Y-3599999D01*
X18309719Y-3566874D01*
X18248528Y-3446780D01*
X18153220Y-3351472D01*
X18153217Y-3351470D01*
X18033129Y-3290282D01*
X18033127Y-3290281D01*
X17900000Y-3269196D01*
X17766872Y-3290281D01*
X17766870Y-3290282D01*
X17646782Y-3351470D01*
X17551470Y-3446782D01*
X17490282Y-3566870D01*
X17490281Y-3566872D01*
X17469196Y-3699999D01*
X17130804Y-3699999D01*
X17109719Y-3566874D01*
X17048528Y-3446780D01*
X16953220Y-3351472D01*
X16953217Y-3351470D01*
X16833129Y-3290282D01*
X16833127Y-3290281D01*
X16700000Y-3269196D01*
X16566872Y-3290281D01*
X16566870Y-3290282D01*
X16446782Y-3351470D01*
X16351470Y-3446782D01*
X16290282Y-3566870D01*
X16290281Y-3566872D01*
X16269196Y-3699998D01*
X16269196Y-3707789D01*
X16266633Y-3707789D01*
X16258948Y-3756243D01*
X16256487Y-3760775D01*
X16239431Y-3790320D01*
X16239424Y-3790332D01*
X16238619Y-3791725D01*
X16238615Y-3791734D01*
X16220982Y-3857543D01*
X16220980Y-3857550D01*
X16219500Y-3863068D01*
X16219500Y-4296251D01*
X16200593Y-4354442D01*
X16166509Y-4383910D01*
X16099151Y-4419263D01*
X16099147Y-4419266D01*
X15971818Y-4532069D01*
X15971817Y-4532071D01*
X15875182Y-4672070D01*
X15814860Y-4831128D01*
X15794355Y-5000000D01*
X15205645Y-5000000D01*
X15185140Y-4831128D01*
X15124818Y-4672070D01*
X15028183Y-4532071D01*
X14900852Y-4419266D01*
X14900848Y-4419263D01*
X14833491Y-4383910D01*
X14790753Y-4340126D01*
X14780500Y-4296251D01*
X14780500Y-3963074D01*
X14780500Y-3963072D01*
X14761384Y-3891731D01*
X14724456Y-3827769D01*
X14706404Y-3809717D01*
X14672231Y-3775543D01*
X14672231Y-3775544D01*
X14559800Y-3663113D01*
X14532023Y-3608596D01*
X14531882Y-3606806D01*
X14525557Y-3566870D01*
X14509719Y-3466874D01*
X14448528Y-3346780D01*
X14353220Y-3251472D01*
X14353217Y-3251470D01*
X14233129Y-3190282D01*
X14233127Y-3190281D01*
X14100000Y-3169196D01*
X13966872Y-3190281D01*
X13966870Y-3190282D01*
X13846782Y-3251470D01*
X13751470Y-3346782D01*
X13690282Y-3466870D01*
X13690281Y-3466872D01*
X13669196Y-3599999D01*
X13325645Y-3599999D01*
X13359719Y-3533126D01*
X13380804Y-3400000D01*
X13359719Y-3266874D01*
X13298528Y-3146780D01*
X13203220Y-3051472D01*
X13203217Y-3051470D01*
X13083129Y-2990282D01*
X13083127Y-2990281D01*
X12950000Y-2969196D01*
X12816872Y-2990281D01*
X12816870Y-2990282D01*
X12696782Y-3051470D01*
X12601470Y-3146782D01*
X12540282Y-3266870D01*
X12540281Y-3266872D01*
X12517977Y-3407695D01*
X12514629Y-3407164D01*
X12500289Y-3451300D01*
X12490199Y-3463113D01*
X12265088Y-3688223D01*
X12210572Y-3716000D01*
X12150140Y-3706429D01*
X12106877Y-3663166D01*
X12098528Y-3646780D01*
X12003220Y-3551472D01*
X12003217Y-3551470D01*
X11883129Y-3490282D01*
X11883127Y-3490281D01*
X11750000Y-3469196D01*
X11616872Y-3490281D01*
X11616870Y-3490282D01*
X11496782Y-3551470D01*
X11401470Y-3646782D01*
X11340282Y-3766870D01*
X11340281Y-3766872D01*
X11319196Y-3899999D01*
X7300000Y-3899999D01*
X7300000Y-599499D01*
X7318907Y-541308D01*
X7368407Y-505344D01*
X7399000Y-500499D01*
X27260912Y-500499D01*
X27319103Y-519406D01*
G37*
G04 #@! TD.AperFunction*
G04 #@! TA.AperFunction,Conductor*
G36*
X47767756Y-16708413D02*
G01*
X49720504Y-18661161D01*
X49748281Y-18715678D01*
X49749500Y-18731165D01*
X49749500Y-21568995D01*
X49776420Y-21704327D01*
X49776420Y-21704329D01*
X49829222Y-21831806D01*
X49829229Y-21831819D01*
X49838369Y-21845497D01*
X49854979Y-21904385D01*
X49833803Y-21961789D01*
X49782930Y-21995783D01*
X49756055Y-21999500D01*
X40436194Y-21999500D01*
X40378003Y-21980593D01*
X40342039Y-21931093D01*
X40342039Y-21869907D01*
X40366190Y-21830496D01*
X44187191Y-18009496D01*
X44241708Y-17981719D01*
X44257195Y-17980500D01*
X44287744Y-17980500D01*
X44345935Y-17999407D01*
X44357747Y-18009496D01*
X44390723Y-18042471D01*
X44396780Y-18048528D01*
X44516874Y-18109719D01*
X44650000Y-18130804D01*
X44783126Y-18109719D01*
X44903220Y-18048528D01*
X44998528Y-17953220D01*
X45059719Y-17833126D01*
X45080804Y-17700000D01*
X45080804Y-17699999D01*
X45072091Y-17644987D01*
X45081662Y-17584555D01*
X45124927Y-17541290D01*
X45169872Y-17530500D01*
X45387744Y-17530500D01*
X45445935Y-17549407D01*
X45457747Y-17559496D01*
X45482807Y-17584555D01*
X45496780Y-17598528D01*
X45616874Y-17659719D01*
X45750000Y-17680804D01*
X45883126Y-17659719D01*
X46003220Y-17598528D01*
X46098528Y-17503220D01*
X46159719Y-17383126D01*
X46180804Y-17250000D01*
X46172091Y-17194987D01*
X46181662Y-17134555D01*
X46224927Y-17091290D01*
X46269872Y-17080500D01*
X47036927Y-17080500D01*
X47036929Y-17080500D01*
X47108269Y-17061384D01*
X47111247Y-17059664D01*
X47111251Y-17059663D01*
X47139217Y-17043516D01*
X47192209Y-17032250D01*
X47192209Y-17030804D01*
X47199013Y-17030804D01*
X47199065Y-17030793D01*
X47199149Y-17030804D01*
X47200000Y-17030804D01*
X47333126Y-17009719D01*
X47453220Y-16948528D01*
X47548528Y-16853220D01*
X47609543Y-16733470D01*
X47652807Y-16690207D01*
X47713239Y-16680636D01*
X47767756Y-16708413D01*
G37*
G04 #@! TD.AperFunction*
G04 #@! TA.AperFunction,Conductor*
G36*
X35836936Y-9099407D02*
G01*
X35872900Y-9148907D01*
X35872900Y-9210093D01*
X35854827Y-9239584D01*
X35856053Y-9240475D01*
X35851470Y-9246782D01*
X35790282Y-9366870D01*
X35790281Y-9366871D01*
X35771074Y-9488139D01*
X35743296Y-9542655D01*
X35688779Y-9570432D01*
X35657808Y-9570432D01*
X35650003Y-9569196D01*
X35650000Y-9569196D01*
X35516872Y-9590281D01*
X35516870Y-9590282D01*
X35396782Y-9651470D01*
X35301470Y-9746782D01*
X35240282Y-9866870D01*
X35240281Y-9866872D01*
X35219196Y-9999999D01*
X35219196Y-10000000D01*
X35240281Y-10133127D01*
X35240282Y-10133129D01*
X35299923Y-10250180D01*
X35301472Y-10253220D01*
X35320505Y-10272253D01*
X35348281Y-10326768D01*
X35349500Y-10342255D01*
X35349500Y-15062989D01*
X35330593Y-15121180D01*
X35295446Y-15151198D01*
X35196781Y-15201471D01*
X35101470Y-15296782D01*
X35040282Y-15416870D01*
X35040281Y-15416872D01*
X35019196Y-15549999D01*
X35019196Y-15550000D01*
X35040281Y-15683127D01*
X35040282Y-15683129D01*
X35100580Y-15801470D01*
X35101472Y-15803220D01*
X35196780Y-15898528D01*
X35196782Y-15898529D01*
X35258427Y-15929939D01*
X35316874Y-15959719D01*
X35450000Y-15980804D01*
X35583126Y-15959719D01*
X35703220Y-15898528D01*
X35730498Y-15871249D01*
X35785013Y-15843474D01*
X35845445Y-15853045D01*
X35888710Y-15896310D01*
X35899500Y-15941255D01*
X35899500Y-16034521D01*
X35880593Y-16092712D01*
X35870503Y-16104525D01*
X35479675Y-16495352D01*
X35425160Y-16523129D01*
X35316872Y-16540281D01*
X35316870Y-16540282D01*
X35196782Y-16601470D01*
X35101470Y-16696782D01*
X35040282Y-16816870D01*
X35040281Y-16816872D01*
X35019196Y-16949999D01*
X35019196Y-16950000D01*
X35040281Y-17083127D01*
X35040282Y-17083129D01*
X35057476Y-17116874D01*
X35101472Y-17203220D01*
X35196780Y-17298528D01*
X35316874Y-17359719D01*
X35450000Y-17380804D01*
X35583126Y-17359719D01*
X35703220Y-17298528D01*
X35798528Y-17203220D01*
X35859719Y-17083126D01*
X35876869Y-16974839D01*
X35904646Y-16920324D01*
X36440460Y-16384511D01*
X36460386Y-16349999D01*
X36462245Y-16346779D01*
X36468992Y-16335091D01*
X36480021Y-16315989D01*
X36500500Y-16239562D01*
X36500500Y-9842255D01*
X36519407Y-9784064D01*
X36529490Y-9772257D01*
X36548528Y-9753220D01*
X36609719Y-9633126D01*
X36630804Y-9500000D01*
X36609719Y-9366874D01*
X36609718Y-9366872D01*
X36609717Y-9366870D01*
X36548529Y-9246782D01*
X36543947Y-9240475D01*
X36545920Y-9239041D01*
X36523474Y-9194987D01*
X36533045Y-9134555D01*
X36576310Y-9091290D01*
X36621255Y-9080500D01*
X38722679Y-9080500D01*
X38780870Y-9099407D01*
X38816834Y-9148907D01*
X38816834Y-9210093D01*
X38792682Y-9249504D01*
X37891664Y-10150519D01*
X37875194Y-10163793D01*
X37868872Y-10167856D01*
X37868871Y-10167857D01*
X37835768Y-10206059D01*
X37830956Y-10211227D01*
X37799500Y-10242685D01*
X37799499Y-10242686D01*
X37795172Y-10250180D01*
X37784266Y-10265496D01*
X37774622Y-10276627D01*
X37774621Y-10276628D01*
X37756591Y-10316107D01*
X37752277Y-10324475D01*
X37733608Y-10356813D01*
X37733607Y-10356813D01*
X37729507Y-10372117D01*
X37723938Y-10387608D01*
X37721286Y-10393417D01*
X37714835Y-10407543D01*
X37709674Y-10443430D01*
X37707310Y-10454953D01*
X37699500Y-10484104D01*
X37699500Y-10507122D01*
X37698492Y-10521211D01*
X37694353Y-10549998D01*
X37694353Y-10550001D01*
X37698492Y-10578786D01*
X37699500Y-10592876D01*
X37699500Y-10615893D01*
X37707310Y-10645042D01*
X37709675Y-10656572D01*
X37714835Y-10692457D01*
X37723937Y-10712388D01*
X37729506Y-10727881D01*
X37733608Y-10743186D01*
X37752277Y-10775523D01*
X37756592Y-10783893D01*
X37774622Y-10823373D01*
X37784259Y-10834494D01*
X37795172Y-10849820D01*
X37799497Y-10857310D01*
X37799498Y-10857311D01*
X37799500Y-10857314D01*
X37817728Y-10875542D01*
X37830961Y-10888775D01*
X37835764Y-10893934D01*
X37868872Y-10932143D01*
X37875186Y-10936201D01*
X37891662Y-10949476D01*
X37892686Y-10950500D01*
X37920212Y-10966392D01*
X37937392Y-10976311D01*
X37941414Y-10978763D01*
X37989942Y-11009950D01*
X37989947Y-11009953D01*
X37990046Y-11009982D01*
X37990215Y-11010032D01*
X38000584Y-11014474D01*
X38000819Y-11013909D01*
X38006809Y-11016389D01*
X38006814Y-11016392D01*
X38063579Y-11031601D01*
X38065813Y-11032228D01*
X38076814Y-11035458D01*
X38128033Y-11050499D01*
X38128038Y-11050499D01*
X38128039Y-11050500D01*
X38128040Y-11050500D01*
X38271958Y-11050500D01*
X38271961Y-11050500D01*
X38334190Y-11032227D01*
X38336393Y-11031608D01*
X38393186Y-11016392D01*
X38393192Y-11016388D01*
X38399188Y-11013906D01*
X38399424Y-11014476D01*
X38409792Y-11010029D01*
X38410053Y-11009953D01*
X38458605Y-10978749D01*
X38462580Y-10976326D01*
X38507314Y-10950500D01*
X38508326Y-10949487D01*
X38524808Y-10936203D01*
X38531128Y-10932143D01*
X38564236Y-10893932D01*
X38569040Y-10888773D01*
X39328319Y-10129496D01*
X39382835Y-10101719D01*
X39398322Y-10100500D01*
X43701679Y-10100500D01*
X43759870Y-10119407D01*
X43771676Y-10129490D01*
X43892683Y-10250497D01*
X43920460Y-10305013D01*
X43910889Y-10365445D01*
X43867624Y-10408710D01*
X43822679Y-10419500D01*
X43113068Y-10419500D01*
X43041734Y-10438614D01*
X43041733Y-10438614D01*
X42977766Y-10475546D01*
X42577769Y-10875544D01*
X42577768Y-10875543D01*
X42525543Y-10927769D01*
X42525539Y-10927774D01*
X42499293Y-10973237D01*
X42499292Y-10973240D01*
X42488617Y-10991728D01*
X42488616Y-10991730D01*
X42488616Y-10991731D01*
X42472869Y-11050500D01*
X42469500Y-11063072D01*
X42469500Y-15686928D01*
X42488616Y-15758269D01*
X42525544Y-15822231D01*
X42577769Y-15874456D01*
X42577771Y-15874457D01*
X43290200Y-16586887D01*
X43317977Y-16641403D01*
X43318118Y-16643196D01*
X43340281Y-16783127D01*
X43340282Y-16783129D01*
X43401470Y-16903217D01*
X43401472Y-16903220D01*
X43492875Y-16994623D01*
X43520651Y-17049138D01*
X43511080Y-17109570D01*
X43492874Y-17134629D01*
X39537002Y-21090504D01*
X39482485Y-21118281D01*
X39466998Y-21119500D01*
X30831237Y-21119500D01*
X30773046Y-21100593D01*
X30737082Y-21051093D01*
X30737082Y-20989907D01*
X30773046Y-20940407D01*
X30794793Y-20928452D01*
X31088095Y-20812325D01*
X31088097Y-20812324D01*
X31369328Y-20657716D01*
X31628964Y-20469080D01*
X31862911Y-20249390D01*
X32067478Y-20002110D01*
X32239439Y-19731142D01*
X32376084Y-19440758D01*
X32475256Y-19135538D01*
X32535392Y-18820294D01*
X32555543Y-18500000D01*
X32535392Y-18179706D01*
X32475256Y-17864462D01*
X32376084Y-17559242D01*
X32367636Y-17541290D01*
X32303674Y-17405364D01*
X32239439Y-17268858D01*
X32239435Y-17268853D01*
X32239431Y-17268844D01*
X32067478Y-16997890D01*
X31862916Y-16750616D01*
X31862906Y-16750605D01*
X31659630Y-16559717D01*
X31628964Y-16530920D01*
X31369328Y-16342284D01*
X31369322Y-16342280D01*
X31369317Y-16342277D01*
X31088098Y-16187676D01*
X31088095Y-16187674D01*
X30789706Y-16069534D01*
X30789574Y-16069500D01*
X30478861Y-15989723D01*
X30478854Y-15989722D01*
X30478858Y-15989722D01*
X30160464Y-15949500D01*
X29839536Y-15949500D01*
X29521143Y-15989722D01*
X29210293Y-16069534D01*
X28911904Y-16187674D01*
X28911901Y-16187676D01*
X28630682Y-16342277D01*
X28630673Y-16342283D01*
X28630672Y-16342284D01*
X28546805Y-16403217D01*
X28371033Y-16530922D01*
X28137093Y-16750605D01*
X28137083Y-16750616D01*
X27932521Y-16997890D01*
X27760568Y-17268844D01*
X27760561Y-17268857D01*
X27623918Y-17559235D01*
X27623916Y-17559242D01*
X27534926Y-17833127D01*
X27524745Y-17864460D01*
X27524742Y-17864470D01*
X27464608Y-18179700D01*
X27444457Y-18500000D01*
X27464608Y-18820299D01*
X27524742Y-19135529D01*
X27524744Y-19135538D01*
X27623916Y-19440758D01*
X27623918Y-19440764D01*
X27760561Y-19731142D01*
X27760568Y-19731155D01*
X27932521Y-20002109D01*
X28137083Y-20249383D01*
X28137093Y-20249394D01*
X28270773Y-20374927D01*
X28371036Y-20469080D01*
X28630672Y-20657716D01*
X28630679Y-20657719D01*
X28630682Y-20657722D01*
X28911901Y-20812323D01*
X28911904Y-20812325D01*
X29205207Y-20928452D01*
X29252352Y-20967453D01*
X29267568Y-21026716D01*
X29245044Y-21083605D01*
X29193383Y-21116390D01*
X29168763Y-21119500D01*
X26457194Y-21119500D01*
X26399003Y-21100593D01*
X26387191Y-21090504D01*
X25980102Y-20683416D01*
X25980099Y-20683412D01*
X25980099Y-20683413D01*
X25974457Y-20677771D01*
X25974456Y-20677769D01*
X25922231Y-20625544D01*
X25858269Y-20588616D01*
X25858268Y-20588615D01*
X25858265Y-20588614D01*
X25786931Y-20569500D01*
X25786929Y-20569500D01*
X25786928Y-20569500D01*
X22586928Y-20569500D01*
X22513071Y-20569500D01*
X22513068Y-20569500D01*
X22441734Y-20588614D01*
X22441733Y-20588614D01*
X22377766Y-20625546D01*
X22217821Y-20785492D01*
X22063111Y-20940200D01*
X22008596Y-20967977D01*
X22006804Y-20968117D01*
X21859178Y-20991500D01*
X21858660Y-20988231D01*
X21811951Y-20988190D01*
X21762484Y-20952181D01*
X21743629Y-20893973D01*
X21762589Y-20835800D01*
X21772617Y-20824067D01*
X27737191Y-14859496D01*
X27791708Y-14831719D01*
X27807195Y-14830500D01*
X33936927Y-14830500D01*
X33936929Y-14830500D01*
X34008269Y-14811384D01*
X34015022Y-14807485D01*
X34072231Y-14774456D01*
X34124456Y-14722231D01*
X34124456Y-14722229D01*
X34132606Y-14714080D01*
X34132607Y-14714077D01*
X34524455Y-14322232D01*
X34524715Y-14321781D01*
X34528905Y-14314527D01*
X34555604Y-14268281D01*
X34561384Y-14258269D01*
X34571885Y-14219080D01*
X34580500Y-14186929D01*
X34580500Y-14113072D01*
X34580500Y-10207194D01*
X34599407Y-10149003D01*
X34609496Y-10137190D01*
X35637191Y-9109496D01*
X35691708Y-9081719D01*
X35707195Y-9080500D01*
X35778745Y-9080500D01*
X35836936Y-9099407D01*
G37*
G04 #@! TD.AperFunction*
G04 #@! TA.AperFunction,Conductor*
G36*
X43469504Y-12410161D02*
G01*
X47091586Y-16032243D01*
X47119363Y-16086760D01*
X47109792Y-16147192D01*
X47066528Y-16190456D01*
X46946781Y-16251471D01*
X46851471Y-16346781D01*
X46791008Y-16465446D01*
X46747743Y-16508710D01*
X46702799Y-16519500D01*
X44919872Y-16519500D01*
X44861681Y-16500593D01*
X44825717Y-16451093D01*
X44822091Y-16405013D01*
X44830804Y-16350000D01*
X44830804Y-16349999D01*
X44825417Y-16315985D01*
X44809719Y-16216874D01*
X44748528Y-16096780D01*
X44653220Y-16001472D01*
X44653217Y-16001470D01*
X44533129Y-15940282D01*
X44533127Y-15940281D01*
X44400000Y-15919196D01*
X44266873Y-15940281D01*
X44244904Y-15951475D01*
X44184472Y-15961046D01*
X44129956Y-15933269D01*
X43329496Y-15132809D01*
X43301719Y-15078292D01*
X43300500Y-15062805D01*
X43300500Y-12480165D01*
X43319407Y-12421974D01*
X43368907Y-12386010D01*
X43430093Y-12386010D01*
X43469504Y-12410161D01*
G37*
G04 #@! TD.AperFunction*
G04 #@! TA.AperFunction,Conductor*
G36*
X55903691Y-9324407D02*
G01*
X55939655Y-9373907D01*
X55944500Y-9404500D01*
X55944500Y-9525001D01*
X55949651Y-9570727D01*
X55978669Y-9630981D01*
X55989334Y-9653127D01*
X56060837Y-9710149D01*
X56150000Y-9730500D01*
X57649999Y-9730500D01*
X57650000Y-9730500D01*
X57695728Y-9725348D01*
X57778127Y-9685666D01*
X57835149Y-9614163D01*
X57855500Y-9525000D01*
X57855500Y-9404500D01*
X57874407Y-9346309D01*
X57923907Y-9310345D01*
X57954500Y-9305500D01*
X58350500Y-9305500D01*
X58408691Y-9324407D01*
X58444655Y-9373907D01*
X58449500Y-9404500D01*
X58449500Y-9704274D01*
X58452353Y-9734694D01*
X58452355Y-9734703D01*
X58497207Y-9862883D01*
X58577845Y-9972144D01*
X58577847Y-9972146D01*
X58577850Y-9972150D01*
X58577853Y-9972152D01*
X58577855Y-9972154D01*
X58687116Y-10052792D01*
X58687117Y-10052792D01*
X58687118Y-10052793D01*
X58815301Y-10097646D01*
X58845725Y-10100499D01*
X58845727Y-10100500D01*
X58845734Y-10100500D01*
X58970500Y-10100500D01*
X59028691Y-10119407D01*
X59064655Y-10168907D01*
X59069500Y-10199500D01*
X59069500Y-10900500D01*
X59050593Y-10958691D01*
X59001093Y-10994655D01*
X58970500Y-10999500D01*
X58845725Y-10999500D01*
X58815305Y-11002353D01*
X58815296Y-11002355D01*
X58687116Y-11047207D01*
X58577855Y-11127845D01*
X58577845Y-11127855D01*
X58497207Y-11237116D01*
X58452355Y-11365296D01*
X58452353Y-11365305D01*
X58449500Y-11395725D01*
X58449500Y-11420500D01*
X58430593Y-11478691D01*
X58381093Y-11514655D01*
X58350500Y-11519500D01*
X57907848Y-11519500D01*
X57849657Y-11500593D01*
X57818653Y-11463456D01*
X57810667Y-11446874D01*
X57810666Y-11446873D01*
X57739162Y-11389850D01*
X57650000Y-11369500D01*
X56150000Y-11369500D01*
X56149998Y-11369500D01*
X56104272Y-11374651D01*
X56021872Y-11414334D01*
X55964850Y-11485837D01*
X55944500Y-11575000D01*
X55944500Y-12724999D01*
X55944501Y-12725011D01*
X55957933Y-12798079D01*
X55957935Y-12798085D01*
X56008666Y-12874181D01*
X56087389Y-12920730D01*
X56094558Y-12921342D01*
X56178514Y-12928512D01*
X56263991Y-12895986D01*
X56845085Y-12508589D01*
X56903989Y-12492043D01*
X56954914Y-12508590D01*
X57536006Y-12895985D01*
X57536009Y-12895986D01*
X57604272Y-12925348D01*
X57604273Y-12925348D01*
X57695728Y-12925348D01*
X57778127Y-12885666D01*
X57835149Y-12814163D01*
X57855500Y-12725000D01*
X57855500Y-12179500D01*
X57874407Y-12121309D01*
X57923907Y-12085345D01*
X57954500Y-12080500D01*
X58350500Y-12080500D01*
X58408691Y-12099407D01*
X58444655Y-12148907D01*
X58449500Y-12179500D01*
X58449500Y-12204274D01*
X58452353Y-12234694D01*
X58452355Y-12234703D01*
X58497207Y-12362883D01*
X58549896Y-12434274D01*
X58569238Y-12492322D01*
X58550767Y-12550652D01*
X58540245Y-12563065D01*
X58077771Y-13025541D01*
X58077771Y-13025542D01*
X58077769Y-13025544D01*
X58077768Y-13025543D01*
X58025546Y-13077766D01*
X57988616Y-13141730D01*
X57988616Y-13141731D01*
X57969500Y-13213072D01*
X57969500Y-13213074D01*
X57969500Y-13529438D01*
X57950593Y-13587629D01*
X57940504Y-13599441D01*
X57639443Y-13900503D01*
X57584926Y-13928281D01*
X57569439Y-13929500D01*
X56217195Y-13929500D01*
X56159004Y-13910593D01*
X56147191Y-13900504D01*
X54759496Y-12512809D01*
X54731719Y-12458292D01*
X54730500Y-12442805D01*
X54730500Y-11013070D01*
X54729663Y-11009947D01*
X54729663Y-11009946D01*
X54711385Y-10941734D01*
X54711385Y-10941733D01*
X54708190Y-10936199D01*
X54674456Y-10877769D01*
X53271189Y-9474503D01*
X53243413Y-9419987D01*
X53252984Y-9359555D01*
X53296249Y-9316290D01*
X53341194Y-9305500D01*
X55845500Y-9305500D01*
X55903691Y-9324407D01*
G37*
G04 #@! TD.AperFunction*
G04 #@! TA.AperFunction,Conductor*
G36*
X35979103Y-519406D02*
G01*
X36015067Y-568906D01*
X36015067Y-630092D01*
X35990916Y-669503D01*
X35919759Y-740659D01*
X35826739Y-879874D01*
X35762664Y-1034565D01*
X35730000Y-1198779D01*
X35730000Y-1332499D01*
X35730001Y-1332500D01*
X36180001Y-1332500D01*
X36180001Y-1832500D01*
X35730001Y-1832500D01*
X35730000Y-1832501D01*
X35730000Y-1966220D01*
X35762664Y-2130434D01*
X35826739Y-2285125D01*
X35919759Y-2424340D01*
X36038159Y-2542740D01*
X36181002Y-2638184D01*
X36218882Y-2686234D01*
X36221284Y-2747372D01*
X36187292Y-2798246D01*
X36129888Y-2819424D01*
X36126001Y-2819500D01*
X28373999Y-2819500D01*
X28315808Y-2800593D01*
X28279844Y-2751093D01*
X28279844Y-2689907D01*
X28315808Y-2640407D01*
X28318998Y-2638184D01*
X28461840Y-2542740D01*
X28580240Y-2424340D01*
X28673260Y-2285125D01*
X28737335Y-2130434D01*
X28769999Y-1966220D01*
X28770000Y-1966216D01*
X28770000Y-1832501D01*
X28769999Y-1832500D01*
X28319999Y-1832500D01*
X28319999Y-1332500D01*
X28769999Y-1332500D01*
X28770000Y-1332499D01*
X28770000Y-1198783D01*
X28769999Y-1198779D01*
X28737335Y-1034565D01*
X28673260Y-879874D01*
X28580240Y-740659D01*
X28509084Y-669503D01*
X28481307Y-614986D01*
X28490878Y-554554D01*
X28534143Y-511289D01*
X28579088Y-500499D01*
X35920912Y-500499D01*
X35979103Y-519406D01*
G37*
G04 #@! TD.AperFunction*
G04 #@! TA.AperFunction,Conductor*
G36*
X57885168Y-519406D02*
G01*
X57921132Y-568906D01*
X57921132Y-630092D01*
X57885168Y-679592D01*
X57871923Y-687708D01*
X57746780Y-751472D01*
X57746778Y-751473D01*
X57707747Y-790504D01*
X57653230Y-818281D01*
X57637744Y-819500D01*
X41463068Y-819500D01*
X41391734Y-838614D01*
X41391733Y-838614D01*
X41343163Y-866656D01*
X41334549Y-871630D01*
X41327766Y-875546D01*
X39412810Y-2790504D01*
X39358293Y-2818281D01*
X39342806Y-2819500D01*
X37033999Y-2819500D01*
X36975808Y-2800593D01*
X36939844Y-2751093D01*
X36939844Y-2689907D01*
X36975808Y-2640407D01*
X36978998Y-2638184D01*
X37121840Y-2542740D01*
X37240240Y-2424340D01*
X37333260Y-2285125D01*
X37397335Y-2130434D01*
X37429999Y-1966220D01*
X37430000Y-1966216D01*
X37430000Y-1832501D01*
X37429999Y-1832500D01*
X36979999Y-1832500D01*
X36979999Y-1332500D01*
X37429999Y-1332500D01*
X37430000Y-1332499D01*
X37430000Y-1198783D01*
X37429999Y-1198779D01*
X37397335Y-1034565D01*
X37333260Y-879874D01*
X37240240Y-740659D01*
X37169084Y-669503D01*
X37141307Y-614986D01*
X37150878Y-554554D01*
X37194143Y-511289D01*
X37239088Y-500499D01*
X57826977Y-500499D01*
X57885168Y-519406D01*
G37*
G04 #@! TD.AperFunction*
G04 #@! TD*
M02*
